<svg width="500" height="500" viewBox="0 0 500 500" fill="none" xmlns="http://www.w3.org/2000/svg">
<path d="M371.391 462.188C296.344 499.005 159.739 470.161 110.052 415.375C25.0728 321.667 43.5364 174.839 80.2447 125.51C173.651 0.00520706 263.818 87.2344 312.766 99.6094C384.969 117.875 456.448 118.271 467.995 250.578C474.953 330.266 464.797 416.37 371.391 462.188Z" fill="#EFFEFF"/>
<path d="M441.318 203.052C418.162 181.068 405.922 180.073 396 158.255C390.422 145.995 396.495 94.125 346.385 92.1406C339.922 91.8854 315.073 93.2396 311.818 119.25C310.51 129.724 311.135 137.016 311.828 142.885C312.427 147.953 312.344 153.078 311.464 158.104C310.167 165.51 307.037 173.823 299.87 179.177C299.313 179.594 299.792 180.469 300.443 180.219C304.167 178.807 309.401 176.182 313.146 171.682C313.474 171.281 314.12 171.563 314.057 172.078C314.031 172.318 314 172.557 313.969 172.802C312.526 183.797 294.781 194.786 299.745 216.109C304.708 237.432 418.495 283.052 437.349 273.63C456.203 264.208 462.651 223.302 441.318 203.052Z" fill="#023436"/>
<path d="M424.917 206.406C424.917 206.406 403.906 187.927 371.964 184.146C371.964 184.146 316.495 183.724 294.219 204.307C271.948 224.885 258.5 271.083 259.76 305.521L424.917 355.505V206.406Z" fill="#12AFB6"/>
<path d="M357.047 211.656C357.047 211.656 370.286 215.016 379.948 207.875L406 285.156C406 285.156 393.177 212.026 424.693 206.359C424.693 206.359 446.526 219 442.969 261.396C439.062 308.01 433.109 339.964 411.047 341.854C388.984 343.745 362.932 335.344 357.047 211.656Z" fill="#12AFB6"/>
<path d="M167.198 218.984L185.792 208.375C186.318 208.073 186.99 208.24 187.307 208.755C191.333 215.292 216.104 254.24 234.505 254.724C254.589 255.255 280.396 215.448 292.76 205.734L309.208 258.75C309.208 258.75 278.177 302.359 222.036 304.495C190.859 305.677 169.089 229.135 166.667 220.25C166.536 219.755 166.75 219.24 167.198 218.984Z" fill="#12AFB6"/>
<path d="M403.995 342.953C394.021 342.953 386.812 340.661 381.151 335.807C373.276 329.052 367.99 317.141 363.995 297.172C360.328 278.828 357.651 253.365 355.052 212.026C355.026 211.604 355.344 211.245 355.766 211.219C356.177 211.193 356.547 211.51 356.573 211.932C361.021 282.589 366.198 320.974 382.141 334.651C388.823 340.38 397.443 342.307 410.979 341.094C411.385 341.057 411.766 341.365 411.807 341.786C411.844 342.203 411.531 342.573 411.115 342.609C408.594 342.839 406.229 342.953 403.995 342.953Z" fill="#EFFEFF"/>
<path d="M411.052 296.536C410.74 296.536 410.443 296.338 410.333 296.021L380.562 208.417C380.427 208.021 380.641 207.588 381.036 207.453C381.437 207.318 381.87 207.531 382.005 207.927L411.776 295.531C411.911 295.932 411.698 296.365 411.297 296.495C411.219 296.526 411.135 296.536 411.052 296.536Z" fill="#EFFEFF"/>
<path d="M403.448 251.589C403.443 251.589 403.437 251.589 403.432 251.589C403.016 251.578 402.677 251.234 402.687 250.812C403.026 232.286 406.578 219.198 413.25 211.906C413.531 211.599 414.016 211.578 414.328 211.865C414.635 212.146 414.656 212.625 414.375 212.937C407.958 219.943 404.542 232.693 404.208 250.839C404.203 251.255 403.865 251.589 403.448 251.589Z" fill="#EFFEFF"/>
<path d="M298.422 266.786C298.005 266.786 297.661 266.448 297.661 266.026V239.25C297.661 238.828 298.005 238.49 298.422 238.49C298.844 238.49 299.182 238.828 299.182 239.25V266.026C299.182 266.448 298.844 266.786 298.422 266.786Z" fill="#EFFEFF"/>
<path d="M341.755 158.255C341.755 158.255 342.281 172.797 341.672 182.495C341.391 187.062 338.203 190.932 333.786 192.146L327.974 193.734C324.984 194.557 324.688 198.682 327.536 199.917C338.766 204.792 361.339 211.026 387.87 198.974C390.698 197.693 390.365 193.578 387.354 192.797L375.917 189.833C371.667 188.729 368.51 185.156 367.948 180.802L363.583 147.016L341.755 158.255Z" fill="white"/>
<path d="M342.531 158.714C342.615 161.323 342.974 173.911 342.432 182.542C342.13 187.422 338.734 191.578 333.99 192.88L328.177 194.469C326.906 194.818 326.385 195.865 326.323 196.724C326.26 197.589 326.63 198.693 327.839 199.219C338.844 204 361.24 210.229 387.557 198.286C388.766 197.734 389.12 196.615 389.042 195.75C388.969 194.891 388.438 193.865 387.162 193.531L375.724 190.568C371.146 189.385 367.797 185.589 367.193 180.901L362.969 148.193L342.531 158.714ZM356.573 206.693C343.932 206.693 333.677 203.411 327.229 200.615C325.635 199.922 324.682 198.354 324.807 196.62C324.927 194.88 326.094 193.464 327.776 193.005L333.583 191.411C337.703 190.281 340.651 186.677 340.912 182.448C341.51 172.896 341 158.427 340.995 158.281L340.974 157.802L364.203 145.844L368.703 180.708C369.229 184.771 372.135 188.068 376.109 189.099L387.547 192.057C389.229 192.495 390.412 193.891 390.557 195.615C390.708 197.354 389.781 198.948 388.182 199.667C376.724 204.87 365.984 206.693 356.573 206.693Z" fill="#023436"/>
<path d="M326.453 110.979C321.844 115.854 319.453 122.411 319.469 129.125C319.474 132.932 321.464 136.62 322.078 141.807C323.646 155.198 329.323 165.896 344.833 164.839C344.833 164.839 363.448 163.828 365.724 143.88C365.724 143.88 366.813 133.823 362.266 123.214C359.208 116.094 350.557 101.698 337.167 104.729C332.563 105.771 329.063 108.214 326.453 110.979Z" fill="white"/>
<path d="M327.005 111.5C322.62 116.141 320.208 122.396 320.224 129.125C320.229 131.031 320.76 132.906 321.375 135.083C321.917 137.021 322.531 139.208 322.828 141.724C324.698 157.646 331.88 164.958 344.776 164.083C345.521 164.042 362.792 162.854 364.964 143.792C364.974 143.698 365.974 133.802 361.563 123.516C360.031 119.932 351.641 102.24 337.333 105.474C333.422 106.359 329.948 108.385 327.005 111.5ZM342.776 165.677C330.391 165.677 323.172 157.687 321.318 141.901C321.037 139.505 320.464 137.469 319.906 135.495C319.292 133.307 318.708 131.24 318.703 129.125C318.688 122.01 321.24 115.38 325.896 110.458C329.052 107.12 332.787 104.943 336.995 103.99C352.484 100.484 361.344 119.141 362.964 122.917C367.537 133.583 366.526 143.547 366.474 143.964C364.156 164.323 345.063 165.594 344.87 165.604C344.156 165.651 343.458 165.677 342.776 165.677Z" fill="#023436"/>
<path d="M352.833 107.005C352.833 107.005 350.849 113.964 339.943 122.917C332.87 128.724 320.547 130.047 318.463 134.786C318.463 134.786 310.88 105.995 335.396 102.708C359.911 99.4271 352.833 107.005 352.833 107.005Z" fill="#023436"/>
<path d="M450.25 363.484C450.177 363.484 450.104 363.469 450.031 363.448L301.682 319.812C301.276 319.698 301.047 319.271 301.167 318.87C301.286 318.464 301.708 318.234 302.109 318.354L450.463 361.99C450.864 362.109 451.099 362.531 450.979 362.937C450.88 363.266 450.578 363.484 450.25 363.484Z" fill="#023436"/>
<path d="M182.083 209.276C179.516 203.698 177.224 192.938 174.615 189.24C172 185.542 168.938 182.333 164.057 179.271C161.552 177.703 156.438 174.688 152.516 173.641C148.599 172.594 150.313 180.156 153.828 181.51C157.344 182.87 160.052 185.344 159.089 186.01C158.417 186.474 156.557 188.484 152.969 187.625C148.948 186.656 146.281 182.875 146.38 178.745C146.401 178.031 146.474 177.302 146.625 176.594C147.552 172.286 145.521 167.802 141.469 166.057C139.552 165.24 137.245 164.823 134.537 165.271C130.25 165.979 129.224 190.365 145.568 198.224C148.953 199.849 162.88 202.714 165.75 206.661C168.615 210.609 170.677 216.193 170.677 216.193L182.083 209.276Z" fill="white"/>
<path d="M136.713 165.849C136.042 165.849 135.354 165.906 134.661 166.021C134.151 166.109 133.245 167.318 132.812 170.313C131.729 177.885 134.323 191.974 145.901 197.537C146.88 198.01 148.901 198.625 151.245 199.333C157.026 201.089 164.224 203.271 166.364 206.219C168.614 209.323 170.354 213.339 171.057 215.073L181.114 208.974C180.094 206.599 179.109 203.469 178.156 200.432C176.807 196.135 175.411 191.693 173.989 189.677C171.078 185.557 167.989 182.635 163.651 179.917C161.047 178.281 156.109 175.391 152.323 174.38C151.443 174.141 151.25 174.495 151.135 174.844C150.646 176.339 151.984 179.99 154.099 180.802C156.812 181.849 159.849 183.932 160.036 185.474C160.094 185.948 159.901 186.375 159.521 186.635C159.448 186.688 159.364 186.755 159.26 186.839C158.375 187.547 156.297 189.208 152.786 188.365C148.526 187.344 145.51 183.287 145.62 178.729C145.64 177.912 145.729 177.141 145.88 176.438C146.75 172.375 144.771 168.307 141.167 166.76C139.755 166.156 138.266 165.849 136.713 165.849ZM170.281 217.323L169.958 216.458C169.943 216.406 167.901 210.927 165.13 207.109C163.292 204.578 155.776 202.297 150.802 200.787C148.302 200.031 146.328 199.432 145.239 198.906C132.927 192.99 130.161 178.094 131.307 170.099C131.786 166.755 132.89 164.771 134.411 164.521C137 164.094 139.474 164.375 141.765 165.365C146.036 167.198 148.39 171.99 147.37 176.76C147.234 177.37 147.161 178.042 147.14 178.766C147.052 182.615 149.573 186.026 153.146 186.885C155.927 187.552 157.479 186.318 158.312 185.646C158.37 185.604 158.422 185.557 158.474 185.521C158.146 184.906 156.359 183.307 153.552 182.224C150.724 181.13 148.917 176.74 149.687 174.375C150.114 173.063 151.245 172.516 152.713 172.906C156.693 173.974 161.781 176.948 164.458 178.63C168.917 181.427 172.239 184.563 175.234 188.802C176.792 191.01 178.161 195.365 179.609 199.979C180.635 203.24 181.693 206.615 182.776 208.958L183.057 209.578L170.281 217.323Z" fill="#023436"/>
<path d="M165.844 209.073L179.865 201.208C180.484 200.859 181.266 201.094 181.594 201.729L186.313 210.896C186.62 211.495 186.396 212.24 185.802 212.568L171.714 220.354C171.094 220.698 170.313 220.458 169.99 219.828L165.339 210.734C165.031 210.135 165.255 209.401 165.844 209.073Z" fill="white"/>
<path d="M180.474 201.807C180.391 201.807 180.313 201.828 180.234 201.87L166.214 209.734C165.984 209.865 165.896 210.151 166.016 210.391L170.667 219.484C170.729 219.604 170.833 219.693 170.964 219.729C171.089 219.771 171.229 219.755 171.344 219.693L185.432 211.901C185.667 211.771 185.755 211.479 185.635 211.24L180.917 202.073C180.854 201.958 180.75 201.87 180.62 201.828C180.573 201.818 180.521 201.807 180.474 201.807ZM171.109 221.276C170.912 221.276 170.714 221.245 170.516 221.188C169.99 221.026 169.563 220.667 169.313 220.177L164.662 211.083C164.167 210.115 164.521 208.938 165.469 208.406L179.49 200.547C179.969 200.276 180.531 200.214 181.057 200.37C181.589 200.531 182.016 200.891 182.271 201.38L186.99 210.547C187.49 211.521 187.13 212.703 186.172 213.229L172.083 221.021C171.776 221.188 171.448 221.276 171.109 221.276Z" fill="#023436"/>
<path d="M355.698 158.115C354.229 158.115 352.74 157.911 351.26 157.484L336.193 153.115L336.62 151.651L351.687 156.021C358.411 157.969 365.495 154.807 368.531 148.5L371.604 142.12L372.974 142.776L369.901 149.161C367.208 154.755 361.641 158.115 355.698 158.115Z" fill="#023436"/>
<path d="M371.787 126.453C371.375 126.453 371.037 126.125 371.026 125.708C371.021 125.521 370.495 106.615 360.458 97.2708C356.458 93.5521 351.443 91.8125 345.542 92.1041C345.109 92.1302 344.766 91.8021 344.745 91.3802C344.724 90.9635 345.047 90.6041 345.469 90.5833C351.797 90.2708 357.193 92.1458 361.5 96.1562C372.01 105.948 372.531 124.875 372.547 125.677C372.557 126.099 372.224 126.448 371.802 126.453C371.797 126.453 371.792 126.453 371.787 126.453Z" fill="#EFFEFF"/>
<path d="M330.693 152.318C330.406 150.068 332.037 148.01 334.328 147.724C336.62 147.432 338.703 149.021 338.99 151.266C339.271 153.516 337.646 155.573 335.359 155.865C333.068 156.151 330.979 154.563 330.693 152.318Z" fill="#12AFB6"/>
<path d="M360.885 136.031C360.089 129.719 364.13 124.016 369.917 123.286C370.552 123.203 372.906 123.146 373.521 123.188C378.542 123.521 381.125 127.766 381.839 133.38C382.604 139.432 380.297 145.094 374.88 146.172C374.656 146.214 373.052 146.344 372.818 146.344C366.474 146.365 361.682 142.333 360.885 136.031Z" fill="#12AFB6"/>
<path d="M363.391 135.823C362.714 129.5 366.87 123.875 372.672 123.26C378.469 122.641 383.719 127.26 384.396 133.583C385.068 139.906 380.917 145.531 375.115 146.146C369.313 146.766 364.063 142.146 363.391 135.823Z" fill="#037171"/>
<path d="M344.859 145.922C346.234 144.115 355.995 147.813 359.989 149.286C363.984 150.755 374.276 164.615 375.12 173.854C375.958 183.094 373.229 198.635 375.333 204.094C375.333 204.094 370.286 208.714 360.828 207.453C360.828 207.453 359.781 198.635 357.891 195.484C355.995 192.333 344.443 183.932 345.281 178.26C345.917 173.964 354.057 170.75 357.943 169.448C358.573 169.24 358.531 168.333 357.891 168.188C355.896 167.745 352.698 167.38 349.276 168.396C343.599 170.073 338.557 167.344 340.87 164.193C342.943 161.37 351.276 158.37 357.219 159C357.463 159.026 357.552 158.698 357.328 158.599C352.703 156.563 341.135 150.833 344.859 145.922Z" fill="white"/>
<path d="M361.511 206.771C368.75 207.562 373.167 204.781 374.438 203.833C373.401 200.443 373.755 194.354 374.13 187.932C374.417 182.969 374.714 177.839 374.359 173.922C373.547 164.979 363.469 151.375 359.724 150L359.224 149.812C357.068 149.016 353.802 147.812 350.87 147.005C346.068 145.682 345.474 146.38 345.469 146.385C344.938 147.089 344.776 147.812 344.979 148.609C345.662 151.24 350.396 154.714 357.636 157.901C358.078 158.099 358.307 158.578 358.182 159.042C358.057 159.51 357.62 159.807 357.141 159.755C351.474 159.156 343.386 162.052 341.484 164.646C340.969 165.344 340.917 165.964 341.328 166.542C342.281 167.901 345.511 168.714 349.057 167.667C352.604 166.615 355.906 166.969 358.052 167.448C358.677 167.589 359.12 168.115 359.151 168.755C359.188 169.396 358.797 169.964 358.188 170.172C350.979 172.578 346.438 175.646 346.031 178.375C345.511 181.906 350.734 187.021 354.547 190.75C356.422 192.589 357.906 194.036 358.542 195.094C360.224 197.896 361.234 204.703 361.511 206.771ZM364.068 208.437C363.021 208.437 361.912 208.365 360.729 208.208L360.146 208.13L360.073 207.542C360.063 207.458 359.021 198.849 357.234 195.875C356.698 194.984 355.208 193.526 353.479 191.839C349.208 187.656 343.891 182.453 344.526 178.151C345.193 173.677 352.672 170.448 357.333 168.849C355.365 168.458 352.521 168.229 349.49 169.125C345.62 170.271 341.573 169.536 340.078 167.417C339.297 166.302 339.359 164.964 340.255 163.745C342.146 161.167 348.724 158.432 354.594 158.172C350.099 155.979 344.438 152.578 343.505 148.99C343.182 147.734 343.432 146.547 344.255 145.464C345.641 143.635 350.99 145.151 359.75 148.385L360.255 148.573C364.365 150.083 375.005 164.182 375.875 173.786C376.24 177.818 375.938 183.005 375.646 188.021C375.281 194.333 374.901 200.865 376.037 203.823L376.224 204.307L375.844 204.656C375.651 204.828 371.615 208.437 364.068 208.437Z" fill="#023436"/>
<path d="M358.984 201.172C361.364 201.505 367.687 201.844 375.333 197.922C375.797 197.682 376.364 197.964 376.463 198.479L378.239 207.385C378.307 207.729 378.151 208.068 377.849 208.234C375.786 209.37 367.724 213.312 359.552 210.661C359.26 210.568 359.052 210.307 359.016 210L358.088 202.047C358.026 201.531 358.469 201.099 358.984 201.172Z" fill="white"/>
<path d="M358.87 201.922C358.865 201.922 358.859 201.927 358.854 201.932L359.776 209.911C367.594 212.469 375.302 208.766 377.479 207.573L375.719 198.625C367.839 202.625 361.318 202.266 358.875 201.927L358.87 201.922ZM365.417 212.328C363.453 212.328 361.391 212.062 359.323 211.391C358.745 211.203 358.328 210.693 358.255 210.089L357.333 202.135C357.276 201.656 357.443 201.182 357.786 200.844C358.135 200.505 358.604 200.349 359.083 200.417C361.38 200.74 367.531 201.073 374.984 197.245C375.417 197.026 375.922 197.021 376.365 197.234C376.807 197.448 377.115 197.844 377.214 198.328L378.99 207.24C379.12 207.906 378.807 208.578 378.214 208.906C376.474 209.859 371.401 212.328 365.417 212.328Z" fill="#023436"/>
<path d="M250.083 91.8333C248.068 91.8333 246.036 92.0625 244.021 92.526C237.021 94.1302 231.068 98.3646 227.255 104.448C223.443 110.531 222.224 117.729 223.833 124.724C225.443 131.719 229.677 137.672 235.76 141.479C248.323 149.344 264.943 145.526 272.818 132.974C276.63 126.891 277.844 119.693 276.234 112.698C274.625 105.703 270.391 99.75 264.307 95.9427C259.974 93.2291 255.078 91.8333 250.083 91.8333ZM249.989 147.089C244.838 147.089 239.63 145.698 234.953 142.771C228.526 138.745 224.047 132.458 222.349 125.062C220.651 117.672 221.932 110.068 225.963 103.641C229.989 97.2135 236.281 92.7396 243.677 91.0416C251.073 89.3437 258.687 90.6302 265.114 94.651C271.547 98.6823 276.021 104.964 277.719 112.354C279.417 119.745 278.135 127.359 274.104 133.781C268.724 142.375 259.458 147.089 249.989 147.089Z" fill="#023436"/>
<path d="M243.396 102.411C243.261 102.411 243.125 102.427 242.99 102.458C242.516 102.568 242.115 102.854 241.859 103.266L232.031 118.938C231.776 119.349 231.693 119.833 231.802 120.302C231.912 120.776 232.198 121.177 232.604 121.432L255.318 135.651C255.729 135.906 256.219 135.99 256.682 135.885C257.156 135.776 257.557 135.49 257.813 135.078L267.641 119.401C267.896 118.995 267.979 118.51 267.87 118.042C267.761 117.568 267.479 117.167 267.068 116.911L244.354 102.688C244.063 102.505 243.729 102.411 243.396 102.411ZM256.271 137.453C255.656 137.453 255.047 137.281 254.511 136.943L231.797 122.719C231.042 122.25 230.516 121.51 230.318 120.646C230.12 119.776 230.271 118.885 230.74 118.13L240.568 102.453C241.547 100.901 243.604 100.422 245.162 101.401L267.875 115.625C268.63 116.094 269.156 116.833 269.354 117.698C269.557 118.563 269.401 119.458 268.932 120.214L259.104 135.891C258.63 136.646 257.891 137.167 257.026 137.365C256.776 137.422 256.526 137.453 256.271 137.453Z" fill="#023436"/>
<path d="M249.38 120.885C249.094 120.885 248.818 120.724 248.693 120.443L243.568 109.307C243.391 108.922 243.557 108.474 243.943 108.297C244.328 108.12 244.776 108.286 244.953 108.667L250.073 119.807C250.25 120.193 250.083 120.641 249.698 120.818C249.599 120.865 249.49 120.885 249.38 120.885Z" fill="#023436"/>
<path d="M249.443 120.927C249.026 120.927 248.688 120.594 248.682 120.177C248.672 119.76 249.005 119.411 249.427 119.401L261.688 119.151C262.104 119.125 262.458 119.474 262.469 119.896C262.474 120.318 262.141 120.661 261.719 120.672L249.458 120.927C249.453 120.927 249.448 120.927 249.443 120.927Z" fill="#023436"/>
<path d="M154.536 124.979L137.448 128.828C135.338 129.302 133.703 130.958 133.255 133.068L130.974 143.792L123.156 134.974C121.823 133.469 119.771 132.807 117.807 133.25L102.083 136.786C99.1093 137.464 96.1457 135.589 95.4791 132.615L87.9582 99.2656C87.2864 96.2917 89.1562 93.3334 92.1353 92.6615L144.588 80.849C147.568 80.1823 150.526 82.0469 151.198 85.0261L158.719 118.375C159.385 121.349 157.516 124.307 154.536 124.979Z" fill="#12AFB6"/>
<path d="M103.594 104.802C103.25 104.802 102.932 104.562 102.854 104.208C102.76 103.802 103.016 103.391 103.427 103.302L141.135 94.7083C141.547 94.6093 141.953 94.8697 142.047 95.276C142.141 95.6875 141.885 96.0989 141.474 96.1927L103.766 104.786C103.708 104.797 103.651 104.802 103.594 104.802Z" fill="#023436"/>
<path d="M104.698 113.838C104.354 113.838 104.036 113.599 103.958 113.245C103.865 112.833 104.12 112.427 104.531 112.333L132.479 105.963C132.885 105.87 133.297 106.125 133.391 106.536C133.484 106.948 133.224 107.354 132.813 107.448L104.87 113.818C104.813 113.833 104.755 113.838 104.698 113.838Z" fill="#023436"/>
<path d="M107.786 122.656C107.437 122.656 107.125 122.417 107.042 122.062C106.948 121.656 107.208 121.245 107.615 121.151L145.323 112.557C145.734 112.458 146.141 112.719 146.234 113.13C146.328 113.542 146.073 113.948 145.661 114.042L107.953 122.635C107.896 122.651 107.844 122.656 107.786 122.656Z" fill="#023436"/>
<path d="M116.219 174.094L107.375 182.734C106.281 183.802 105.911 185.401 106.427 186.838L109.031 194.13L101.062 191.724C99.7031 191.307 98.224 191.672 97.2031 192.667L89.0677 200.609C87.526 202.115 85.0573 202.088 83.5521 200.547L66.6719 183.286C65.1667 181.745 65.1927 179.276 66.7344 177.771L93.8854 151.255C95.4323 149.75 97.901 149.781 99.4062 151.318L116.286 168.578C117.792 170.12 117.76 172.588 116.219 174.094Z" fill="white"/>
<path d="M77.5729 181.276C77.375 181.276 77.1823 181.198 77.0312 181.047C76.7344 180.745 76.7448 180.266 77.0417 179.974L95.7864 161.677C96.0885 161.385 96.5677 161.391 96.8646 161.693C97.1562 161.995 97.151 162.474 96.8489 162.771L78.1094 181.062C77.9583 181.203 77.7656 181.276 77.5729 181.276Z" fill="#037171"/>
<path d="M82.6459 185.688C82.448 185.688 82.25 185.609 82.1042 185.458C81.8073 185.156 81.8125 184.677 82.1146 184.38L100.859 166.089C101.156 165.797 101.641 165.797 101.938 166.099C102.229 166.401 102.224 166.88 101.922 167.177L83.1771 185.469C83.0313 185.615 82.8386 185.688 82.6459 185.688Z" fill="#037171"/>
<path d="M87.0572 190.089C86.8593 190.089 86.6614 190.016 86.5156 189.859C86.2187 189.563 86.2239 189.078 86.526 188.786L105.271 170.495C105.573 170.198 106.052 170.203 106.349 170.505C106.641 170.807 106.635 171.286 106.333 171.583L87.5885 189.875C87.4427 190.021 87.25 190.089 87.0572 190.089Z" fill="#037171"/>
<path d="M62.0053 277.01C63.3907 291.76 76.5209 302.63 91.2813 301.245C98.4271 300.578 104.891 297.167 109.469 291.641C114.052 286.115 116.203 279.135 115.537 271.99C114.865 264.844 111.448 258.385 105.922 253.812C100.391 249.229 93.4063 247.078 86.2605 247.75C71.5 249.135 60.6198 262.26 62.0053 277.01ZM88.75 302.891C74.2709 302.891 61.8646 291.839 60.4896 277.151C59.0261 261.562 70.5209 247.698 86.1146 246.234C101.708 244.776 115.589 256.26 117.052 271.849C117.76 279.396 115.484 286.771 110.646 292.609C105.802 298.448 98.9792 302.052 91.4219 302.766C90.5261 302.849 89.6303 302.891 88.75 302.891Z" fill="#023436"/>
<path d="M83.9011 259.005C83.8906 259.005 83.8802 259.005 83.8698 259.01L82.5156 259.255C81.5208 259.437 80.6302 259.937 80.0104 260.656C77 264.172 77.7031 271.484 81.724 278.437C85.7552 285.417 91.75 289.682 96.3021 288.807C97.224 288.63 98.0833 288.12 98.7188 287.37L99.6354 286.297C99.7083 286.208 99.7136 286.005 99.6406 285.917L95.974 281.375C95.8177 281.182 95.4063 280.979 95.1406 280.99L94.5313 281C94.1146 281.01 93.6615 281.109 93.1927 281.302C90.5313 282.396 87.9896 280.76 85.4167 276.307C82.8542 271.87 82.7031 268.859 84.9531 267.099C85.375 266.771 85.7604 266.323 86.0886 265.776L86.224 265.547C86.3542 265.333 86.3958 264.87 86.3021 264.635L84.2031 259.198C84.1667 259.094 84.0208 259.005 83.9011 259.005ZM95.0729 290.443C90.1198 290.443 84.4063 286.13 80.4063 279.203C76 271.573 75.375 263.729 78.8542 259.672C79.6979 258.682 80.9011 258.005 82.2396 257.76L83.5938 257.51C84.4271 257.359 85.3229 257.859 85.625 258.651L87.724 264.089C87.9844 264.755 87.8958 265.719 87.5313 266.333L87.3958 266.562C86.9688 267.266 86.4636 267.854 85.8906 268.297C85.3229 268.745 83.5886 270.099 86.7344 275.547C89.8906 281.01 91.9427 280.172 92.6146 279.896C93.2604 279.63 93.8958 279.49 94.5 279.479L95.1198 279.469C95.849 279.453 96.7083 279.865 97.1615 280.417L100.823 284.958C101.359 285.615 101.344 286.635 100.792 287.281L99.8802 288.354C99.0156 289.37 97.849 290.062 96.5886 290.302C96.0938 290.396 95.5886 290.443 95.0729 290.443Z" fill="#023436"/>
<path d="M301.307 394.323L156.995 352.411C154.755 351.76 153.214 349.708 153.214 347.38V248.542C153.214 245.052 156.563 242.536 159.922 243.51L304.234 285.422C306.474 286.073 307.688 288.156 307.688 290.49L307.464 388.672C307.464 392.161 304.662 395.302 301.307 394.323Z" fill="white"/>
<path d="M301.521 393.594C302.932 394.005 304.016 393.5 304.672 393.005C305.927 392.068 306.703 390.406 306.703 388.672L306.922 290.49C306.922 288.333 305.812 286.677 304.021 286.156L159.708 244.24C158.339 243.844 156.906 244.104 155.766 244.958C154.625 245.818 153.974 247.12 153.974 248.542V347.38C153.974 349.359 155.302 351.13 157.208 351.682L301.521 393.594ZM302.542 395.266C302.062 395.266 301.578 395.198 301.094 395.057L156.781 353.146C154.234 352.406 152.453 350.036 152.453 347.38V248.542C152.453 246.635 153.328 244.891 154.849 243.745C156.375 242.599 158.302 242.25 160.135 242.781L304.448 284.693C306.875 285.396 308.448 287.672 308.448 290.49L308.224 388.672C308.224 390.875 307.214 393.005 305.589 394.224C304.672 394.911 303.62 395.266 302.542 395.266Z" fill="#023436"/>
<path d="M304.234 285.422L302.891 285.031V394.495C305.641 394.438 308.016 392.229 308.016 389.292V290.453C308.016 288.125 306.474 286.073 304.234 285.422Z" fill="#023436"/>
<path d="M238.828 400.349V321.219C238.828 317.271 236.234 313.792 232.448 312.661L211.333 306.359C207.641 305.26 203.932 308.021 203.932 311.87V410.062C203.932 412.344 205.432 414.354 207.62 415.005L237.052 423.786C238.198 424.13 239.432 424.062 240.537 423.594L266.094 412.781C267.859 412.031 267.74 409.49 265.917 408.911L238.828 400.349Z" fill="#037171"/>
<path d="M244.453 287.38L207.099 276.198C206.594 276.047 206.245 275.583 206.245 275.052V271.797C206.245 270.979 207.037 270.396 207.818 270.63L244.115 281.495C244.906 281.729 245.443 282.458 245.443 283.281V286.641C245.443 287.162 244.948 287.531 244.453 287.38Z" fill="#EFFEFF"/>
<path d="M239.599 419.786C239.182 419.786 238.839 419.448 238.839 419.026V397.542C238.839 397.12 239.182 396.781 239.599 396.781C240.021 396.781 240.365 397.12 240.365 397.542V419.026C240.365 419.448 240.021 419.786 239.599 419.786Z" fill="#EFFEFF"/>
<path d="M165.339 394.161C165.339 407.031 144.807 437.969 139.891 445.198C139.385 445.938 138.292 445.938 137.792 445.193C134.266 440.016 122.745 422.693 116.484 408.542C114 402.927 112.344 397.813 112.344 394.161C112.344 379.536 124.208 367.677 138.839 367.677C153.474 367.677 165.339 379.536 165.339 394.161Z" fill="#12AFB6"/>
<path d="M150.953 394.161C150.953 400.849 145.531 406.266 138.838 406.266C132.151 406.266 126.724 400.849 126.724 394.161C126.724 387.474 132.151 382.052 138.838 382.052C145.531 382.052 150.953 387.474 150.953 394.161Z" fill="white"/>
<path d="M141.203 405.625C138.443 405.625 135.662 404.745 133.323 402.927C130.604 400.818 128.87 397.781 128.438 394.37C128.391 393.953 128.682 393.573 129.099 393.516C129.516 393.469 129.901 393.76 129.953 394.177C130.328 397.188 131.859 399.865 134.255 401.724C139.198 405.563 146.344 404.661 150.188 399.719C152.047 397.323 152.859 394.349 152.484 391.344C152.104 388.333 150.573 385.656 148.177 383.797C146.276 382.318 144 381.5 141.604 381.417C141.182 381.406 140.854 381.052 140.865 380.63C140.88 380.214 141.229 379.885 141.651 379.896C144.375 379.99 146.953 380.922 149.115 382.594C151.828 384.703 153.563 387.74 153.995 391.151C154.422 394.563 153.5 397.938 151.391 400.651C148.854 403.917 145.047 405.625 141.203 405.625Z" fill="#023436"/>
<path d="M394.016 107.448C393.88 107.448 393.74 107.411 393.615 107.333C393.255 107.104 393.151 106.635 393.375 106.281L407.927 83.1406C408.151 82.7864 408.62 82.677 408.979 82.901C409.333 83.125 409.443 83.5937 409.219 83.9531L394.662 107.089C394.516 107.318 394.271 107.448 394.016 107.448Z" fill="#037171"/>
<path d="M392.693 125.958C392.479 125.958 392.261 125.865 392.109 125.682C391.839 125.354 391.891 124.875 392.214 124.609L430.104 93.3906C430.427 93.1249 430.912 93.1718 431.177 93.4999C431.448 93.8176 431.396 94.2968 431.073 94.5676L393.177 125.786C393.037 125.901 392.87 125.958 392.693 125.958Z" fill="#037171"/>
<path d="M397.984 133.234C397.672 133.234 397.375 133.036 397.266 132.719C397.13 132.323 397.339 131.891 397.734 131.755L416.922 125.141C417.318 125.005 417.755 125.219 417.891 125.615C418.026 126.01 417.818 126.443 417.417 126.583L398.234 133.193C398.151 133.219 398.068 133.234 397.984 133.234Z" fill="#037171"/>
<path d="M180.005 130.234C178.229 130.234 176.786 131.677 176.786 133.448C176.786 135.224 178.229 136.667 180.005 136.667C181.781 136.667 183.224 135.224 183.224 133.448C183.224 131.677 181.781 130.234 180.005 130.234ZM180.005 138.193C177.391 138.193 175.266 136.068 175.266 133.448C175.266 130.839 177.391 128.714 180.005 128.714C182.62 128.714 184.75 130.839 184.75 133.448C184.75 136.068 182.62 138.193 180.005 138.193Z" fill="#023436"/>
<path d="M199.354 147.089C198.26 147.089 197.375 147.979 197.375 149.073C197.375 150.161 198.26 151.052 199.354 151.052C200.448 151.052 201.338 150.161 201.338 149.073C201.338 147.979 200.448 147.089 199.354 147.089ZM199.354 152.573C197.422 152.573 195.849 151.005 195.849 149.073C195.849 147.141 197.422 145.568 199.354 145.568C201.286 145.568 202.859 147.141 202.859 149.073C202.859 151.005 201.286 152.573 199.354 152.573Z" fill="#023436"/>
<path d="M94.0522 348.953C87.4428 348.953 81.7762 343.906 81.146 337.198C80.4793 330.078 85.7293 323.745 92.8491 323.078C99.9741 322.411 106.313 327.656 106.979 334.776C107.167 336.776 106.901 338.734 106.188 340.599C106.042 340.99 105.599 341.188 105.208 341.036C104.813 340.885 104.615 340.448 104.766 340.057C105.396 338.411 105.63 336.682 105.464 334.917C104.875 328.635 99.271 324.005 92.9949 324.594C86.7084 325.182 82.073 330.771 82.6616 337.057C83.2501 343.339 88.8491 347.969 95.1303 347.38C96.672 347.234 98.1355 346.797 99.4845 346.068C99.8543 345.87 100.318 346.01 100.516 346.38C100.714 346.75 100.578 347.208 100.208 347.411C98.6772 348.229 97.0157 348.729 95.271 348.896C94.8647 348.932 94.4585 348.953 94.0522 348.953Z" fill="#023436"/>
<path d="M123.771 307.677C123.771 304.391 126.437 301.729 129.729 301.729C133.016 301.729 135.682 304.391 135.682 307.677C135.682 310.964 133.016 313.63 129.729 313.63C126.437 313.63 123.771 310.964 123.771 307.677Z" fill="#037171"/>
<path d="M329.188 451.812C329.188 448.526 331.854 445.859 335.141 445.859C338.427 445.859 341.094 448.526 341.094 451.812C341.094 455.099 338.427 457.76 335.141 457.76C331.854 457.76 329.188 455.099 329.188 451.812Z" fill="#037171"/>
<path d="M172.745 103.661C172.552 103.661 172.354 103.589 172.208 103.438L169.849 101.083C169.552 100.786 169.552 100.307 169.849 100.005C170.146 99.7084 170.63 99.7084 170.927 100.005L173.286 102.365C173.583 102.661 173.583 103.141 173.286 103.438C173.135 103.589 172.943 103.661 172.745 103.661Z" fill="#023436"/>
<path d="M180.995 111.911C180.802 111.911 180.609 111.839 180.458 111.688L178.099 109.333C177.802 109.036 177.802 108.557 178.099 108.255C178.396 107.958 178.88 107.958 179.177 108.255L181.536 110.615C181.833 110.911 181.833 111.391 181.536 111.688C181.385 111.839 181.193 111.911 180.995 111.911Z" fill="#023436"/>
<path d="M170.385 111.911C170.193 111.911 170 111.839 169.849 111.688C169.552 111.391 169.552 110.911 169.849 110.615L172.208 108.255C172.505 107.958 172.984 107.958 173.281 108.255C173.578 108.557 173.578 109.036 173.281 109.333L170.927 111.688C170.776 111.839 170.583 111.911 170.385 111.911Z" fill="#023436"/>
<path d="M178.641 103.661C178.443 103.661 178.25 103.589 178.104 103.438C177.802 103.141 177.802 102.661 178.104 102.365L180.458 100.005C180.755 99.7084 181.24 99.7084 181.537 100.005C181.833 100.307 181.833 100.786 181.537 101.083L179.177 103.438C179.031 103.589 178.833 103.661 178.641 103.661Z" fill="#023436"/>
<path d="M211.198 184.896C211.177 184.896 211.161 184.896 211.146 184.896C209.151 184.76 207.115 184.682 205.104 184.656C204.682 184.656 204.344 184.307 204.349 183.891C204.354 183.469 204.698 183.12 205.12 183.135C207.161 183.161 209.224 183.24 211.245 183.38C211.667 183.406 211.984 183.771 211.958 184.187C211.927 184.589 211.594 184.896 211.198 184.896ZM192.948 185.182C192.562 185.182 192.229 184.891 192.187 184.495C192.151 184.078 192.458 183.703 192.875 183.667C194.911 183.469 196.969 183.323 198.99 183.234C199.411 183.214 199.766 183.542 199.786 183.964C199.802 184.38 199.479 184.734 199.057 184.755C197.062 184.844 195.031 184.984 193.021 185.177C192.995 185.182 192.974 185.182 192.948 185.182ZM223.271 186.417C223.224 186.417 223.182 186.406 223.135 186.401C221.161 186.036 219.156 185.724 217.161 185.479C216.745 185.427 216.448 185.042 216.5 184.625C216.552 184.208 216.932 183.917 217.349 183.964C219.37 184.219 221.411 184.536 223.411 184.906C223.823 184.979 224.099 185.375 224.021 185.792C223.953 186.156 223.63 186.417 223.271 186.417ZM180.901 186.974C180.547 186.974 180.229 186.724 180.156 186.359C180.073 185.948 180.344 185.547 180.755 185.464C182.76 185.062 184.792 184.714 186.792 184.411C187.208 184.349 187.594 184.641 187.656 185.052C187.719 185.469 187.432 185.859 187.016 185.917C185.042 186.214 183.036 186.562 181.052 186.958C181 186.969 180.953 186.974 180.901 186.974ZM235.094 189.307C235.021 189.307 234.948 189.297 234.875 189.276C232.953 188.687 230.99 188.146 229.042 187.667C228.635 187.568 228.385 187.156 228.484 186.75C228.583 186.339 229 186.089 229.406 186.193C231.38 186.677 233.37 187.224 235.318 187.818C235.719 187.943 235.948 188.37 235.823 188.771C235.724 189.099 235.422 189.307 235.094 189.307ZM243.844 192.406C243.75 192.406 243.651 192.391 243.562 192.349C242.583 191.958 241.583 191.573 240.604 191.214C240.208 191.062 240.005 190.625 240.151 190.229C240.297 189.839 240.734 189.635 241.13 189.781C242.125 190.151 243.135 190.536 244.13 190.937C244.521 191.099 244.708 191.536 244.552 191.927C244.432 192.229 244.146 192.406 243.844 192.406Z" fill="#037171"/>
<path d="M138.026 203.287C137.76 203.287 137.505 203.151 137.365 202.901C137.156 202.542 137.281 202.073 137.646 201.865L138.219 201.537C138.583 201.328 139.047 201.453 139.255 201.818C139.464 202.182 139.339 202.651 138.974 202.854L138.406 203.182C138.287 203.25 138.156 203.287 138.026 203.287ZM127.74 209.807C127.5 209.807 127.26 209.693 127.115 209.479C126.875 209.135 126.958 208.662 127.307 208.422C128.979 207.26 130.693 206.12 132.406 205.037C132.76 204.807 133.234 204.917 133.458 205.271C133.682 205.625 133.578 206.099 133.224 206.323C131.531 207.396 129.833 208.521 128.177 209.672C128.042 209.76 127.891 209.807 127.74 209.807ZM118.031 217.156C117.807 217.156 117.594 217.063 117.443 216.875C117.172 216.552 117.219 216.073 117.547 215.807C119.115 214.516 120.729 213.24 122.349 212.016C122.682 211.76 123.162 211.823 123.417 212.162C123.672 212.495 123.604 212.974 123.271 213.229C121.667 214.438 120.068 215.703 118.516 216.979C118.37 217.099 118.198 217.156 118.031 217.156ZM108.948 225.266C108.75 225.266 108.552 225.188 108.401 225.037C108.109 224.729 108.115 224.25 108.417 223.958C109.875 222.547 111.385 221.141 112.901 219.792C113.214 219.51 113.693 219.537 113.974 219.849C114.255 220.162 114.229 220.641 113.912 220.927C112.417 222.266 110.922 223.651 109.479 225.052C109.328 225.193 109.141 225.266 108.948 225.266ZM100.542 234.078C100.365 234.078 100.188 234.016 100.042 233.891C99.724 233.609 99.6928 233.13 99.974 232.818C101.318 231.287 102.708 229.771 104.104 228.302C104.396 228 104.88 227.984 105.182 228.276C105.49 228.568 105.5 229.047 105.208 229.349C103.823 230.802 102.448 232.307 101.115 233.818C100.964 233.995 100.755 234.078 100.542 234.078ZM92.8646 243.531C92.7084 243.531 92.5469 243.479 92.4115 243.375C92.073 243.125 92.0053 242.651 92.2553 242.313C93.474 240.688 94.7396 239.063 96.0209 237.49C96.2865 237.162 96.7657 237.115 97.0938 237.375C97.4167 237.641 97.4688 238.12 97.2032 238.448C95.9376 240.005 94.6823 241.615 93.474 243.224C93.3282 243.427 93.099 243.531 92.8646 243.531Z" fill="#037171"/>
<path d="M341.734 289.729C341.724 289.729 341.714 289.729 341.703 289.729C341.281 289.708 340.958 289.354 340.974 288.932C341.146 285.073 341.323 282.849 341.323 282.823C341.359 282.406 341.729 282.094 342.146 282.125C342.563 282.161 342.88 282.526 342.844 282.948C342.839 282.969 342.667 285.172 342.495 289C342.479 289.411 342.141 289.729 341.734 289.729ZM341.438 301.906C341.432 301.906 341.427 301.906 341.427 301.906C341.005 301.901 340.667 301.557 340.672 301.135C340.682 299.078 340.719 297.026 340.766 295.036C340.776 294.62 341.115 294.292 341.531 294.292C341.537 294.292 341.537 294.292 341.547 294.292C341.964 294.302 342.302 294.651 342.292 295.073C342.24 297.052 342.208 299.099 342.193 301.146C342.193 301.568 341.854 301.906 341.438 301.906ZM63.8074 302.75C63.7449 302.75 63.6772 302.74 63.6095 302.724C63.2032 302.615 62.9636 302.198 63.073 301.792C63.1772 301.396 63.2865 300.995 63.3959 300.599C63.5105 300.193 63.9272 299.953 64.3334 300.068C64.7397 300.177 64.974 300.594 64.8647 301C64.7553 301.396 64.6511 301.792 64.547 302.182C64.4532 302.526 64.1459 302.75 63.8074 302.75ZM341.552 314.099C341.141 314.099 340.797 313.771 340.787 313.354C340.734 311.328 340.698 309.271 340.682 307.245C340.677 306.823 341.016 306.479 341.438 306.474C341.438 306.474 341.438 306.474 341.443 306.474C341.859 306.474 342.198 306.812 342.203 307.229C342.219 309.245 342.26 311.297 342.307 313.312C342.323 313.734 341.99 314.083 341.568 314.094C341.563 314.099 341.557 314.099 341.552 314.099ZM61.1563 314.625C61.1095 314.625 61.0678 314.62 61.0209 314.615C60.6095 314.536 60.3334 314.141 60.4063 313.729C60.7657 311.745 61.172 309.724 61.6147 307.734C61.7084 307.323 62.1147 307.062 62.5261 307.156C62.9376 307.245 63.1928 307.651 63.1042 308.062C62.6615 310.036 62.2605 312.031 61.9063 314C61.8386 314.365 61.5157 314.625 61.1563 314.625ZM342.068 326.276C341.667 326.276 341.333 325.963 341.307 325.562C341.188 323.557 341.083 321.5 340.995 319.458C340.979 319.042 341.302 318.687 341.724 318.667C342.151 318.646 342.5 318.974 342.516 319.396C342.604 321.427 342.708 323.474 342.828 325.474C342.854 325.891 342.531 326.25 342.109 326.276C342.099 326.276 342.083 326.276 342.068 326.276ZM59.5261 326.682C59.5053 326.682 59.4792 326.682 59.4584 326.677C59.0365 326.641 58.7292 326.271 58.7657 325.854C58.948 323.838 59.1824 321.792 59.4532 319.771C59.5105 319.354 59.8907 319.062 60.3074 319.12C60.724 319.177 61.0209 319.562 60.9636 319.974C60.6928 321.974 60.4636 324 60.2865 325.99C60.2501 326.385 59.9167 326.682 59.5261 326.682ZM343 338.432C342.615 338.432 342.281 338.141 342.245 337.745C342.052 335.729 341.875 333.682 341.724 331.656C341.693 331.24 342.005 330.875 342.422 330.838C342.833 330.812 343.208 331.125 343.24 331.542C343.396 333.557 343.568 335.594 343.76 337.599C343.802 338.016 343.495 338.391 343.073 338.432C343.052 338.432 343.026 338.432 343 338.432ZM58.9897 338.838C58.5678 338.838 58.2292 338.5 58.2292 338.083V337.766C58.2292 335.844 58.2709 333.896 58.3542 331.958C58.3751 331.542 58.7292 331.213 59.1511 331.234C59.573 331.255 59.8959 331.604 59.8751 332.026C59.7917 333.937 59.7501 335.865 59.7501 337.766V338.078C59.7501 338.495 59.4115 338.838 58.9897 338.838ZM344.391 350.542C344.016 350.542 343.688 350.266 343.641 349.885C343.37 347.901 343.115 345.859 342.88 343.823C342.833 343.406 343.135 343.026 343.552 342.979C343.969 342.932 344.349 343.229 344.396 343.646C344.625 345.677 344.88 347.703 345.146 349.682C345.203 350.099 344.912 350.484 344.495 350.536C344.458 350.542 344.422 350.542 344.391 350.542ZM59.599 350.99C59.2084 350.99 58.8803 350.698 58.8386 350.307C58.6407 348.286 58.4897 346.234 58.3907 344.203C58.3699 343.781 58.6928 343.422 59.1095 343.401C59.5313 343.37 59.8907 343.703 59.9115 344.125C60.0105 346.13 60.1615 348.161 60.3542 350.156C60.3959 350.573 60.0938 350.948 59.672 350.99C59.6459 350.99 59.6251 350.99 59.599 350.99ZM346.281 362.583C345.917 362.583 345.599 362.328 345.531 361.958C345.172 359.99 344.839 357.964 344.516 355.932C344.453 355.516 344.74 355.125 345.151 355.062C345.573 355 345.958 355.281 346.021 355.698C346.339 357.719 346.677 359.734 347.031 361.693C347.104 362.104 346.828 362.5 346.412 362.573C346.37 362.578 346.323 362.583 346.281 362.583ZM61.3803 363.026C61.0261 363.026 60.7084 362.771 60.6355 362.411C60.2397 360.422 59.8855 358.396 59.5886 356.38C59.5261 355.964 59.8126 355.578 60.2292 355.516C60.6459 355.453 61.0365 355.745 61.0938 356.156C61.3907 358.146 61.7397 360.151 62.1251 362.115C62.2084 362.526 61.9428 362.932 61.5313 363.01C61.4792 363.021 61.4272 363.026 61.3803 363.026ZM348.729 374.51C348.385 374.51 348.073 374.276 347.99 373.927C347.537 371.979 347.099 369.969 346.688 367.964C346.599 367.547 346.865 367.146 347.281 367.062C347.693 366.979 348.094 367.245 348.177 367.656C348.589 369.651 349.021 371.646 349.474 373.578C349.568 373.99 349.313 374.396 348.906 374.495C348.844 374.505 348.792 374.51 348.729 374.51ZM64.3334 374.828C64.0105 374.828 63.7084 374.615 63.6095 374.286C63.0157 372.344 62.4688 370.354 61.974 368.385C61.8699 367.979 62.1199 367.562 62.5261 367.464C62.9376 367.359 63.349 367.609 63.4532 368.016C63.9376 369.958 64.4792 371.922 65.0626 373.844C65.1876 374.245 64.9584 374.672 64.5574 374.797C64.4845 374.812 64.4063 374.828 64.3334 374.828ZM409.453 378.406C409.057 378.406 408.729 378.104 408.693 377.714C408.651 377.297 408.964 376.922 409.38 376.885C411.479 376.693 413.552 376.589 415.526 376.583C415.531 376.583 415.531 376.583 415.531 376.583C415.953 376.583 416.292 376.922 416.292 377.339C416.297 377.76 415.953 378.104 415.537 378.104C413.604 378.109 411.578 378.214 409.521 378.401C409.495 378.401 409.474 378.406 409.453 378.406ZM427.599 379.422C427.547 379.422 427.484 379.417 427.422 379.401C425.557 378.948 423.573 378.609 421.526 378.396C421.109 378.354 420.807 377.979 420.849 377.562C420.896 377.141 421.276 376.839 421.688 376.88C423.802 377.104 425.849 377.453 427.781 377.922C428.193 378.021 428.443 378.432 428.344 378.839C428.26 379.187 427.948 379.422 427.599 379.422ZM397.599 380.969C397.287 380.969 396.995 380.781 396.88 380.469C396.74 380.073 396.938 379.641 397.339 379.495C399.438 378.724 401.432 378.13 403.26 377.74C403.672 377.646 404.078 377.911 404.167 378.318C404.255 378.729 403.995 379.135 403.583 379.224C401.823 379.604 399.896 380.177 397.859 380.922C397.771 380.953 397.688 380.969 397.599 380.969ZM438.75 384.151C438.604 384.151 438.464 384.115 438.333 384.031C436.708 382.964 434.943 382.026 433.089 381.25C432.698 381.089 432.521 380.641 432.682 380.25C432.844 379.865 433.292 379.682 433.677 379.844C435.62 380.661 437.464 381.641 439.167 382.755C439.521 382.99 439.62 383.458 439.385 383.807C439.24 384.031 439 384.151 438.75 384.151ZM386.521 386.031C386.25 386.031 385.984 385.885 385.849 385.625C385.651 385.255 385.797 384.797 386.167 384.599C388.104 383.578 389.948 382.656 391.662 381.865C392.042 381.687 392.495 381.854 392.667 382.234C392.849 382.615 392.682 383.073 392.302 383.25C390.615 384.026 388.787 384.937 386.875 385.948C386.766 386.005 386.641 386.031 386.521 386.031ZM68.4376 386.281C68.1407 386.281 67.8542 386.104 67.7345 385.812C66.9532 383.927 66.2136 382.005 65.5313 380.099C65.3855 379.703 65.5938 379.266 65.9897 379.125C66.3855 378.984 66.823 379.187 66.9636 379.589C67.6355 381.474 68.3699 383.37 69.1407 385.229C69.3022 385.62 69.1199 386.062 68.7292 386.224C68.6355 386.26 68.5365 386.281 68.4376 386.281ZM351.833 386.297C351.505 386.297 351.198 386.083 351.104 385.755C350.531 383.828 349.979 381.844 349.458 379.859C349.349 379.453 349.594 379.036 350 378.927C350.406 378.823 350.823 379.062 350.927 379.474C351.448 381.443 352 383.411 352.563 385.323C352.682 385.724 352.453 386.146 352.047 386.266C351.979 386.286 351.901 386.297 351.833 386.297ZM375.938 392.073C375.677 392.073 375.427 391.937 375.281 391.703C375.063 391.344 375.182 390.875 375.542 390.661C377.427 389.521 379.151 388.505 380.813 387.557C381.177 387.349 381.635 387.474 381.849 387.839C382.057 388.203 381.932 388.667 381.568 388.88C379.917 389.823 378.198 390.833 376.328 391.964C376.203 392.036 376.068 392.073 375.938 392.073ZM447.401 392.599C447.162 392.599 446.927 392.484 446.781 392.271C445.63 390.63 444.344 389.109 442.953 387.745C442.651 387.448 442.646 386.969 442.938 386.667C443.234 386.365 443.714 386.365 444.016 386.656C445.474 388.083 446.828 389.682 448.026 391.401C448.266 391.745 448.182 392.219 447.839 392.458C447.708 392.552 447.552 392.599 447.401 392.599ZM73.6407 397.281C73.3647 397.281 73.1042 397.135 72.9636 396.88C72.0053 395.078 71.0834 393.24 70.2136 391.406C70.0365 391.026 70.198 390.573 70.5782 390.396C70.9584 390.214 71.4115 390.38 71.5938 390.76C72.448 392.568 73.3647 394.385 74.3074 396.161C74.5053 396.536 74.3647 396.995 73.9949 397.193C73.8803 397.255 73.7605 397.281 73.6407 397.281ZM355.688 397.865C355.38 397.865 355.089 397.677 354.974 397.37C354.276 395.505 353.589 393.562 352.938 391.599C352.802 391.203 353.021 390.771 353.422 390.635C353.823 390.505 354.25 390.724 354.38 391.12C355.026 393.062 355.708 394.984 356.401 396.839C356.552 397.234 356.349 397.672 355.953 397.818C355.87 397.849 355.776 397.865 355.688 397.865ZM365.583 398.51C365.328 398.51 365.089 398.391 364.943 398.161C364.714 397.807 364.823 397.333 365.172 397.109C366.927 395.995 368.651 394.906 370.333 393.854C370.693 393.63 371.162 393.74 371.385 394.099C371.609 394.453 371.5 394.927 371.141 395.146C369.458 396.198 367.745 397.281 365.99 398.391C365.865 398.474 365.724 398.51 365.583 398.51ZM452.656 403.531C452.333 403.531 452.037 403.323 451.932 402.995C451.318 401.042 450.594 399.172 449.76 397.427C449.583 397.047 449.745 396.594 450.125 396.411C450.505 396.234 450.958 396.396 451.141 396.771C452 398.583 452.755 400.521 453.385 402.542C453.51 402.943 453.287 403.37 452.885 403.495C452.807 403.521 452.734 403.531 452.656 403.531ZM79.8542 407.714C79.6095 407.714 79.3647 407.599 79.2188 407.375C78.099 405.682 77.0053 403.943 75.9688 402.198C75.7501 401.839 75.8699 401.37 76.2345 401.156C76.5938 400.943 77.0626 401.057 77.2761 401.422C78.3022 403.141 79.3803 404.859 80.4897 406.536C80.724 406.885 80.6251 407.359 80.2761 407.589C80.1459 407.677 80.0001 407.714 79.8542 407.714ZM360.422 409.089C360.141 409.089 359.865 408.927 359.734 408.651C358.99 407.078 358.255 405.458 357.552 403.807C356.948 404.198 356.349 404.589 355.74 404.979C355.385 405.208 354.917 405.109 354.682 404.755C354.458 404.401 354.563 403.932 354.912 403.703C356.651 402.583 358.359 401.479 360.037 400.396C360.391 400.172 360.859 400.271 361.089 400.625C361.318 400.979 361.219 401.453 360.859 401.677C360.198 402.109 359.526 402.536 358.849 402.974C359.578 404.682 360.339 406.37 361.109 408C361.287 408.38 361.125 408.833 360.75 409.016C360.641 409.062 360.531 409.089 360.422 409.089ZM345.073 411.698C344.823 411.698 344.573 411.573 344.432 411.344C344.203 410.99 344.313 410.521 344.662 410.297C346.396 409.187 348.109 408.089 349.792 407.005C350.146 406.776 350.615 406.88 350.844 407.234C351.073 407.583 350.969 408.057 350.615 408.286C348.932 409.37 347.219 410.469 345.484 411.578C345.359 411.656 345.214 411.698 345.073 411.698ZM454.943 415.464C454.552 415.464 454.219 415.167 454.182 414.771C454.005 412.724 453.729 410.719 453.37 408.812C453.297 408.401 453.563 408 453.974 407.927C454.391 407.849 454.792 408.12 454.87 408.531C455.234 410.49 455.516 412.542 455.703 414.635C455.74 415.057 455.427 415.422 455.01 415.458C454.99 415.464 454.964 415.464 454.943 415.464ZM87.0261 417.531C86.8022 417.531 86.5834 417.432 86.4324 417.245C85.1563 415.661 83.9063 414.026 82.7084 412.396C82.4636 412.052 82.5365 411.578 82.8751 411.328C83.2136 411.083 83.6928 411.156 83.9376 411.495C85.1199 413.109 86.3595 414.724 87.6199 416.292C87.8803 416.62 87.8282 417.099 87.5001 417.365C87.3595 417.474 87.1928 417.531 87.0261 417.531ZM334.766 418.203C334.51 418.203 334.266 418.078 334.12 417.844C333.896 417.484 334.005 417.016 334.365 416.797C336.104 415.714 337.828 414.635 339.521 413.562C339.875 413.339 340.349 413.443 340.573 413.797C340.797 414.151 340.693 414.625 340.339 414.849C338.635 415.922 336.912 417 335.167 418.089C335.042 418.167 334.906 418.203 334.766 418.203ZM366.182 419.807C365.927 419.807 365.672 419.682 365.531 419.443C364.49 417.734 363.469 415.943 362.495 414.125C362.292 413.75 362.432 413.292 362.802 413.094C363.172 412.896 363.635 413.031 363.833 413.401C364.802 415.203 365.807 416.969 366.833 418.656C367.052 419.016 366.938 419.479 366.578 419.698C366.453 419.776 366.318 419.807 366.182 419.807ZM324.359 424.547C324.099 424.547 323.849 424.411 323.703 424.177C323.49 423.818 323.609 423.349 323.969 423.13C325.729 422.083 327.464 421.036 329.182 419.99C329.542 419.771 330.01 419.88 330.229 420.24C330.443 420.599 330.333 421.068 329.974 421.286C328.255 422.333 326.51 423.391 324.75 424.437C324.625 424.51 324.495 424.547 324.359 424.547ZM95.0678 426.651C94.8699 426.651 94.6667 426.573 94.5209 426.422C93.1095 424.958 91.7136 423.448 90.3699 421.922C90.0938 421.609 90.1251 421.125 90.4376 420.849C90.7553 420.573 91.2345 420.604 91.5157 420.917C92.8386 422.422 94.2188 423.917 95.6147 425.365C95.9063 425.667 95.9011 426.151 95.5938 426.437C95.448 426.583 95.2605 426.651 95.0678 426.651ZM454.74 427.604C454.698 427.604 454.656 427.599 454.62 427.594C454.203 427.531 453.922 427.141 453.984 426.724C454.287 424.839 454.443 422.833 454.453 420.781C454.458 420.359 454.797 420.026 455.219 420.026C455.641 420.026 455.979 420.37 455.979 420.786C455.969 422.922 455.802 425 455.49 426.964C455.432 427.339 455.109 427.604 454.74 427.604ZM373.125 429.802C372.901 429.802 372.682 429.703 372.531 429.516C371.281 427.948 370.052 426.292 368.87 424.589C368.63 424.24 368.719 423.771 369.063 423.526C369.412 423.292 369.88 423.375 370.12 423.719C371.287 425.396 372.495 427.026 373.724 428.562C373.984 428.896 373.932 429.37 373.599 429.635C373.464 429.745 373.297 429.802 373.125 429.802ZM313.823 430.672C313.557 430.672 313.297 430.531 313.162 430.286C312.953 429.922 313.083 429.453 313.448 429.25C315.167 428.276 316.948 427.26 318.724 426.224C319.089 426.01 319.557 426.13 319.771 426.495C319.979 426.859 319.854 427.323 319.495 427.536C317.703 428.578 315.922 429.599 314.198 430.573C314.078 430.641 313.953 430.672 313.823 430.672ZM103.896 435.026C103.719 435.026 103.542 434.964 103.396 434.839C101.859 433.505 100.339 432.12 98.8647 430.729C98.5574 430.437 98.547 429.958 98.8386 429.651C99.1251 429.344 99.6095 429.333 99.9115 429.625C101.37 431.005 102.875 432.37 104.396 433.687C104.714 433.964 104.745 434.448 104.474 434.766C104.323 434.937 104.109 435.026 103.896 435.026ZM303.135 436.521C302.859 436.521 302.594 436.375 302.458 436.115C302.266 435.745 302.406 435.286 302.776 435.089C304.547 434.151 306.349 433.182 308.13 432.208C308.505 432.005 308.964 432.141 309.167 432.505C309.37 432.875 309.234 433.339 308.865 433.542C307.073 434.521 305.26 435.495 303.49 436.432C303.375 436.495 303.255 436.521 303.135 436.521ZM381.38 438.729C381.198 438.729 381.01 438.661 380.865 438.526C379.391 437.161 377.927 435.693 376.526 434.177C376.24 433.865 376.26 433.385 376.568 433.099C376.875 432.812 377.359 432.833 377.646 433.141C379.021 434.635 380.453 436.073 381.896 437.411C382.208 437.698 382.229 438.177 381.938 438.484C381.792 438.651 381.589 438.729 381.38 438.729ZM450.615 438.969C450.479 438.969 450.339 438.937 450.219 438.859C449.859 438.635 449.745 438.167 449.964 437.812C450.99 436.146 451.849 434.354 452.526 432.474C452.667 432.078 453.104 431.87 453.495 432.016C453.896 432.156 454.099 432.594 453.953 432.99C453.25 434.964 452.339 436.854 451.26 438.609C451.12 438.844 450.87 438.969 450.615 438.969ZM292.271 442.047C291.99 442.047 291.724 441.891 291.589 441.62C291.406 441.24 291.557 440.786 291.938 440.599C293.729 439.729 295.557 438.818 297.38 437.891C297.755 437.698 298.214 437.849 298.406 438.224C298.594 438.594 298.443 439.052 298.073 439.245C296.24 440.177 294.401 441.094 292.604 441.969C292.5 442.021 292.385 442.047 292.271 442.047ZM113.427 442.589C113.271 442.589 113.115 442.542 112.979 442.443C111.333 441.255 109.693 440.005 108.104 438.745C107.776 438.484 107.719 438.005 107.984 437.677C108.245 437.349 108.724 437.292 109.052 437.552C110.625 438.802 112.25 440.031 113.875 441.214C114.214 441.458 114.292 441.932 114.047 442.276C113.896 442.479 113.662 442.589 113.427 442.589ZM390.964 446.193C390.818 446.193 390.677 446.151 390.547 446.068C388.844 444.969 387.162 443.771 385.542 442.505C385.208 442.25 385.151 441.771 385.412 441.437C385.667 441.104 386.146 441.047 386.479 441.307C388.063 442.542 389.714 443.714 391.375 444.792C391.729 445.021 391.828 445.49 391.599 445.844C391.458 446.068 391.208 446.193 390.964 446.193ZM281.229 447.193C280.938 447.193 280.656 447.026 280.531 446.745C280.365 446.359 280.537 445.911 280.922 445.74C282.745 444.927 284.609 444.083 286.448 443.219C286.833 443.042 287.287 443.208 287.464 443.589C287.641 443.969 287.474 444.422 287.094 444.599C285.245 445.464 283.37 446.312 281.537 447.13C281.438 447.172 281.328 447.193 281.229 447.193ZM442.323 447.781C442.089 447.781 441.859 447.672 441.703 447.464C441.458 447.125 441.537 446.646 441.88 446.401C443.521 445.214 445.026 443.901 446.354 442.5C446.646 442.198 447.125 442.182 447.432 442.474C447.74 442.76 447.75 443.245 447.464 443.547C446.068 445.016 444.49 446.396 442.771 447.635C442.635 447.734 442.479 447.781 442.323 447.781ZM123.578 449.297C123.448 449.297 123.313 449.26 123.188 449.187C121.448 448.146 119.708 447.047 118.01 445.927C117.662 445.698 117.563 445.224 117.797 444.87C118.026 444.521 118.5 444.427 118.849 444.656C120.531 445.766 122.25 446.854 123.974 447.885C124.333 448.099 124.448 448.568 124.234 448.927C124.094 449.167 123.839 449.297 123.578 449.297ZM401.719 451.828C401.62 451.828 401.526 451.807 401.427 451.771C399.537 450.99 397.662 450.115 395.854 449.167C395.479 448.974 395.339 448.51 395.531 448.141C395.729 447.766 396.188 447.625 396.557 447.818C398.328 448.745 400.162 449.599 402.01 450.365C402.401 450.521 402.583 450.969 402.422 451.354C402.302 451.651 402.016 451.828 401.719 451.828ZM269.995 451.917C269.693 451.917 269.406 451.734 269.292 451.437C269.135 451.042 269.328 450.604 269.719 450.448C271.578 449.708 273.469 448.937 275.339 448.146C275.729 447.99 276.177 448.167 276.339 448.557C276.505 448.943 276.318 449.391 275.932 449.552C274.052 450.344 272.146 451.12 270.276 451.865C270.188 451.901 270.094 451.917 269.995 451.917ZM431.495 453.26C431.177 453.26 430.875 453.057 430.771 452.74C430.641 452.339 430.859 451.906 431.26 451.776C432.964 451.219 434.651 450.531 436.266 449.745C436.432 449.661 436.604 449.578 436.776 449.495C437.151 449.302 437.609 449.453 437.797 449.828C437.99 450.203 437.833 450.661 437.464 450.849C437.287 450.943 437.109 451.026 436.932 451.115C435.255 451.932 433.505 452.641 431.734 453.224C431.656 453.25 431.573 453.26 431.495 453.26ZM413.453 454.974C413.417 454.974 413.391 454.969 413.354 454.964C411.318 454.714 409.271 454.318 407.276 453.781C406.87 453.672 406.63 453.25 406.74 452.849C406.849 452.443 407.266 452.198 407.672 452.307C409.599 452.828 411.573 453.214 413.542 453.458C413.958 453.505 414.255 453.885 414.203 454.307C414.156 454.693 413.828 454.974 413.453 454.974ZM134.276 455.099C134.167 455.099 134.052 455.078 133.943 455.021C132.12 454.135 130.292 453.193 128.505 452.224C128.13 452.021 127.995 451.562 128.198 451.193C128.396 450.823 128.859 450.687 129.229 450.885C131 451.849 132.807 452.776 134.609 453.656C134.99 453.839 135.146 454.297 134.964 454.677C134.828 454.943 134.557 455.099 134.276 455.099ZM419.526 455.286C419.115 455.286 418.776 454.953 418.766 454.542C418.755 454.12 419.094 453.771 419.51 453.766C421.51 453.724 423.51 453.536 425.464 453.208C425.87 453.135 426.266 453.417 426.339 453.828C426.406 454.245 426.13 454.635 425.714 454.708C423.693 455.047 421.609 455.245 419.547 455.286C419.537 455.286 419.531 455.286 419.526 455.286ZM258.578 456.161C258.26 456.161 257.969 455.964 257.854 455.646C257.719 455.25 257.932 454.812 258.328 454.677C260.219 454.021 262.141 453.333 264.047 452.625C264.438 452.479 264.88 452.677 265.026 453.073C265.167 453.469 264.969 453.906 264.573 454.052C262.662 454.766 260.724 455.458 258.828 456.115C258.745 456.146 258.662 456.161 258.578 456.161ZM246.974 459.87C246.646 459.87 246.344 459.656 246.245 459.323C246.125 458.922 246.359 458.5 246.76 458.38C248.682 457.818 250.635 457.219 252.568 456.599C252.969 456.469 253.396 456.693 253.526 457.089C253.651 457.49 253.432 457.917 253.031 458.047C251.094 458.667 249.125 459.271 247.188 459.839C247.12 459.859 247.047 459.87 246.974 459.87ZM145.438 459.953C145.344 459.953 145.255 459.932 145.162 459.901C143.271 459.177 141.365 458.396 139.5 457.589C139.115 457.417 138.938 456.969 139.104 456.589C139.271 456.203 139.719 456.021 140.104 456.193C141.953 456.99 143.839 457.76 145.708 458.479C146.099 458.63 146.297 459.068 146.146 459.464C146.031 459.766 145.745 459.953 145.438 459.953ZM235.203 463.005C234.859 463.005 234.547 462.771 234.469 462.422C234.365 462.016 234.62 461.604 235.026 461.505C236.979 461.042 238.958 460.542 240.917 460.016C241.318 459.911 241.74 460.151 241.844 460.557C241.958 460.964 241.714 461.38 241.307 461.49C239.339 462.016 237.349 462.521 235.385 462.984C235.323 463 235.266 463.005 235.203 463.005ZM156.979 463.797C156.912 463.797 156.844 463.786 156.771 463.766C154.823 463.214 152.854 462.604 150.922 461.964C150.526 461.828 150.307 461.401 150.443 461C150.573 460.604 151.005 460.385 151.406 460.521C153.313 461.156 155.26 461.755 157.188 462.302C157.594 462.417 157.828 462.839 157.714 463.24C157.615 463.578 157.313 463.797 156.979 463.797ZM223.292 465.521C222.927 465.521 222.609 465.26 222.542 464.896C222.464 464.479 222.74 464.083 223.151 464.01C225.125 463.651 227.13 463.255 229.109 462.839C229.516 462.75 229.922 463.016 230.01 463.422C230.099 463.839 229.833 464.24 229.422 464.328C227.432 464.75 225.417 465.141 223.427 465.505C223.38 465.516 223.333 465.521 223.292 465.521ZM168.823 466.578C168.776 466.578 168.729 466.573 168.682 466.562C166.693 466.193 164.677 465.766 162.698 465.302C162.287 465.208 162.031 464.797 162.13 464.385C162.224 463.979 162.635 463.724 163.042 463.823C165 464.281 166.995 464.698 168.964 465.068C169.375 465.146 169.651 465.542 169.573 465.953C169.505 466.323 169.182 466.578 168.823 466.578ZM211.25 467.365C210.87 467.365 210.542 467.083 210.495 466.698C210.443 466.281 210.74 465.901 211.162 465.849C213.146 465.604 215.167 465.323 217.167 465.016C217.583 464.948 217.969 465.234 218.037 465.651C218.099 466.068 217.818 466.453 217.401 466.521C215.385 466.828 213.349 467.109 211.349 467.359C211.313 467.365 211.281 467.365 211.25 467.365ZM180.88 468.24C180.854 468.24 180.833 468.24 180.813 468.234C178.792 468.057 176.745 467.823 174.729 467.547C174.307 467.49 174.021 467.104 174.078 466.687C174.135 466.271 174.516 465.979 174.932 466.036C176.927 466.312 178.953 466.542 180.943 466.719C181.365 466.755 181.672 467.125 181.635 467.547C181.599 467.943 181.266 468.24 180.88 468.24ZM199.125 468.51C198.724 468.51 198.391 468.198 198.365 467.797C198.339 467.375 198.662 467.016 199.078 466.99C199.432 466.969 199.781 466.943 200.13 466.922C201.792 466.802 203.474 466.667 205.125 466.505C205.547 466.464 205.917 466.776 205.958 467.193C205.995 467.615 205.688 467.984 205.271 468.026C203.604 468.182 201.912 468.318 200.234 468.437C199.88 468.464 199.526 468.49 199.172 468.51C199.156 468.51 199.141 468.51 199.125 468.51ZM191.839 468.729C190.214 468.729 188.557 468.698 186.922 468.63C186.5 468.615 186.172 468.26 186.193 467.839C186.208 467.422 186.547 467.104 186.984 467.109C189 467.193 191.026 467.224 193.031 467.203C193.453 467.203 193.797 467.536 193.802 467.953C193.802 468.375 193.469 468.719 193.047 468.724C192.646 468.729 192.245 468.729 191.839 468.729Z" fill="#037171"/>
<path d="M247.776 204.307C247.766 204.307 247.755 204.307 247.745 204.307C245.766 204.229 243.708 204.203 241.698 204.234C241.287 204.24 240.932 203.901 240.927 203.484C240.922 203.063 241.255 202.719 241.677 202.708C243.714 202.682 245.802 202.708 247.807 202.786C248.229 202.802 248.552 203.156 248.537 203.578C248.521 203.984 248.182 204.307 247.776 204.307ZM229.526 205C229.146 205 228.813 204.714 228.771 204.323C228.724 203.906 229.026 203.531 229.443 203.484C231.49 203.26 233.547 203.083 235.552 202.953C235.969 202.927 236.328 203.245 236.359 203.667C236.386 204.083 236.068 204.443 235.646 204.474C233.667 204.599 231.636 204.776 229.609 205C229.583 205 229.552 205 229.526 205ZM259.891 205.536C259.849 205.536 259.807 205.531 259.761 205.521C257.823 205.198 255.813 204.927 253.776 204.724C253.359 204.682 253.052 204.307 253.094 203.891C253.136 203.474 253.511 203.172 253.927 203.208C255.995 203.417 258.042 203.693 260.016 204.021C260.432 204.094 260.708 204.484 260.641 204.901C260.578 205.271 260.255 205.536 259.891 205.536ZM217.479 206.854C217.125 206.854 216.807 206.599 216.734 206.24C216.656 205.823 216.922 205.422 217.333 205.344C219.328 204.948 221.359 204.594 223.37 204.286C223.781 204.219 224.177 204.505 224.24 204.922C224.302 205.339 224.016 205.729 223.599 205.786C221.615 206.094 219.604 206.448 217.63 206.833C217.578 206.849 217.531 206.854 217.479 206.854ZM271.136 208.276C271.057 208.276 270.974 208.26 270.896 208.24C269.208 207.682 267.453 207.182 265.672 206.74C265.261 206.641 265.016 206.229 265.115 205.823C265.214 205.411 265.625 205.167 266.037 205.266C267.854 205.714 269.651 206.224 271.37 206.792C271.771 206.922 271.99 207.354 271.859 207.75C271.75 208.073 271.453 208.276 271.136 208.276ZM205.641 209.76C205.318 209.76 205.021 209.557 204.917 209.234C204.787 208.833 205.005 208.406 205.406 208.276C205.495 208.25 207.646 207.557 211.349 206.656C211.755 206.557 212.172 206.807 212.266 207.219C212.365 207.625 212.115 208.036 211.708 208.135C208.063 209.021 205.896 209.719 205.875 209.724C205.797 209.75 205.719 209.76 205.641 209.76Z" fill="#037171"/>
<path d="M258.479 168.891C258.349 168.891 258.219 168.854 258.099 168.786C256.313 167.766 254.51 166.854 252.734 166.089C252.349 165.917 252.172 165.469 252.339 165.089C252.505 164.703 252.958 164.521 253.344 164.687C255.167 165.479 257.026 166.417 258.854 167.464C259.224 167.677 259.349 168.141 259.135 168.505C259 168.75 258.74 168.891 258.479 168.891ZM268.427 175.901C268.25 175.901 268.078 175.844 267.938 175.724C266.375 174.411 264.766 173.167 263.167 172.031C262.823 171.792 262.74 171.318 262.984 170.974C263.229 170.63 263.703 170.547 264.047 170.792C265.682 171.948 267.323 173.219 268.917 174.557C269.24 174.828 269.276 175.307 269.005 175.63C268.854 175.812 268.641 175.901 268.427 175.901ZM277.089 184.474C276.87 184.474 276.646 184.375 276.495 184.187C276.484 184.172 274.995 182.339 272.401 179.786C272.099 179.49 272.094 179.01 272.391 178.708C272.682 178.411 273.167 178.406 273.469 178.698C276.13 181.323 277.62 183.156 277.682 183.234C277.948 183.557 277.896 184.036 277.568 184.302C277.427 184.417 277.255 184.474 277.089 184.474Z" fill="#037171"/>
<path d="M433.297 417.63C433.297 424.693 422.552 441.208 419.104 446.333C418.599 447.083 417.495 447.083 416.99 446.333C413.542 441.208 402.797 424.693 402.797 417.63C402.797 409.214 409.625 402.391 418.047 402.391C426.469 402.391 433.297 409.214 433.297 417.63Z" fill="#12AFB6"/>
<path d="M423.51 417.63C423.51 420.646 421.062 423.089 418.042 423.089C415.026 423.089 412.578 420.646 412.578 417.63C412.578 414.615 415.026 412.167 418.042 412.167C421.062 412.167 423.51 414.615 423.51 417.63Z" fill="white"/>
</svg>
