<svg width="584" height="584" viewBox="0 0 584 584" fill="none" xmlns="http://www.w3.org/2000/svg">
<path d="M434.514 264.552C435.597 260.92 437.994 256.796 441.784 256.911C445.075 257.015 447.283 260.33 448.409 263.427C454.017 278.763 447.539 295.607 441.133 310.633C438.268 317.368 435.688 324.4 432.19 330.8C428.248 324.704 432.622 309.356 432.513 301.63C432.33 289.238 430.937 276.646 434.514 264.552Z" fill="#12AFB6"/>
<path d="M466.227 326.724C475.042 322.094 484.86 318.627 493.809 314.441C500.269 311.418 507.034 308.084 510.964 302.135C514.894 296.179 514.535 286.799 508.366 283.21C504.473 280.947 499.539 281.591 495.25 282.972C475.139 289.451 456.913 311.594 451.098 332.777C455.989 330.222 461.038 328.208 466.227 326.724Z" fill="#12AFB6"/>
<path d="M465.308 337.947C475.108 341.378 526.038 360.644 522.382 337.71C518.196 311.479 472.121 327.326 461.256 337.315C465.052 339.699 469.718 338.823 474.171 340.125L465.308 337.947Z" fill="#12AFB6"/>
<path d="M449.698 337.99C461.895 326.407 474.92 315.695 488.65 306.01C488.997 305.767 489.076 305.292 488.832 304.945L488.279 304.161C488.035 303.814 487.555 303.729 487.208 303.972C462.51 321.401 440.08 342.102 420.614 365.286C420.054 365.949 418.99 365.316 419.318 364.507C419.896 363.072 420.45 361.666 420.979 360.304C430.475 336.086 440.287 311.047 443.183 284.591C443.232 284.171 442.921 283.794 442.502 283.751L441.54 283.648C441.127 283.605 440.75 283.909 440.707 284.323C437.848 310.445 428.09 335.332 418.661 359.397C414.81 369.216 410.467 380.312 401.987 387.606C401.67 387.879 401.622 388.348 401.889 388.676C402.108 388.938 402.12 389.315 401.92 389.595C394.577 400.064 387.794 410.929 381.65 422.129C381.443 422.506 381.583 422.968 381.954 423.175L382.8 423.631C383.171 423.832 383.633 423.698 383.834 423.333C399.882 394.103 420.231 367.178 443.913 343.629C444.095 343.441 444.412 343.508 444.509 343.751C444.588 343.933 444.801 344.025 444.984 343.946C460.21 337.777 476.866 335.246 493.237 336.621C493.656 336.652 494.021 336.348 494.064 335.928L494.149 334.973C494.192 334.547 493.875 334.176 493.456 334.139C478.965 332.923 464.256 334.693 450.465 339.28C449.686 339.535 449.108 338.556 449.698 337.99Z" fill="#12AFB6"/>
<path d="M487.001 392.29C480.656 403.702 479.574 417.426 476.897 429.903C474.293 442.021 470.595 453.847 466.561 465.478C466.008 467.066 467.529 469.378 469.67 469.043C470.515 468.916 471.13 468.411 471.677 467.924C488.394 453.3 501.346 436.187 509.698 417.7C513.324 409.664 519.827 393.379 510.197 385.556C500.944 378.043 490.682 385.683 487.001 392.29Z" fill="#12AFB6"/>
<path d="M476.082 460.764C474.628 463.148 473.296 465.57 472.134 468.033L479.939 458.294C478.448 458.975 477.201 459.821 476.082 460.764Z" fill="#12AFB6"/>
<path d="M408.666 528.198C408.119 527.826 408.046 527.206 408.508 526.817C438.888 501.072 468.897 472.596 483.662 438.833C488.936 426.77 492.264 413.989 495.439 401.597C495.573 401.074 496.254 400.758 496.96 400.892C497.665 401.032 498.134 401.567 497.994 402.09C494.806 414.543 491.461 427.378 486.138 439.557C471.24 473.636 441.054 502.289 410.504 528.173C410.041 528.563 409.22 528.575 408.666 528.198Z" fill="#12AFB6"/>
<path d="M435.64 427.573C443.408 429.258 445.732 440.032 445.872 446.468C445.945 449.935 446.024 453.403 446.097 456.87C446.158 459.669 446.219 462.498 445.574 465.217C445.026 467.51 443.998 469.664 442.976 471.793C439.789 478.418 436.899 484.568 432.483 490.347C431.607 491.491 420.048 505.695 419.063 503.98C414.944 492.525 422.196 473.095 421.989 460.46C421.891 454.474 421.806 448.53 423.303 442.216C424.586 436.802 426.436 427.573 433.121 427.36C434.022 427.33 434.861 427.409 435.64 427.573Z" fill="#12AFB6"/>
<path d="M424.939 529.919C425.055 529.877 425.17 529.834 425.286 529.791C426.04 529.755 426.801 529.755 427.573 529.816C428.279 529.864 428.498 529.396 428.315 528.988C433.729 527.869 439.715 528.045 445.367 528.575C451.517 529.153 457.655 530.235 463.593 531.756C472.663 534.068 481.484 537.73 487.354 543.734C489.946 546.381 491.953 549.647 491.205 552.872C490.45 556.077 487.178 558.785 482.913 559.399C478.576 560.026 473.855 558.821 469.816 557.416C465.454 555.895 461.348 553.906 457.448 551.746C445.416 545.067 435.548 536.276 423.053 530.077C423.394 530.01 423.728 529.956 424.069 529.907C424.331 530.004 424.641 530.035 424.939 529.919Z" fill="#12AFB6"/>
<path d="M442.879 505.756C446.669 502.52 450.812 499.521 455.192 496.741C463.088 491.728 472.122 486.648 483.023 486.022C488.145 485.724 493.833 486.6 497.063 490.122C498.973 492.203 499.746 494.77 499.916 497.191C500.087 499.533 499.576 501.857 498.292 503.931C495.883 507.825 491.053 510.453 485.9 512.083C480.401 513.829 474.512 514.486 468.484 514.784C461.841 515.112 455.143 515.112 448.494 515.465C443.159 515.745 437.879 516.305 432.769 517.327C432.805 517.29 432.835 517.242 432.86 517.193C433.219 516.463 433.638 515.757 434.095 515.064C436.376 511.645 439.545 508.597 442.879 505.756Z" fill="#12AFB6"/>
<path d="M466.78 502.575C466.439 502.082 465.649 501.863 465.016 502.094C431.947 513.92 401.877 529.901 376.132 549.185C376.582 549.812 377.008 550.444 377.422 551.077C403.112 531.732 433.17 515.709 466.251 503.876C466.883 503.651 467.121 503.067 466.78 502.575Z" fill="#12AFB6"/>
<path d="M399.566 534.603C399.906 534.804 400.357 534.889 400.776 534.792C405.114 533.813 407.638 530.783 409.725 527.656C422.238 508.901 429.204 487.628 429.867 466.129C429.885 465.594 429.319 465.113 428.595 465.071C427.878 465.022 427.281 465.424 427.263 465.959C426.606 487.178 419.732 508.171 407.389 526.683C405.667 529.268 403.526 532.085 399.888 532.906C399.213 533.058 398.866 533.606 399.109 534.123C399.201 534.317 399.359 534.482 399.566 534.603Z" fill="#12AFB6"/>
<path d="M399.067 535.206C399.523 535.479 400.162 535.516 400.63 535.266C411.386 529.481 426.338 530.959 436.984 533.216C446.699 535.273 456.019 538.381 464.7 542.451C465.326 542.749 466.123 542.615 466.47 542.159C466.823 541.703 466.598 541.1 465.971 540.802C457.071 536.623 447.502 533.435 437.538 531.324C426.344 528.958 410.583 527.431 399.036 533.642C398.471 533.946 398.367 534.561 398.811 535.005C398.884 535.084 398.969 535.151 399.067 535.206Z" fill="#12AFB6"/>
<path d="M159.858 411.604C157.449 412.103 155.216 413.052 153.385 414.707C151.7 416.234 150.471 418.217 149.583 420.297C147.703 424.72 147.192 429.721 147.43 434.484C147.685 439.709 149.127 444.789 151.153 449.595C153.44 454.997 156.494 460.04 159.821 464.858C160.399 465.685 161.02 466.482 161.531 467.352C161.896 467.979 162.261 468.599 162.638 469.22C163.064 469.919 163.496 470.619 163.964 471.288C164.141 471.543 164.323 471.805 164.53 472.03C164.67 472.006 164.816 472.03 164.931 472.097C165.004 467.541 163.782 463.045 163.812 458.489C163.83 455.623 164.475 452.685 165.132 449.911C165.813 447.058 166.665 444.248 167.584 441.467C169.08 436.941 170.996 432.531 171.568 427.768C172.049 423.771 171.945 419.288 170.023 415.65C169.202 414.092 167.949 412.754 166.331 412.018C164.299 411.093 161.999 411.16 159.858 411.604Z" fill="#12AFB6"/>
<path d="M66.8739 404.602C63.2178 403.258 58.8864 402.224 55.0783 403.58C51.3066 404.931 48.5752 408.903 48.4109 412.882C48.2528 416.994 51.1667 420.498 54.1414 422.992C57.6333 425.912 61.7639 428.078 65.9857 429.751C67.7073 430.438 69.4897 431.083 71.3025 431.509C74.77 432.324 78.3835 432.659 81.9179 433.048C89.0659 433.839 96.3354 434.441 103.204 436.71C104.694 437.203 106.203 437.751 107.675 438.365C102.534 432.847 97.8198 426.928 92.4421 421.63C88.2568 417.505 83.5909 413.953 78.6634 410.753C74.9525 408.338 71.0409 406.142 66.8739 404.602Z" fill="#12AFB6"/>
<path d="M83.9561 449.199C80.1418 447.265 76.0234 446.024 71.7529 445.665C67.5858 445.312 62.4941 445.793 59.7505 449.37C58.3392 451.207 57.7369 453.665 57.9681 455.952C58.181 458.087 59.2456 459.955 60.8698 461.342C64.386 464.341 69.4291 465.302 73.8942 465.758C77.1853 466.099 80.5798 466.294 83.8222 465.551C87.308 464.748 90.7451 463.714 94.17 462.692C98.0147 461.549 101.853 460.368 105.674 459.158C102.243 458.957 98.8055 457.363 95.8551 455.855C91.8036 453.792 88.0137 451.256 83.9561 449.199Z" fill="#12AFB6"/>
<path d="M149.595 485.626C143.567 484.416 137.404 483.704 131.254 483.741C126.369 483.765 121.435 484.197 116.849 485.955C112.888 487.476 108.873 489.69 106.075 492.945C104.84 494.38 103.83 496.078 103.526 497.976C103.198 500.02 103.751 502.039 104.791 503.803C107.353 508.129 111.574 510.787 116.508 511.535C121.442 512.278 126.552 511.395 131.284 509.966C135.756 508.609 140.172 506.748 144.163 504.308C148.664 501.559 152.85 498.322 157.431 495.694C160.795 493.766 164.505 492.081 168.387 491.661C167.644 491.302 166.896 490.955 166.142 490.633C160.849 488.34 155.247 486.758 149.595 485.626Z" fill="#12AFB6"/>
<path d="M117.749 431.959C117.603 431.564 117.451 431.174 117.293 430.785C113.6 421.697 107.827 413.417 101.488 405.983C99.2132 403.319 96.9077 400.545 94.0728 398.452C91.7612 396.755 89.194 395.265 86.4382 394.419C84.3152 393.774 81.5412 393.482 80.0142 395.453C79.2112 396.499 78.7428 398.032 78.8462 399.346C78.9497 400.697 79.5458 401.968 80.2758 403.088C82.1677 405.996 84.9113 408.319 87.6184 410.436C90.289 412.529 93.1056 414.421 95.8857 416.355C97.3761 417.384 98.7874 418.509 100.229 419.604C102.45 421.289 104.682 422.95 106.896 424.647C110.814 427.658 114.665 430.785 118.151 434.295C117.992 433.523 117.853 432.744 117.749 431.959Z" fill="#12AFB6"/>
<path d="M201.772 514.869C201.76 514.881 201.747 514.893 201.735 514.906C201.395 515.252 200.841 515.264 200.488 514.93C184.519 499.563 168.009 483.668 150.465 469.536C129.69 452.807 107.085 438.213 83.2867 426.162C82.8548 425.943 82.6784 425.414 82.8974 424.976C83.1164 424.544 83.6457 424.373 84.0837 424.592C107.991 436.698 130.694 451.359 151.566 468.167C169.171 482.348 185.712 498.268 201.711 513.665C202.046 513.987 202.07 514.516 201.772 514.869Z" fill="#12AFB6"/>
<path d="M133.353 455.544C133.292 455.611 133.225 455.672 133.14 455.721C132.726 455.976 132.191 455.849 131.935 455.435C131.625 454.936 131.315 454.443 131.004 453.944C119.032 434.898 104.104 418.363 86.6203 404.785C86.2371 404.487 86.1702 403.933 86.4683 403.55C86.7603 403.173 87.3138 403.1 87.7032 403.398C96.4693 410.205 104.737 417.895 112.268 426.247C119.732 434.533 126.539 443.536 132.495 453.008C132.811 453.506 133.121 454.011 133.432 454.51C133.638 454.845 133.596 455.265 133.353 455.544Z" fill="#12AFB6"/>
<path d="M132.422 454.048C132.324 454.17 132.191 454.261 132.032 454.316C131.759 454.407 131.491 454.492 131.217 454.583C112.627 460.618 92.7524 462.114 73.7481 458.908C73.2675 458.829 72.9451 458.373 73.0302 457.893C73.1093 457.412 73.5656 457.096 74.0401 457.175C92.7646 460.332 112.347 458.86 130.67 452.91C130.938 452.825 131.205 452.734 131.473 452.643C131.935 452.491 132.434 452.74 132.586 453.196C132.689 453.506 132.616 453.823 132.422 454.048Z" fill="#12AFB6"/>
<path d="M186.168 500.701C186.15 500.725 186.125 500.75 186.101 500.774C185.748 501.102 185.189 501.09 184.86 500.737C178.369 493.827 167.377 493.06 159.675 493.085C151.122 493.115 142.502 493.839 134.064 495.238C133.584 495.317 133.134 494.995 133.048 494.514C132.969 494.04 133.298 493.583 133.772 493.504C142.307 492.087 151.019 491.357 159.669 491.333C165.412 491.314 169.932 491.771 173.898 492.774C179.099 494.094 183.102 496.303 186.138 499.533C186.448 499.861 186.46 500.366 186.168 500.701Z" fill="#12AFB6"/>
<path d="M175.504 491.126C175.468 491.168 175.425 491.205 175.376 491.241C175.048 491.485 174.592 491.412 174.348 491.083C167.76 482.122 162.906 471.501 160.32 460.381C157.729 449.254 157.4 437.586 159.365 426.636C159.432 426.235 159.815 425.973 160.217 426.04C160.618 426.113 160.88 426.496 160.813 426.892C156.907 448.695 162.407 472.365 175.535 490.213C175.741 490.493 175.717 490.87 175.504 491.126Z" fill="#12AFB6"/>
<path d="M179.787 532.34L360.322 578.257C381.967 583.769 402.011 568.287 404.092 543.661L446.614 40.3386C448.695 15.7132 431.266 0.231164 408.691 5.73658L220.393 51.6597C205.027 55.407 191.461 74.2653 189.818 93.6712L156.311 490.329C154.669 509.735 165.047 528.593 179.787 532.34Z" fill="#035150"/>
<path d="M158.501 526.932L356.033 577.168C370.031 580.727 382.836 570.708 384.181 554.818L428.589 29.1817C429.934 13.2921 418.819 3.27283 404.219 6.83158L198.201 57.0677C188.516 59.4342 179.872 71.613 178.807 84.1751L143.688 499.825C142.624 512.387 149.218 524.566 158.501 526.932Z" fill="#12AFB6"/>
<path d="M361.63 578.732C359.707 578.732 357.748 578.482 355.784 577.984L158.252 527.741C148.689 525.308 141.796 512.788 142.891 499.825L178.01 84.1751C179.105 71.2115 188.115 58.692 198.085 56.2587L404.103 6.01642C411.349 4.25225 417.992 5.63925 422.798 9.93409C427.725 14.3384 430.061 21.17 429.386 29.1878L384.977 554.818C384.302 562.83 380.804 569.668 375.129 574.066C371.168 577.144 366.508 578.732 361.63 578.732ZM409.931 6.94109C408.131 6.94109 406.257 7.17225 404.335 7.64675L198.316 57.8829C189.033 60.1459 180.638 71.9415 179.604 84.1751L144.485 499.825C143.451 512.058 149.851 523.854 158.757 526.117L356.288 576.353C362.761 578.002 369.143 576.724 374.259 572.752C379.509 568.682 382.751 562.307 383.39 554.818L427.798 29.1818C428.431 21.6932 426.265 15.3178 421.696 11.2481C418.515 8.40717 414.457 6.94109 409.931 6.94109Z" fill="#12AFB6"/>
<path d="M195.026 92.0652L163.721 462.558C163.453 465.746 165.047 468.727 167.334 469.445C167.468 469.487 167.602 469.524 167.742 469.548L355.705 505.318C359.336 506.012 362.609 503.232 362.956 499.138L400.971 49.1777C400.995 48.9222 401.001 48.6727 401.001 48.4233C401.001 48.2347 400.995 48.0462 400.971 47.8576C400.904 47.0911 400.715 46.3976 400.411 45.7832C399.438 43.7392 397.309 42.6563 394.747 43.2099L200.233 84.9294C197.939 85.4222 195.835 88.0076 195.196 90.9398C195.117 91.3169 195.056 91.6819 195.026 92.0652Z" fill="#7ADCFB"/>
<path d="M236.356 513.312C237.177 503.615 244.161 497.008 252.039 498.608C260.038 500.233 265.957 509.692 265.118 519.663C264.272 529.639 257.003 536.185 249.027 534.281C241.174 532.401 235.541 523.009 236.356 513.312ZM238.108 513.695C237.39 522.193 242.336 530.418 249.216 532.042C256.187 533.697 262.526 527.966 263.268 519.255C264.004 510.544 258.84 502.277 251.85 500.841C244.951 499.423 238.826 505.203 238.108 513.695Z" fill="#023436"/>
<path d="M275.612 55.042L304.362 48.4963C305.797 48.1739 307.087 46.5192 307.233 44.822C307.379 43.1308 306.314 42.0176 304.879 42.3522L276.117 49.0682C274.76 49.3845 273.537 50.9844 273.397 52.6208C273.257 54.2633 274.255 55.3522 275.612 55.042Z" fill="#023436"/>
<path d="M195.026 92.0652L191.966 128.267L397.254 93.148L400.971 49.1777C400.995 48.9282 401.001 48.6727 401.001 48.4233C400.995 48.2347 400.989 48.0462 400.965 47.8637C400.904 47.0911 400.709 46.4037 400.411 45.7832C399.432 43.7392 397.309 42.6624 394.742 43.2099L200.233 84.9294C197.94 85.4222 195.835 88.0076 195.196 90.9398C195.117 91.3169 195.056 91.6819 195.026 92.0652Z" fill="#D9EEF9"/>
<path d="M195.026 92.0652L163.721 462.558C163.453 465.746 165.047 468.727 167.334 469.445L199.387 90.0638L400.971 47.8637C400.904 47.0911 400.715 46.4037 400.411 45.7832C399.438 43.7392 397.309 42.6624 394.747 43.2099L200.233 84.9294C197.939 85.4222 195.835 88.0076 195.196 90.9398C195.117 91.3169 195.056 91.6819 195.026 92.0652Z" fill="#023436"/>
<mask id="mask0_86_353" style="mask-type:luminance" maskUnits="userSpaceOnUse" x="214" y="210" width="159" height="231">
<path d="M214.912 210.24H372.203V440.725H214.912V210.24Z" fill="white"/>
</mask>
<g mask="url(#mask0_86_353)">
<mask id="mask1_86_353" style="mask-type:luminance" maskUnits="userSpaceOnUse" x="24" y="7" width="443" height="507">
<path d="M459.906 249.636C459.906 129.295 490.292 7.95093 349.95 7.95093C209.601 7.95093 58.9475 137.137 58.9475 257.483C58.9475 328.622 -41.5066 497.781 101.178 453.281L144.163 462.041C144.163 464.7 102.236 440.391 169.165 466.154L363.735 503.305C366.971 503.876 363.108 516.724 363.108 513.306L372.452 422.196C501.206 411.538 459.906 362.834 459.906 249.636Z" fill="white"/>
</mask>
<g mask="url(#mask1_86_353)">
<path d="M360.261 403.617C362.044 397.789 363.838 391.961 365.335 386.054C365.462 385.574 365.578 385.087 365.7 384.607C365.706 384.576 365.73 384.485 365.754 384.375C365.809 384.163 365.87 383.889 365.888 383.822C365.961 383.475 366.04 383.128 366.119 382.788C366.436 381.34 366.734 379.886 367.001 378.426C367.537 375.482 367.92 372.519 368.285 369.55C369.836 356.934 370.913 344.256 371.424 331.548C371.686 325.014 371.795 318.475 371.734 311.935C371.728 311.023 371.716 310.11 371.698 309.198C371.692 308.717 371.704 306.205 371.686 308.206C371.698 306.685 371.6 305.158 371.546 303.637C371.424 300.377 371.26 297.116 371.047 293.855C370.311 282.693 369.003 271.56 366.977 260.555C355.912 249.277 343.599 239.209 330.301 230.674C327.831 229.086 298.692 214.73 289.999 211.937C289.183 211.846 288.374 211.767 287.565 211.694C272.351 210.283 257.057 210.97 242.549 213.209C240.833 214.468 238.844 215.362 236.751 215.752C235.504 215.983 234.263 216.232 233.034 216.524C232.511 216.646 231.994 216.786 231.477 216.92C229.299 217.631 227.14 218.373 225.016 219.243C223.569 219.84 222.145 220.472 220.734 221.135C220.649 232.773 218.647 244.422 215.776 255.707C211.87 271.049 223.356 306.119 217.358 320.744V430.153C218.416 430.7 219.414 430.889 220.484 431.406C224.81 433.492 211.968 429.921 216.5 431.515C218.69 432.288 220.904 432.987 223.149 433.602C223.508 433.699 223.867 433.796 224.232 433.888C224.968 434.046 225.71 434.204 226.446 434.338C230.771 435.141 235.151 435.524 239.55 435.427C241.904 435.378 244.222 436.528 246.156 438.037C262.423 439.527 278.775 440.16 295.109 440.227C310.463 440.293 325.805 439.855 341.062 439.156C344.663 438.992 348.32 438.809 351.915 438.322C353.314 426.503 356.794 414.969 360.261 403.617Z" fill="#AEE7FC"/>
</g>
</g>
<mask id="mask2_86_353" style="mask-type:luminance" maskUnits="userSpaceOnUse" x="367" y="426" width="3" height="3">
<path d="M367.531 426.709H369.088V428.267H367.531V426.709Z" fill="white"/>
</mask>
<g mask="url(#mask2_86_353)">
<mask id="mask3_86_353" style="mask-type:luminance" maskUnits="userSpaceOnUse" x="24" y="7" width="443" height="507">
<path d="M459.906 249.636C459.906 129.295 490.292 7.95093 349.95 7.95093C209.601 7.95093 58.9475 137.137 58.9475 257.483C58.9475 328.622 -41.5066 497.781 101.178 453.281L144.163 462.041C144.163 464.7 102.236 440.391 169.165 466.154L363.735 503.305C366.971 503.876 363.108 516.724 363.108 513.306L372.452 422.196C501.206 411.538 459.906 362.834 459.906 249.636Z" fill="white"/>
</mask>
<g mask="url(#mask3_86_353)">
<path d="M367.92 426.776C367.859 427.062 367.78 427.336 367.665 427.573V427.579C367.999 426.91 367.999 426.697 367.92 426.776Z" fill="#AEE7FC"/>
</g>
</g>
<mask id="mask4_86_353" style="mask-type:luminance" maskUnits="userSpaceOnUse" x="224" y="434" width="76" height="60">
<path d="M224.256 434.496H299.008V493.675H224.256V434.496Z" fill="white"/>
</mask>
<g mask="url(#mask4_86_353)">
<mask id="mask5_86_353" style="mask-type:luminance" maskUnits="userSpaceOnUse" x="24" y="7" width="443" height="507">
<path d="M459.906 249.636C459.906 129.295 490.292 7.95093 349.95 7.95093C209.601 7.95093 58.9475 137.137 58.9475 257.483C58.9475 328.622 -41.5066 497.781 101.178 453.281L144.163 462.041C144.163 464.7 102.236 440.391 169.165 466.154L363.735 503.305C366.971 503.876 363.108 516.724 363.108 513.306L372.452 422.196C501.206 411.538 459.906 362.834 459.906 249.636Z" fill="white"/>
</mask>
<g mask="url(#mask5_86_353)">
<path d="M297.049 452.199C296.41 450.44 295.802 448.664 295.255 446.876C293.989 442.769 292.736 438.645 291.568 434.502C288.666 434.49 285.765 434.49 282.863 434.514C277.71 434.715 272.564 435.001 267.423 435.396C258.949 436.041 250.475 436.96 242.031 438.037C242.208 438.949 242.372 439.855 242.518 440.78C242.579 443.615 238.74 445.233 234.689 446.772C234.677 446.778 234.665 446.784 234.652 446.79C234.622 446.803 234.585 446.815 234.555 446.827C230.09 448.53 225.412 450.161 225.485 453.287C225.041 459.772 231.957 468.502 234.555 475.802C234.579 475.869 234.604 475.942 234.628 476.009C234.652 476.088 234.677 476.161 234.707 476.228C235.668 479.117 235.912 481.764 234.701 483.941C234.658 484.027 234.604 484.112 234.555 484.197C234.531 484.233 234.506 484.27 234.482 484.306C234.458 484.361 234.433 484.416 234.409 484.471C234.397 484.495 234.385 484.519 234.379 484.544C234.342 484.629 234.306 484.708 234.269 484.793C234.275 484.793 234.287 484.793 234.293 484.799C234.33 484.714 234.373 484.635 234.409 484.55H234.549C234.549 484.653 234.549 484.75 234.549 484.854C234.573 484.86 234.604 484.866 234.628 484.872C234.628 484.757 234.628 484.635 234.628 484.519L286.148 493.091C286.677 491.004 287.322 488.93 288.088 486.867C289.5 481.94 291.063 477.055 292.718 472.201C294.561 466.805 296.514 461.439 298.54 456.104C298.029 454.808 297.53 453.513 297.049 452.199Z" fill="#035150"/>
</g>
</g>
<mask id="mask6_86_353" style="mask-type:luminance" maskUnits="userSpaceOnUse" x="283" y="210" width="144" height="297">
<path d="M283.435 210.24H426.709V506.133H283.435V210.24Z" fill="white"/>
</mask>
<g mask="url(#mask6_86_353)">
<mask id="mask7_86_353" style="mask-type:luminance" maskUnits="userSpaceOnUse" x="24" y="7" width="443" height="507">
<path d="M459.906 249.636C459.906 129.295 490.292 7.95093 349.95 7.95093C209.601 7.95093 58.9475 137.137 58.9475 257.483C58.9475 328.622 -41.5066 497.781 101.178 453.281L144.163 462.041C144.163 464.7 102.236 440.391 169.165 466.154L363.735 503.305C366.971 503.876 363.108 516.724 363.108 513.306L372.452 422.196C501.206 411.538 459.906 362.834 459.906 249.636Z" fill="white"/>
</mask>
<g mask="url(#mask7_86_353)">
<path d="M413.442 326.298C405.838 311.278 396.323 297.232 387.983 285.515C364.112 251.966 329.455 224.493 289.987 211.937C288.435 211.444 287.541 211.317 287.559 211.694C287.571 211.998 287.59 212.302 287.602 212.606L287.456 211.663L284.025 496.826L303.035 495.901L352.767 504.187L359.118 505.708L366.941 421.715C368.553 421.861 375.664 422.451 377.252 422.524C435.074 425.146 433.109 365.158 413.442 326.298Z" fill="white"/>
</g>
</g>
<mask id="mask8_86_353" style="mask-type:luminance" maskUnits="userSpaceOnUse" x="105" y="216" width="131" height="269">
<path d="M105.898 216.469H235.157V484.331H105.898V216.469Z" fill="white"/>
</mask>
<g mask="url(#mask8_86_353)">
<mask id="mask9_86_353" style="mask-type:luminance" maskUnits="userSpaceOnUse" x="24" y="7" width="443" height="507">
<path d="M459.906 249.636C459.906 129.295 490.292 7.95093 349.95 7.95093C209.601 7.95093 58.9475 137.137 58.9475 257.483C58.9475 328.622 -41.5066 497.781 101.178 453.281L144.163 462.041C144.163 464.7 102.236 440.391 169.165 466.154L363.735 503.305C366.971 503.876 363.108 516.724 363.108 513.306L372.452 422.196C501.206 411.538 459.906 362.834 459.906 249.636Z" fill="white"/>
</mask>
<g mask="url(#mask9_86_353)">
<path d="M234.324 332.825C234.318 332.795 234.372 332.764 234.372 332.734C234.257 296.386 234.16 260.044 234.196 223.69C234.196 221.245 234.16 218.653 232.992 216.536C232.992 216.536 232.858 216.573 232.596 216.634C232.219 216.731 231.848 216.828 231.477 216.92C231.13 217.035 230.783 217.151 230.437 217.266C201.48 226.921 176.988 247.555 159.554 272.272C146.523 290.741 138.7 311.844 133.906 333.805C131.747 343.727 130.785 351.714 125.213 360.407C120.486 367.786 113.497 373.705 109.719 381.778C106.312 389.06 105.813 398.258 110.577 404.742C117.317 413.922 123.522 415.023 134.454 414.378C145.312 413.746 156.147 410.655 165.314 404.724C170.126 401.622 173.326 397.211 177.682 393.75C178.71 392.935 180.845 390.617 183.528 387.514L179.306 475.425L196.875 478.26L216.883 481.611C221.117 481.806 225.296 482.5 229.421 483.71L234.379 484.16L234.397 483.777H234.537V446.772C234.537 408.849 234.445 370.773 234.324 332.825Z" fill="white"/>
</g>
</g>
<mask id="mask10_86_353" style="mask-type:luminance" maskUnits="userSpaceOnUse" x="258" y="378" width="107" height="45">
<path d="M258.517 378.432H364.416V422.037H258.517V378.432Z" fill="white"/>
</mask>
<g mask="url(#mask10_86_353)">
<mask id="mask11_86_353" style="mask-type:luminance" maskUnits="userSpaceOnUse" x="24" y="7" width="443" height="507">
<path d="M459.906 249.636C459.906 129.295 490.292 7.95093 349.95 7.95093C209.601 7.95093 58.9475 137.137 58.9475 257.483C58.9475 328.622 -41.5066 497.781 101.178 453.281L144.163 462.041C144.163 464.7 102.236 440.391 169.165 466.154L363.735 503.305C366.971 503.876 363.108 516.724 363.108 513.306L372.452 422.196C501.206 411.538 459.906 362.834 459.906 249.636Z" fill="white"/>
</mask>
<g mask="url(#mask11_86_353)">
<path d="M273.495 388.579L346.032 379.046C346.714 380.233 347.395 381.431 348.058 382.63C348.326 383.122 348.593 383.609 348.861 384.102C348.916 384.205 348.97 384.309 349.025 384.412C349.475 385.27 349.926 386.134 350.364 386.997C352.237 390.666 354.007 394.389 355.686 398.154C358.783 405.095 361.569 412.182 364.118 419.342C340.928 422.439 316.54 422.043 286.324 408.879C233.551 385.89 273.495 388.579 273.495 388.579Z" fill="#F7C108"/>
</g>
</g>
<mask id="mask12_86_353" style="mask-type:luminance" maskUnits="userSpaceOnUse" x="197" y="330" width="107" height="138">
<path d="M197.781 330.155H303.68V467.2H197.781V330.155Z" fill="white"/>
</mask>
<g mask="url(#mask12_86_353)">
<mask id="mask13_86_353" style="mask-type:luminance" maskUnits="userSpaceOnUse" x="24" y="7" width="443" height="507">
<path d="M459.906 249.636C459.906 129.295 490.292 7.95093 349.95 7.95093C209.601 7.95093 58.9475 137.137 58.9475 257.483C58.9475 328.622 -41.5066 497.781 101.178 453.281L144.163 462.041C144.163 464.7 102.236 440.391 169.165 466.154L363.735 503.305C366.971 503.876 363.108 516.724 363.108 513.306L372.452 422.196C501.206 411.538 459.906 362.834 459.906 249.636Z" fill="white"/>
</mask>
<g mask="url(#mask13_86_353)">
<path d="M295.997 455.258L225.558 466.519C221.226 467.212 217.145 464.262 216.451 459.93L199.132 351.732C198.438 347.401 201.389 343.325 205.726 342.632L276.159 331.371C280.496 330.678 284.572 333.628 285.266 337.96L302.591 446.158C303.285 450.489 300.328 454.565 295.997 455.258Z" fill="#12AFB6"/>
</g>
</g>
<mask id="mask14_86_353" style="mask-type:luminance" maskUnits="userSpaceOnUse" x="252" y="376" width="77" height="42">
<path d="M252.288 376.875H328.597V417.365H252.288V376.875Z" fill="white"/>
</mask>
<g mask="url(#mask14_86_353)">
<mask id="mask15_86_353" style="mask-type:luminance" maskUnits="userSpaceOnUse" x="24" y="7" width="443" height="507">
<path d="M459.906 249.636C459.906 129.295 490.292 7.95093 349.95 7.95093C209.601 7.95093 58.9475 137.137 58.9475 257.483C58.9475 328.622 -41.5066 497.781 101.178 453.281L144.163 462.041C144.163 464.7 102.236 440.391 169.165 466.154L363.735 503.305C366.971 503.876 363.108 516.724 363.108 513.306L372.452 422.196C501.206 411.538 459.906 362.834 459.906 249.636Z" fill="white"/>
</mask>
<g mask="url(#mask15_86_353)">
<path d="M253.273 384.698C253.273 384.698 253.237 384.771 253.225 384.807C252.896 385.501 253.505 386.438 254.137 386.237C261.857 383.81 270.076 383.104 278.318 384.205C278.763 384.266 279.128 384.765 279.14 385.318C279.146 385.872 278.793 386.273 278.355 386.213C269.747 385.063 261.182 385.933 253.194 388.701C252.878 388.81 252.695 389.2 252.744 389.631C252.781 389.966 252.829 390.301 252.884 390.641C252.981 391.195 253.425 391.578 253.845 391.463C260.987 389.51 269.224 389.175 278.787 390.453C279.231 390.514 279.596 391.006 279.602 391.566C279.614 392.12 279.261 392.521 278.817 392.46C269.443 391.213 261.389 391.523 254.411 393.427C253.991 393.543 253.797 394.127 254.003 394.656C254.228 395.259 254.484 395.836 254.758 396.39C254.934 396.743 255.257 396.931 255.555 396.871C262.745 395.484 271.481 394.711 278.939 396.706C279.377 396.822 279.705 397.363 279.663 397.911C279.626 398.452 279.237 398.799 278.793 398.683C272.168 396.907 264.448 397.4 257.781 398.537C257.13 398.653 257.021 399.766 257.623 400.216C259.88 401.877 263.104 400.721 265.428 400.934C268.987 401.257 272.594 401.701 276.128 402.93C276.262 402.978 276.396 403.021 276.53 403.07C283.495 405.777 301.551 415.413 314.143 416.246C322.417 416.794 328.336 413.539 327.192 402.023C325.762 387.66 301.24 379.436 290.345 377.775C287.833 377.398 285.272 377.161 282.698 377.075C274.024 376.796 265.203 378.237 257.544 381.595C256.455 382.076 253.961 383.36 253.273 384.698Z" fill="#F7C108"/>
</g>
</g>
<mask id="mask16_86_353" style="mask-type:luminance" maskUnits="userSpaceOnUse" x="205" y="197" width="99" height="126">
<path d="M205.568 197.781H303.68V322.368H205.568V197.781Z" fill="white"/>
</mask>
<g mask="url(#mask16_86_353)">
<mask id="mask17_86_353" style="mask-type:luminance" maskUnits="userSpaceOnUse" x="24" y="7" width="443" height="507">
<path d="M459.906 249.636C459.906 129.295 490.292 7.95093 349.95 7.95093C209.601 7.95093 58.9475 137.137 58.9475 257.483C58.9475 328.622 -41.5066 497.781 101.178 453.281L144.163 462.041C144.163 464.7 102.236 440.391 169.165 466.154L363.735 503.305C366.971 503.876 363.108 516.724 363.108 513.306L372.452 422.196C501.206 411.538 459.906 362.834 459.906 249.636Z" fill="white"/>
</mask>
<g mask="url(#mask17_86_353)">
<path d="M211.171 322.07L214.145 321.419C214.084 321.157 208.451 295.139 209.954 267.569C211.943 231.063 224.815 209.309 248.206 202.904C249.197 202.697 272.466 197.976 287.109 210.429C296.051 218.033 300.091 230.534 299.111 247.58L302.141 247.756C303.181 229.695 298.783 216.354 289.068 208.099C273.014 194.466 248.553 199.716 247.518 199.947L247.445 199.965C233.74 203.707 223.313 212.546 216.445 226.245C211.018 237.074 207.813 250.938 206.918 267.454C205.397 295.437 211.116 321.808 211.171 322.07Z" fill="#035150"/>
</g>
</g>
<mask id="mask18_86_353" style="mask-type:luminance" maskUnits="userSpaceOnUse" x="313" y="278" width="18" height="51">
<path d="M313.024 278.763H330.155V328.597H313.024V278.763Z" fill="white"/>
</mask>
<g mask="url(#mask18_86_353)">
<mask id="mask19_86_353" style="mask-type:luminance" maskUnits="userSpaceOnUse" x="24" y="7" width="443" height="507">
<path d="M459.906 249.636C459.906 129.295 490.292 7.95093 349.95 7.95093C209.601 7.95093 58.9475 137.137 58.9475 257.483C58.9475 328.622 -41.5066 497.781 101.178 453.281L144.163 462.041C144.163 464.7 102.236 440.391 169.165 466.154L363.735 503.305C366.971 503.876 363.108 516.724 363.108 513.306L372.452 422.196C501.206 411.538 459.906 362.834 459.906 249.636Z" fill="white"/>
</mask>
<g mask="url(#mask19_86_353)">
<path d="M315.5 328.068C323.858 323.238 329.047 314.247 329.047 304.611V279.42H325.27V304.611C325.27 312.902 320.804 320.64 313.608 324.795L315.5 328.068Z" fill="#C7E7FF"/>
</g>
</g>
<mask id="mask20_86_353" style="mask-type:luminance" maskUnits="userSpaceOnUse" x="274" y="278" width="18" height="51">
<path d="M274.091 278.763H291.221V328.597H274.091V278.763Z" fill="white"/>
</mask>
<g mask="url(#mask20_86_353)">
<mask id="mask21_86_353" style="mask-type:luminance" maskUnits="userSpaceOnUse" x="24" y="7" width="443" height="507">
<path d="M459.906 249.636C459.906 129.295 490.292 7.95093 349.95 7.95093C209.601 7.95093 58.9475 137.137 58.9475 257.483C58.9475 328.622 -41.5066 497.781 101.178 453.281L144.163 462.041C144.163 464.7 102.236 440.391 169.165 466.154L363.735 503.305C366.971 503.876 363.108 516.724 363.108 513.306L372.452 422.196C501.206 411.538 459.906 362.834 459.906 249.636Z" fill="white"/>
</mask>
<g mask="url(#mask21_86_353)">
<path d="M288.739 328.068L290.631 324.795C283.441 320.64 278.976 312.902 278.976 304.611V279.42H275.192V304.611C275.198 314.247 280.387 323.238 288.739 328.068Z" fill="white"/>
</g>
</g>
<mask id="mask22_86_353" style="mask-type:luminance" maskUnits="userSpaceOnUse" x="306" y="322" width="12" height="9">
<path d="M306.795 322.368H317.696V330.155H306.795V322.368Z" fill="white"/>
</mask>
<g mask="url(#mask22_86_353)">
<mask id="mask23_86_353" style="mask-type:luminance" maskUnits="userSpaceOnUse" x="24" y="7" width="443" height="507">
<path d="M459.907 249.636C459.907 129.295 490.293 7.95093 349.95 7.95093C209.602 7.95093 58.9479 137.137 58.9479 257.483C58.9479 328.622 -41.5061 497.781 101.178 453.281L144.163 462.041C144.163 464.7 102.237 440.391 169.166 466.154L363.735 503.305C366.971 503.876 363.109 516.724 363.109 513.306L372.453 422.196C501.206 411.538 459.907 362.834 459.907 249.636Z" fill="white"/>
</mask>
<g mask="url(#mask23_86_353)">
<path d="M311.188 329.394L314.43 328.743C315.835 328.464 316.748 327.083 316.468 325.683C316.182 324.284 314.807 323.372 313.402 323.652L310.159 324.303C308.76 324.588 307.848 325.963 308.128 327.362C308.407 328.762 309.788 329.68 311.188 329.394Z" fill="#035150"/>
</g>
</g>
<mask id="mask24_86_353" style="mask-type:luminance" maskUnits="userSpaceOnUse" x="286" y="322" width="10" height="9">
<path d="M286.549 322.368H295.893V330.155H286.549V322.368Z" fill="white"/>
</mask>
<g mask="url(#mask24_86_353)">
<mask id="mask25_86_353" style="mask-type:luminance" maskUnits="userSpaceOnUse" x="24" y="7" width="443" height="507">
<path d="M459.906 249.636C459.906 129.295 490.292 7.95093 349.95 7.95093C209.601 7.95093 58.9475 137.137 58.9475 257.483C58.9475 328.622 -41.5066 497.781 101.178 453.281L144.163 462.041C144.163 464.7 102.236 440.391 169.165 466.154L363.735 503.305C366.971 503.876 363.108 516.724 363.108 513.306L372.452 422.196C501.206 411.538 459.906 362.834 459.906 249.636Z" fill="white"/>
</mask>
<g mask="url(#mask25_86_353)">
<path d="M288.8 328.324L292.067 328.841C293.472 329.066 294.816 328.099 295.042 326.687C295.261 325.276 294.293 323.938 292.882 323.712L289.615 323.195C288.204 322.97 286.866 323.938 286.64 325.349C286.415 326.76 287.383 328.099 288.8 328.324Z" fill="#035150"/>
</g>
</g>
<mask id="mask26_86_353" style="mask-type:luminance" maskUnits="userSpaceOnUse" x="274" y="241" width="57" height="40">
<path d="M274.091 241.387H330.155V280.32H274.091V241.387Z" fill="white"/>
</mask>
<g mask="url(#mask26_86_353)">
<mask id="mask27_86_353" style="mask-type:luminance" maskUnits="userSpaceOnUse" x="24" y="7" width="443" height="507">
<path d="M459.906 249.636C459.906 129.295 490.292 7.95091 349.95 7.95091C209.601 7.95091 58.9475 137.137 58.9475 257.483C58.9475 328.622 -41.5066 497.781 101.178 453.281L144.163 462.041C144.163 464.7 102.236 440.391 169.165 466.154L363.735 503.305C366.971 503.876 363.108 516.724 363.108 513.306L372.452 422.196C501.206 411.537 459.906 362.834 459.906 249.636Z" fill="white"/>
</mask>
<g mask="url(#mask27_86_353)">
<path d="M274.778 279.049H279.717V269.796C279.717 263.865 282.035 258.28 286.233 254.083C290.43 249.885 296.015 247.573 301.952 247.573C314.21 247.573 324.181 257.544 324.181 269.796V279.049H329.12V269.796C329.12 254.819 316.935 242.64 301.952 242.64C294.695 242.64 287.875 245.463 282.735 250.591C277.607 255.725 274.778 262.545 274.778 269.796V279.049Z" fill="#035150"/>
</g>
</g>
<mask id="mask28_86_353" style="mask-type:luminance" maskUnits="userSpaceOnUse" x="204" y="319" width="21" height="19">
<path d="M204.011 319.253H224.256V337.941H204.011V319.253Z" fill="white"/>
</mask>
<g mask="url(#mask28_86_353)">
<mask id="mask29_86_353" style="mask-type:luminance" maskUnits="userSpaceOnUse" x="24" y="7" width="443" height="507">
<path d="M459.906 249.636C459.906 129.295 490.292 7.95093 349.95 7.95093C209.601 7.95093 58.9475 137.137 58.9475 257.483C58.9475 328.622 -41.5066 497.781 101.178 453.281L144.163 462.041C144.163 464.7 102.236 440.391 169.165 466.154L363.735 503.305C366.971 503.876 363.108 516.724 363.108 513.306L372.452 422.196C501.206 411.538 459.906 362.834 459.906 249.636Z" fill="white"/>
</mask>
<g mask="url(#mask29_86_353)">
<path d="M214.657 319.941C215.228 319.971 215.794 320.062 216.354 320.208C216.907 320.354 217.443 320.549 217.96 320.799C218.477 321.054 218.97 321.352 219.426 321.699C219.882 322.046 220.308 322.429 220.685 322.861C221.068 323.293 221.403 323.755 221.695 324.248C221.987 324.747 222.224 325.264 222.419 325.805C222.601 326.347 222.735 326.906 222.814 327.472C222.893 328.044 222.918 328.616 222.887 329.187C222.851 329.759 222.76 330.325 222.62 330.885C222.474 331.438 222.273 331.974 222.023 332.491C221.774 333.008 221.476 333.501 221.129 333.957C220.782 334.413 220.393 334.833 219.961 335.216C219.535 335.599 219.073 335.934 218.574 336.226C218.075 336.518 217.558 336.755 217.017 336.944C216.469 337.132 215.916 337.266 215.344 337.345C214.778 337.424 214.206 337.449 213.628 337.412C213.057 337.382 212.491 337.29 211.937 337.144C211.378 336.998 210.842 336.804 210.325 336.554C209.808 336.299 209.321 336.001 208.859 335.654C208.403 335.307 207.983 334.924 207.6 334.492C207.217 334.06 206.882 333.598 206.59 333.105C206.298 332.606 206.061 332.089 205.872 331.548C205.684 331.006 205.55 330.447 205.471 329.881C205.392 329.309 205.367 328.737 205.404 328.165C205.434 327.594 205.525 327.028 205.671 326.468C205.817 325.915 206.012 325.379 206.262 324.862C206.511 324.345 206.815 323.858 207.162 323.396C207.509 322.94 207.892 322.52 208.324 322.137C208.756 321.754 209.218 321.419 209.711 321.127C210.21 320.835 210.727 320.598 211.274 320.409C211.816 320.221 212.369 320.087 212.941 320.008C213.513 319.929 214.085 319.904 214.657 319.941Z" fill="#12AFB6"/>
</g>
</g>
<mask id="mask30_86_353" style="mask-type:luminance" maskUnits="userSpaceOnUse" x="208" y="322" width="12" height="13">
<path d="M208.683 322.368H219.584V334.827H208.683V322.368Z" fill="white"/>
</mask>
<g mask="url(#mask30_86_353)">
<mask id="mask31_86_353" style="mask-type:luminance" maskUnits="userSpaceOnUse" x="24" y="7" width="443" height="507">
<path d="M459.906 249.636C459.906 129.295 490.292 7.95093 349.95 7.95093C209.601 7.95093 58.9475 137.137 58.9475 257.483C58.9475 328.622 -41.5066 497.781 101.178 453.281L144.163 462.041C144.163 464.7 102.236 440.391 169.165 466.154L363.735 503.305C366.971 503.876 363.108 516.724 363.108 513.306L372.452 422.196C501.206 411.538 459.906 362.834 459.906 249.636Z" fill="white"/>
</mask>
<g mask="url(#mask31_86_353)">
<path d="M214.444 323.603C215.113 323.639 215.752 323.81 216.36 324.102C216.968 324.394 217.497 324.795 217.942 325.3C218.392 325.805 218.726 326.371 218.945 327.01C219.17 327.648 219.262 328.299 219.219 328.975C219.183 329.65 219.012 330.289 218.72 330.891C218.428 331.499 218.027 332.028 217.522 332.472C217.017 332.923 216.451 333.257 215.812 333.476C215.174 333.701 214.517 333.793 213.847 333.75C213.172 333.713 212.533 333.543 211.925 333.251C211.317 332.959 210.794 332.558 210.343 332.053C209.893 331.548 209.559 330.982 209.34 330.343C209.121 329.705 209.029 329.054 209.066 328.378C209.109 327.709 209.273 327.064 209.565 326.462C209.863 325.854 210.258 325.325 210.763 324.88C211.268 324.43 211.84 324.096 212.473 323.877C213.111 323.652 213.768 323.56 214.444 323.603Z" fill="#023436"/>
</g>
</g>
<mask id="mask32_86_353" style="mask-type:luminance" maskUnits="userSpaceOnUse" x="230" y="121" width="63" height="65">
<path d="M230.485 121.472H292.779V185.323H230.485V121.472Z" fill="white"/>
</mask>
<g mask="url(#mask32_86_353)">
<mask id="mask33_86_353" style="mask-type:luminance" maskUnits="userSpaceOnUse" x="24" y="7" width="443" height="507">
<path d="M459.906 249.636C459.906 129.295 490.292 7.95093 349.95 7.95093C209.601 7.95093 58.9475 137.137 58.9475 257.483C58.9475 328.622 -41.5066 497.781 101.178 453.281L144.163 462.041C144.163 464.7 102.236 440.391 169.165 466.154L363.735 503.305C366.971 503.876 363.108 516.724 363.108 513.306L372.452 422.196C501.206 411.538 459.906 362.834 459.906 249.636Z" fill="white"/>
</mask>
<g mask="url(#mask33_86_353)">
<path d="M233.74 135.153C235.82 128.164 239.245 122.111 246.533 121.794C253.073 121.509 256.212 127.142 262.709 127.896C267.393 128.437 275.137 128.474 279.554 130.123C286.324 132.653 289.098 137.879 290.321 144.996C291.775 153.483 292.219 162.145 291.653 170.735C291.349 175.346 290.443 180.486 286.689 183.181C282.005 186.552 275.119 184.246 271.159 180.055C269.613 178.424 268.336 176.532 267.484 174.452C266.505 172.079 266.097 169.512 265.221 167.097C263.56 162.535 259.917 158.453 255.178 157.418C249.07 156.092 238.674 163.453 234.397 158.702C229.542 153.312 231.793 141.687 233.74 135.153Z" fill="#023436"/>
</g>
</g>
<mask id="mask34_86_353" style="mask-type:luminance" maskUnits="userSpaceOnUse" x="236" y="133" width="49" height="104">
<path d="M236.715 133.931H284.992V236.715H236.715V133.931Z" fill="white"/>
</mask>
<g mask="url(#mask34_86_353)">
<mask id="mask35_86_353" style="mask-type:luminance" maskUnits="userSpaceOnUse" x="24" y="7" width="443" height="507">
<path d="M459.906 249.636C459.906 129.295 490.292 7.95091 349.95 7.95091C209.601 7.95091 58.9475 137.137 58.9475 257.483C58.9475 328.622 -41.5066 497.781 101.178 453.281L144.163 462.041C144.163 464.7 102.236 440.391 169.165 466.154L363.735 503.305C366.971 503.876 363.108 516.724 363.108 513.306L372.452 422.196C501.206 411.537 459.906 362.834 459.906 249.636Z" fill="white"/>
</mask>
<g mask="url(#mask35_86_353)">
<path d="M284.402 158.197V211.822C284.402 224.773 273.823 235.34 260.896 235.34H260.866C247.932 235.34 237.329 228.861 237.329 215.91V158.197C237.329 145.276 247.938 134.679 260.866 134.679H260.896C273.823 134.679 284.402 145.276 284.402 158.197Z" fill="#F8C208"/>
</g>
</g>
<mask id="mask36_86_353" style="mask-type:luminance" maskUnits="userSpaceOnUse" x="270" y="158" width="19" height="20">
<path d="M270.976 158.848H288.107V177.536H270.976V158.848Z" fill="white"/>
</mask>
<g mask="url(#mask36_86_353)">
<mask id="mask37_86_353" style="mask-type:luminance" maskUnits="userSpaceOnUse" x="24" y="7" width="443" height="507">
<path d="M459.906 249.636C459.906 129.295 490.292 7.95093 349.95 7.95093C209.601 7.95093 58.9475 137.137 58.9475 257.483C58.9475 328.622 -41.5066 497.781 101.178 453.281L144.163 462.041C144.163 464.7 102.236 440.391 169.165 466.154L363.735 503.305C366.971 503.876 363.108 516.724 363.108 513.306L372.452 422.196C501.206 411.538 459.906 362.834 459.906 249.636Z" fill="white"/>
</mask>
<g mask="url(#mask37_86_353)">
<path d="M283.8 159.925C284.189 160.15 284.542 160.417 284.864 160.74C285.187 161.056 285.467 161.421 285.71 161.823C285.959 162.224 286.154 162.662 286.312 163.131C286.47 163.605 286.58 164.098 286.647 164.621C286.708 165.138 286.726 165.68 286.695 166.227C286.659 166.781 286.586 167.334 286.458 167.894C286.33 168.454 286.16 169.007 285.947 169.555C285.728 170.102 285.473 170.631 285.175 171.148C284.883 171.659 284.548 172.146 284.183 172.608C283.818 173.065 283.423 173.491 282.997 173.88C282.577 174.269 282.133 174.616 281.671 174.92C281.208 175.224 280.74 175.474 280.253 175.681C279.773 175.887 279.286 176.039 278.799 176.137C278.313 176.24 277.832 176.283 277.364 176.271C276.895 176.265 276.439 176.198 276.001 176.082C275.563 175.96 275.149 175.79 274.766 175.565C274.377 175.346 274.024 175.072 273.701 174.756C273.379 174.433 273.099 174.075 272.856 173.673C272.606 173.265 272.406 172.834 272.254 172.359C272.095 171.891 271.986 171.392 271.919 170.869C271.858 170.352 271.84 169.816 271.87 169.263C271.907 168.715 271.98 168.155 272.108 167.596C272.235 167.036 272.406 166.483 272.619 165.935C272.838 165.388 273.093 164.858 273.391 164.347C273.683 163.83 274.018 163.344 274.383 162.887C274.748 162.425 275.143 161.999 275.569 161.61C275.989 161.22 276.433 160.874 276.895 160.576C277.358 160.271 277.826 160.016 278.313 159.809C278.793 159.608 279.28 159.45 279.767 159.353C280.253 159.256 280.734 159.207 281.202 159.219C281.671 159.231 282.127 159.292 282.565 159.414C283.003 159.529 283.417 159.7 283.8 159.925Z" fill="#023436"/>
</g>
</g>
<mask id="mask38_86_353" style="mask-type:luminance" maskUnits="userSpaceOnUse" x="235" y="130" width="58" height="37">
<path d="M235.157 130.816H292.779V166.635H235.157V130.816Z" fill="white"/>
</mask>
<g mask="url(#mask38_86_353)">
<mask id="mask39_86_353" style="mask-type:luminance" maskUnits="userSpaceOnUse" x="24" y="7" width="443" height="507">
<path d="M459.906 249.636C459.906 129.295 490.292 7.95091 349.95 7.95091C209.601 7.95091 58.9475 137.137 58.9475 257.483C58.9475 328.622 -41.5066 497.781 101.178 453.281L144.163 462.041C144.163 464.7 102.236 440.391 169.165 466.154L363.735 503.305C366.971 503.876 363.108 516.724 363.108 513.306L372.452 422.196C501.206 411.537 459.906 362.834 459.906 249.636Z" fill="white"/>
</mask>
<g mask="url(#mask39_86_353)">
<path d="M238.393 148.671C238.418 148.756 235.784 146.949 235.784 147.034C248.382 148.141 260.287 149.163 263.773 148.665C265.41 163.66 272.217 163.161 279.365 165.406C286.008 167.456 292.876 164.353 291.544 155.995C290.795 151.207 287.224 144.625 283.459 141.638C277.229 136.68 269.759 133.116 261.839 132.227C253.949 131.37 245.584 133.359 239.464 138.451C236.946 140.531 237.341 145.599 238.393 148.671Z" fill="#023436"/>
</g>
</g>
<mask id="mask40_86_353" style="mask-type:luminance" maskUnits="userSpaceOnUse" x="256" y="158" width="6" height="6">
<path d="M256.96 158.848H261.632V163.52H256.96V158.848Z" fill="white"/>
</mask>
<g mask="url(#mask40_86_353)">
<mask id="mask41_86_353" style="mask-type:luminance" maskUnits="userSpaceOnUse" x="24" y="7" width="443" height="507">
<path d="M459.906 249.636C459.906 129.295 490.292 7.95093 349.95 7.95093C209.601 7.95093 58.9475 137.137 58.9475 257.483C58.9475 328.622 -41.5066 497.781 101.178 453.281L144.163 462.041C144.163 464.7 102.236 440.391 169.165 466.154L363.735 503.305C366.971 503.876 363.108 516.724 363.108 513.306L372.452 422.196C501.206 411.538 459.906 362.834 459.906 249.636Z" fill="white"/>
</mask>
<g mask="url(#mask41_86_353)">
<path d="M259.308 163.301C258.383 163.301 257.623 162.541 257.623 161.616C257.623 160.691 258.383 159.931 259.308 159.931C260.239 159.931 260.993 160.691 260.993 161.616C260.993 162.541 260.239 163.301 259.308 163.301Z" fill="#023436"/>
</g>
</g>
<mask id="mask42_86_353" style="mask-type:luminance" maskUnits="userSpaceOnUse" x="249" y="172" width="7" height="8">
<path d="M249.173 172.864H255.403V179.093H249.173V172.864Z" fill="white"/>
</mask>
<g mask="url(#mask42_86_353)">
<mask id="mask43_86_353" style="mask-type:luminance" maskUnits="userSpaceOnUse" x="24" y="7" width="443" height="507">
<path d="M459.906 249.636C459.906 129.295 490.292 7.95093 349.95 7.95093C209.601 7.95093 58.9475 137.137 58.9475 257.483C58.9475 328.622 -41.5066 497.781 101.178 453.281L144.163 462.041C144.163 464.7 102.236 440.391 169.165 466.154L363.735 503.305C366.971 503.876 363.108 516.724 363.108 513.306L372.452 422.196C501.206 411.538 459.906 362.834 459.906 249.636Z" fill="white"/>
</mask>
<g mask="url(#mask43_86_353)">
<path d="M251.759 177.676C252.392 177.676 253 177.518 253.523 177.208C254.521 176.624 255.062 175.565 254.971 174.367L253.712 174.464C253.76 175.17 253.462 175.778 252.878 176.119C252.246 176.496 251.12 176.605 249.891 175.802L249.198 176.861C250.019 177.402 250.913 177.676 251.759 177.676Z" fill="#023436"/>
</g>
</g>
<mask id="mask44_86_353" style="mask-type:luminance" maskUnits="userSpaceOnUse" x="249" y="158" width="5" height="14">
<path d="M249.173 158.848H253.845V171.307H249.173V158.848Z" fill="white"/>
</mask>
<g mask="url(#mask44_86_353)">
<mask id="mask45_86_353" style="mask-type:luminance" maskUnits="userSpaceOnUse" x="24" y="7" width="443" height="507">
<path d="M459.906 249.636C459.906 129.295 490.292 7.95093 349.95 7.95093C209.601 7.95093 58.9475 137.137 58.9475 257.483C58.9475 328.622 -41.5066 497.781 101.178 453.281L144.163 462.041C144.163 464.7 102.236 440.391 169.165 466.154L363.735 503.305C366.971 503.876 363.108 516.724 363.108 513.306L372.452 422.196C501.206 411.538 459.906 362.834 459.906 249.636Z" fill="white"/>
</mask>
<g mask="url(#mask45_86_353)">
<path d="M249.52 170.127H252.556V168.861H250.785L250.791 159.511H249.52V170.127Z" fill="#023436"/>
</g>
</g>
<mask id="mask46_86_353" style="mask-type:luminance" maskUnits="userSpaceOnUse" x="241" y="158" width="6" height="8">
<path d="M241.387 158.848H246.059V165.077H241.387V158.848Z" fill="white"/>
</mask>
<g mask="url(#mask46_86_353)">
<mask id="mask47_86_353" style="mask-type:luminance" maskUnits="userSpaceOnUse" x="24" y="7" width="443" height="507">
<path d="M459.906 249.636C459.906 129.295 490.292 7.95093 349.95 7.95093C209.601 7.95093 58.9475 137.137 58.9475 257.483C58.9475 328.622 -41.5066 497.781 101.178 453.281L144.163 462.041C144.163 464.7 102.236 440.391 169.165 466.154L363.735 503.305C366.971 503.876 363.108 516.724 363.108 513.306L372.452 422.196C501.206 411.538 459.906 362.834 459.906 249.636Z" fill="white"/>
</mask>
<g mask="url(#mask47_86_353)">
<path d="M244.361 163.715C243.437 163.715 242.676 162.954 242.676 162.03C242.676 161.105 243.437 160.344 244.361 160.344C245.292 160.344 246.053 161.105 246.053 162.03C246.053 162.954 245.292 163.715 244.361 163.715Z" fill="#023436"/>
</g>
</g>
<mask id="mask48_86_353" style="mask-type:luminance" maskUnits="userSpaceOnUse" x="91" y="249" width="51" height="163">
<path d="M91.8828 249.173H141.717V411.136H91.8828V249.173Z" fill="white"/>
</mask>
<g mask="url(#mask48_86_353)">
<mask id="mask49_86_353" style="mask-type:luminance" maskUnits="userSpaceOnUse" x="24" y="7" width="443" height="507">
<path d="M459.906 249.636C459.906 129.295 490.292 7.95091 349.95 7.95091C209.601 7.95091 58.9475 137.137 58.9475 257.483C58.9475 328.622 -41.5066 497.781 101.178 453.281L144.163 462.041C144.163 464.7 102.236 440.391 169.165 466.154L363.735 503.305C366.971 503.876 363.108 516.724 363.108 513.306L372.452 422.196C501.206 411.537 459.906 362.834 459.906 249.636Z" fill="white"/>
</mask>
<g mask="url(#mask49_86_353)">
<path d="M93.3728 334.79C93.8534 358.174 97.2418 381.401 106.677 396.804C132.781 439.466 140.318 369.264 140.318 369.264L139.977 367.883C141.614 352.772 139.15 335.654 136.218 321.34C135.725 318.925 135.214 316.595 134.715 314.362C130.895 297.457 127.421 283.739 120.632 267.855C119.671 265.598 118.661 263.408 117.627 261.413C117.511 261.188 117.384 260.945 117.268 260.719C113.32 253.322 108.904 248.413 104.292 250.049C103.952 250.165 103.611 250.311 103.264 250.506C102.851 250.743 102.449 250.937 102.072 251.096C101.616 251.29 101.178 251.442 100.782 251.564C93.1416 253.882 94.1697 252.872 95.4472 289.244C94.0724 302.895 93.0504 318.876 93.3728 334.79Z" fill="#F7C108"/>
</g>
</g>
<mask id="mask50_86_353" style="mask-type:luminance" maskUnits="userSpaceOnUse" x="63" y="221" width="56" height="55">
<path d="M63.8506 221.141H118.357V275.648H63.8506V221.141Z" fill="white"/>
</mask>
<g mask="url(#mask50_86_353)">
<mask id="mask51_86_353" style="mask-type:luminance" maskUnits="userSpaceOnUse" x="24" y="7" width="443" height="507">
<path d="M459.906 249.636C459.906 129.295 490.292 7.95093 349.95 7.95093C209.601 7.95093 58.9475 137.137 58.9475 257.483C58.9475 328.622 -41.5066 497.781 101.178 453.281L144.163 462.041C144.163 464.7 102.236 440.391 169.165 466.154L363.735 503.305C366.971 503.876 363.108 516.724 363.108 513.306L372.452 422.196C501.206 411.538 459.906 362.834 459.906 249.636Z" fill="white"/>
</mask>
<g mask="url(#mask51_86_353)">
<path d="M64.7388 227.212C64.7388 227.212 64.757 227.146 64.7692 227.115C64.9517 226.489 65.7669 226.422 66.0041 227.006C68.8754 234.087 72.9087 240.596 77.9031 246.119C78.1708 246.418 78.627 246.411 78.919 246.113C79.211 245.815 79.2293 245.329 78.9677 245.037C73.7604 239.27 69.6176 232.414 66.7828 224.943C66.6672 224.645 66.7706 224.292 67.0261 224.092C67.2147 223.934 67.4215 223.781 67.6284 223.635C67.9629 223.398 68.4009 223.526 68.5652 223.897C71.3757 230.291 75.6158 236.605 81.4071 243.017C81.6687 243.309 82.1249 243.309 82.4169 243.005C82.715 242.707 82.7333 242.22 82.4656 241.928C76.7899 235.644 72.641 229.475 69.8914 223.234C69.7271 222.857 69.9218 222.388 70.3111 222.248C70.743 222.09 71.1871 221.956 71.619 221.853C71.8928 221.786 72.1604 221.926 72.2943 222.175C75.4211 228.295 79.7038 235.218 84.7347 239.671C85.0328 239.933 85.489 239.878 85.7506 239.549C86.0122 239.215 85.9818 238.734 85.6898 238.473C81.2124 234.519 77.3313 228.508 74.3565 222.918C74.0645 222.37 74.5816 221.671 75.1413 221.871C77.2096 222.632 78.3411 225.667 79.6977 227.285C81.7721 229.755 83.9378 232.189 86.4745 234.141C86.5658 234.214 86.657 234.287 86.7544 234.36C95.2771 240.474 130.007 258.736 113.357 272.637C105.12 279.517 87.7034 265.817 81.0056 258.621C79.4604 256.96 77.9639 255.184 76.5465 253.316C71.7529 247.02 67.7744 239.659 65.414 232.097C65.0734 231.027 64.4103 228.46 64.7388 227.212Z" fill="#F7C108"/>
</g>
</g>
<mask id="mask52_86_353" style="mask-type:luminance" maskUnits="userSpaceOnUse" x="94" y="225" width="25" height="40">
<path d="M94.9976 225.813H118.358V264.747H94.9976V225.813Z" fill="white"/>
</mask>
<g mask="url(#mask52_86_353)">
<mask id="mask53_86_353" style="mask-type:luminance" maskUnits="userSpaceOnUse" x="24" y="7" width="443" height="507">
<path d="M459.907 249.636C459.907 129.295 490.293 7.95093 349.95 7.95093C209.602 7.95093 58.9479 137.137 58.9479 257.483C58.9479 328.622 -41.5061 497.781 101.178 453.281L144.163 462.041C144.163 464.7 102.237 440.391 169.166 466.154L363.735 503.305C366.971 503.876 363.109 516.724 363.109 513.306L372.453 422.196C501.206 411.538 459.907 362.834 459.907 249.636Z" fill="white"/>
</mask>
<g mask="url(#mask53_86_353)">
<path d="M116.472 253.073C115.918 251.491 115.231 249.964 114.403 248.516C112.353 244.952 109.458 242.208 105.881 240.225C102.918 238.588 100.892 235.23 99.5418 232.164C99.1342 231.24 98.8666 230.224 98.4407 229.299C97.7168 227.705 96.342 226.294 95.5512 227.943C94.8698 229.354 95.4842 232.25 95.8006 234.008C96.2082 236.252 96.7192 238.485 97.4492 240.632C98.5807 243.984 100.114 247.999 101.926 250.719C103.545 253.152 105.37 255.908 107.268 257.739C109.385 259.789 111.38 262.216 113.947 263.731C117.019 265.531 118.37 262.8 118.059 260.136C117.786 257.745 117.269 255.354 116.472 253.073Z" fill="#F7C108"/>
</g>
</g>
<mask id="mask54_86_353" style="mask-type:luminance" maskUnits="userSpaceOnUse" x="94" y="239" width="12" height="23">
<path d="M94.9976 239.829H105.899V261.632H94.9976V239.829Z" fill="white"/>
</mask>
<g mask="url(#mask54_86_353)">
<mask id="mask55_86_353" style="mask-type:luminance" maskUnits="userSpaceOnUse" x="24" y="7" width="443" height="507">
<path d="M459.907 249.636C459.907 129.295 490.293 7.95091 349.95 7.95091C209.602 7.95091 58.9479 137.137 58.9479 257.483C58.9479 328.622 -41.5061 497.781 101.178 453.281L144.163 462.041C144.163 464.7 102.237 440.391 169.166 466.154L363.735 503.305C366.971 503.876 363.109 516.724 363.109 513.306L372.453 422.196C501.206 411.537 459.907 362.834 459.907 249.636Z" fill="white"/>
</mask>
<g mask="url(#mask55_86_353)">
<path d="M103.825 260.355C94.2859 253.499 96.5245 240.669 96.5489 240.535L98.0819 240.815C98.0575 240.937 96.0014 252.817 104.737 259.095C105.072 259.333 105.157 259.801 104.932 260.148C104.688 260.519 104.183 260.616 103.825 260.355Z" fill="#FF8500"/>
</g>
</g>
<mask id="mask56_86_353" style="mask-type:luminance" maskUnits="userSpaceOnUse" x="238" y="180" width="23" height="34">
<path d="M238.272 180.651H260.075V213.355H238.272V180.651Z" fill="white"/>
</mask>
<g mask="url(#mask56_86_353)">
<mask id="mask57_86_353" style="mask-type:luminance" maskUnits="userSpaceOnUse" x="24" y="7" width="443" height="507">
<path d="M459.906 249.636C459.906 129.295 490.292 7.95093 349.95 7.95093C209.601 7.95093 58.9475 137.137 58.9475 257.483C58.9475 328.622 -41.5066 497.781 101.178 453.281L144.163 462.041C144.163 464.7 102.236 440.391 169.165 466.154L363.735 503.305C366.971 503.876 363.108 516.724 363.108 513.306L372.452 422.196C501.206 411.538 459.906 362.834 459.906 249.636Z" fill="white"/>
</mask>
<g mask="url(#mask57_86_353)">
<path d="M238.375 181.034V211.822L259.886 198.213C239.829 194.375 238.375 183.267 238.375 181.034Z" fill="#023436"/>
</g>
</g>
<mask id="mask58_86_353" style="mask-type:luminance" maskUnits="userSpaceOnUse" x="275" y="166" width="18" height="24">
<path d="M275.648 166.635H292.779V189.995H275.648V166.635Z" fill="white"/>
</mask>
<g mask="url(#mask58_86_353)">
<mask id="mask59_86_353" style="mask-type:luminance" maskUnits="userSpaceOnUse" x="24" y="7" width="443" height="507">
<path d="M459.906 249.636C459.906 129.295 490.292 7.95093 349.95 7.95093C209.601 7.95093 58.9475 137.137 58.9475 257.483C58.9475 328.622 -41.5066 497.781 101.178 453.281L144.163 462.041C144.163 464.7 102.236 440.391 169.165 466.154L363.735 503.305C366.971 503.876 363.108 516.724 363.108 513.306L372.452 422.196C501.206 411.538 459.906 362.834 459.906 249.636Z" fill="white"/>
</mask>
<g mask="url(#mask59_86_353)">
<path d="M276.944 178.668V182.111C276.944 186.059 280.15 189.259 284.098 189.259C288.052 189.259 291.252 186.059 291.252 182.111V167.547L276.944 178.668Z" fill="#023436"/>
</g>
</g>
<mask id="mask60_86_353" style="mask-type:luminance" maskUnits="userSpaceOnUse" x="266" y="161" width="21" height="22">
<path d="M266.304 161.963H286.55V182.208H266.304V161.963Z" fill="white"/>
</mask>
<g mask="url(#mask60_86_353)">
<mask id="mask61_86_353" style="mask-type:luminance" maskUnits="userSpaceOnUse" x="24" y="7" width="443" height="507">
<path d="M459.907 249.636C459.907 129.295 490.293 7.95093 349.95 7.95093C209.602 7.95093 58.9479 137.137 58.9479 257.483C58.9479 328.622 -41.5061 497.781 101.178 453.281L144.163 462.041C144.163 464.7 102.237 440.391 169.166 466.154L363.735 503.305C366.971 503.876 363.109 516.724 363.109 513.306L372.453 422.196C501.206 411.538 459.907 362.834 459.907 249.636Z" fill="white"/>
</mask>
<g mask="url(#mask61_86_353)">
<path d="M280.959 164.512C281.47 164.81 281.951 165.15 282.395 165.546C282.845 165.935 283.246 166.367 283.605 166.835C283.97 167.304 284.281 167.809 284.542 168.338C284.804 168.873 285.011 169.427 285.169 169.999C285.321 170.571 285.418 171.155 285.455 171.745C285.497 172.335 285.473 172.925 285.4 173.515C285.321 174.099 285.187 174.677 284.998 175.237C284.804 175.796 284.56 176.338 284.262 176.849C283.97 177.366 283.624 177.84 283.234 178.29C282.839 178.734 282.413 179.136 281.939 179.501C281.47 179.86 280.965 180.17 280.436 180.432C279.901 180.693 279.353 180.906 278.775 181.058C278.203 181.21 277.619 181.308 277.029 181.344C276.439 181.387 275.849 181.362 275.259 181.289C274.669 181.21 274.097 181.077 273.531 180.888C272.972 180.693 272.436 180.45 271.919 180.158C271.408 179.86 270.928 179.513 270.478 179.124C270.033 178.734 269.632 178.303 269.267 177.834C268.908 177.36 268.598 176.861 268.336 176.332C268.069 175.796 267.862 175.243 267.71 174.671C267.558 174.099 267.46 173.515 267.424 172.925C267.381 172.335 267.399 171.745 267.478 171.155C267.558 170.565 267.691 169.993 267.88 169.433C268.075 168.867 268.318 168.332 268.61 167.821C268.908 167.304 269.255 166.823 269.644 166.379C270.033 165.935 270.465 165.528 270.94 165.169C271.408 164.81 271.907 164.499 272.442 164.232C272.972 163.97 273.525 163.763 274.097 163.611C274.675 163.459 275.253 163.362 275.849 163.325C276.439 163.283 277.029 163.301 277.619 163.38C278.203 163.459 278.781 163.593 279.341 163.782C279.907 163.97 280.442 164.214 280.959 164.512Z" fill="#F8C208"/>
</g>
</g>
<mask id="mask62_86_353" style="mask-type:luminance" maskUnits="userSpaceOnUse" x="272" y="168" width="9" height="8">
<path d="M272.533 168.192H280.32V175.979H272.533V168.192Z" fill="white"/>
</mask>
<g mask="url(#mask62_86_353)">
<mask id="mask63_86_353" style="mask-type:luminance" maskUnits="userSpaceOnUse" x="24" y="7" width="443" height="507">
<path d="M459.906 249.636C459.906 129.295 490.292 7.95093 349.95 7.95093C209.601 7.95093 58.9475 137.137 58.9475 257.483C58.9475 328.622 -41.5066 497.781 101.178 453.281L144.163 462.041C144.163 464.7 102.236 440.391 169.165 466.154L363.735 503.305C366.971 503.876 363.108 516.724 363.108 513.306L372.452 422.196C501.206 411.538 459.906 362.834 459.906 249.636Z" fill="white"/>
</mask>
<g mask="url(#mask63_86_353)">
<path d="M275.35 174.075C275.07 172.018 276.858 169.226 279.158 169.981C280.046 170.266 280.442 168.879 279.559 168.587C276.116 167.468 273.525 171.343 273.951 174.427C274.078 175.346 275.478 174.987 275.35 174.075Z" fill="#023436"/>
</g>
</g>
</svg>
