<svg xmlns="http://www.w3.org/2000/svg" xmlns:xlink="http://www.w3.org/1999/xlink" width="500" zoomAndPan="magnify" viewBox="0 0 375 374.999991" height="500" preserveAspectRatio="xMidYMid meet" version="1.0"><defs><clipPath id="4db5e16d11"><path d="M 59 0 L 215 0 L 215 374.960938 L 59 374.960938 Z M 59 0 " clip-rule="nonzero"/></clipPath><clipPath id="344e00eeeb"><path d="M 169.3125 132 L 315.929688 132 L 315.929688 304 L 169.3125 304 Z M 169.3125 132 " clip-rule="nonzero"/></clipPath><clipPath id="b6c86bebc9"><path d="M 58.828125 54 L 177 54 L 177 188 L 58.828125 188 Z M 58.828125 54 " clip-rule="nonzero"/></clipPath><clipPath id="a631ff4934"><path d="M 79.546875 176 L 164.636719 176 L 164.636719 374.960938 L 79.546875 374.960938 Z M 79.546875 176 " clip-rule="nonzero"/></clipPath><clipPath id="55bacee3ae"><path d="M 190 132 L 315.929688 132 L 315.929688 298 L 190 298 Z M 190 132 " clip-rule="nonzero"/></clipPath></defs><g clip-path="url(#4db5e16d11)"><path fill="#ff4f11" d="M 114.566406 47.425781 C 114.597656 47.394531 114.628906 47.367188 114.660156 47.332031 C 114.566406 47.488281 114.488281 47.644531 114.425781 47.800781 C 114.425781 47.707031 114.425781 47.628906 114.425781 47.566406 C 114.488281 47.503906 114.535156 47.457031 114.566406 47.425781 Z M 130.835938 70.296875 C 130.835938 70.421875 131.085938 70.6875 131.582031 71.09375 C 132.363281 71.652344 133.5 72.730469 134.996094 74.320312 C 134 74.257812 133.019531 74.054688 132.050781 73.710938 C 127.75 72.339844 123.660156 70.859375 119.355469 69.265625 C 118.421875 68.644531 116.949219 68.144531 116.015625 67.773438 C 116.015625 67.800781 116.015625 67.847656 116.015625 67.910156 C 115.078125 67.882812 115.679688 67.847656 115.617188 67.820312 C 114.964844 64.636719 114.953125 61.425781 115.792969 58.183594 L 116.765625 57.433594 C 116.738281 57.71875 116.695312 57.964844 116.695312 58.183594 C 116.695312 60.488281 118.457031 62.71875 122.011719 64.871094 C 124.941406 66.679688 128.410156 67.847656 132.429688 68.378906 C 131.996094 68.660156 131.679688 68.878906 131.496094 69.03125 C 130.964844 69.472656 130.742188 69.890625 130.835938 70.296875 Z M 146.824219 118.421875 C 150.160156 118.828125 153.480469 119.4375 156.785156 120.246094 C 160.554688 121.308594 164.328125 122.335938 168.097656 123.332031 C 172.117188 124.550781 176.324219 125.359375 180.71875 125.765625 C 183.402344 126.015625 186.050781 126.078125 188.667969 125.953125 C 189.820312 126.046875 190.914062 126.03125 191.941406 125.90625 C 193.410156 125.6875 194.65625 125.113281 195.679688 124.175781 C 197.582031 122.988281 199.0625 121.242188 200.121094 118.9375 C 202.121094 114.570312 201.824219 110.394531 199.234375 106.40625 C 198.394531 105.28125 197.347656 104.316406 196.101562 103.503906 C 194.386719 101.164062 191.894531 98.609375 188.621094 95.835938 C 185.785156 93.433594 181.4375 90.097656 175.578125 85.828125 C 175.796875 85.324219 175.933594 84.796875 175.996094 84.234375 C 176.4375 83.765625 176.71875 83.40625 176.839844 83.160156 C 176.964844 83 177.054688 82.847656 177.121094 82.691406 C 177.214844 82.566406 177.289062 82.457031 177.355469 82.363281 C 180.003906 82.085938 181.703125 81.878906 182.453125 81.753906 C 183.042969 81.695312 183.730469 81.535156 184.507812 81.289062 L 192.457031 85.683594 C 193.734375 86.398438 194.839844 86.324219 195.777344 85.449219 L 195.960938 85.542969 L 214.195312 56.21875 C 214.257812 56.128906 214.304688 56.167969 214.335938 56.105469 L 214.476562 55.992188 L 214.429688 55.992188 C 215.148438 54.121094 214.757812 53.269531 213.261719 52.457031 L 200.21875 45.148438 C 198.71875 44.335938 197.472656 44.539062 196.476562 45.820312 L 196.429688 45.757812 L 195.214844 47.714844 C 193.128906 51.082031 191.023438 54.460938 188.902344 57.859375 L 186.472656 61.789062 L 186.191406 62.160156 C 186.035156 62.191406 185.878906 62.238281 185.722656 62.296875 C 185.628906 62.332031 185.519531 62.375 185.394531 62.441406 C 184.679688 62.691406 184.382812 62.765625 184.507812 62.675781 C 182.734375 62.953125 181.667969 63.109375 181.328125 63.144531 C 179.460938 63.359375 178.121094 63.625 177.308594 63.9375 C 176.964844 64.21875 176.214844 64.746094 175.0625 65.523438 L 175.019531 65.574219 C 174.953125 65.605469 174.890625 65.648438 174.828125 65.714844 C 173.769531 66.371094 172.976562 66.976562 172.445312 67.539062 C 171.726562 69.003906 171.136719 70.703125 170.667969 72.636719 C 170.578125 72.601562 170.480469 72.574219 170.386719 72.539062 C 166.054688 71.480469 161.722656 71.390625 157.390625 72.261719 C 157.144531 72.292969 156.910156 72.339844 156.691406 72.402344 C 153.105469 69.410156 149.222656 66.183594 145.050781 62.71875 C 140.839844 59.257812 138.703125 57.53125 138.640625 57.53125 C 138.640625 57.558594 138.503906 58.011719 138.222656 58.886719 C 137.753906 57.765625 137.253906 56.6875 136.726562 55.660156 C 136.257812 54.722656 135.761719 53.804688 135.230469 52.898438 C 132.515625 48.253906 129.964844 45.398438 127.5625 44.339844 C 129.183594 41.09375 130.320312 37.355469 130.976562 33.113281 C 130.976562 33.054688 130.976562 32.992188 130.976562 32.929688 C 130.976562 32.867188 130.976562 32.804688 130.976562 32.742188 C 131.003906 32.585938 131.050781 32.429688 131.113281 32.273438 C 131.554688 28.90625 131.644531 26.222656 131.394531 24.230469 C 131.457031 24.105469 131.519531 23.980469 131.582031 23.855469 C 132.300781 22.234375 132.738281 20.941406 132.894531 19.972656 C 133.078125 19.035156 133.453125 18.210938 134.015625 17.496094 C 134.542969 16.652344 135.011719 15.96875 135.417969 15.4375 C 135.851562 14.875 136.179688 14.078125 136.398438 13.050781 L 136.679688 10.382812 L 133.359375 10.246094 L 134.25 5.753906 C 134.433594 4.007812 134.296875 2.542969 133.828125 1.359375 C 133.765625 1.328125 133.734375 1.328125 133.734375 1.359375 C 133.640625 1.359375 133.5625 1.339844 133.5 1.3125 C 132.441406 1.339844 131.273438 1.640625 129.992188 2.199219 C 129.992188 2.261719 128.824219 2.902344 126.488281 4.117188 L 124.617188 0.00390625 C 124.554688 0.00390625 124.492188 0.0195312 124.429688 0.046875 C 123.246094 0.300781 121.886719 0.796875 120.363281 1.546875 C 119.019531 2.171875 117.996094 2.636719 117.277344 2.949219 L 113.304688 2.902344 C 113.148438 2.902344 113.003906 2.886719 112.882812 2.855469 L 111.246094 2.808594 C 111.089844 2.839844 110.949219 2.871094 110.824219 2.902344 C 110.605469 2.933594 110.417969 2.996094 110.265625 3.085938 C 109.640625 3.339844 108.953125 3.699219 108.207031 4.164062 C 107.269531 4.785156 106.632812 5.191406 106.292969 5.382812 L 103.765625 6.035156 C 102.738281 6.316406 101.925781 6.644531 101.335938 7.019531 C 98.1875 9.136719 96.128906 10.527344 95.164062 11.179688 C 92.859375 12.832031 90.941406 14.394531 89.414062 15.859375 C 86.546875 19.070312 84.484375 21.984375 83.242188 24.601562 C 82.214844 26.753906 81.660156 28.859375 81.441406 30.914062 L 81.417969 30.871094 C 81.417969 31.023438 81.417969 31.210938 81.417969 31.429688 L 81.417969 34.65625 C 81.417969 34.71875 81.390625 34.800781 81.488281 34.890625 C 81.453125 34.953125 81.421875 35 81.453125 35.035156 C 81.515625 35.5 81.589844 35.96875 81.71875 36.4375 C 81.71875 36.464844 81.722656 36.511719 81.753906 36.574219 C 81.878906 37.136719 82.011719 37.695312 82.171875 38.261719 C 83.386719 41.90625 85.410156 45.027344 88.246094 47.613281 C 89.835938 50.886719 90.457031 54.332031 90.113281 57.949219 C 90.113281 58.011719 90.101562 58.058594 90.066406 58.089844 C 86.574219 57.03125 82.976562 56.128906 79.265625 55.378906 C 72.410156 53.914062 67.722656 54.378906 65.191406 56.78125 C 62.703125 59.210938 61.03125 61.566406 60.191406 63.84375 C 59.382812 66.085938 59.140625 69.5 59.140625 74.085938 C 59.140625 77.328125 59.910156 79.996094 61.78125 82.085938 C 61.78125 82.863281 61.78125 83.65625 61.78125 84.46875 C 61.78125 89.019531 62.335938 93.855469 63.769531 98.964844 C 64.703125 101.710938 66.554688 106.171875 69.484375 112.34375 C 72.132812 117.953125 73.964844 122.445312 75.054688 125.8125 C 75.117188 126.152344 75.171875 126.484375 75.265625 126.792969 C 75.890625 130.039062 76.425781 133.265625 76.890625 136.476562 C 77.359375 139.625 77.679688 142.804688 77.871094 146.015625 C 77.933594 146.859375 77.945312 147.734375 77.914062 148.636719 C 77.851562 152.660156 77.757812 156.726562 77.632812 160.84375 C 77.601562 161.375 77.617188 161.917969 77.675781 162.480469 C 77.617188 162.855469 77.554688 163.246094 77.492188 163.648438 C 76.804688 165.207031 76.335938 166.972656 76.089844 168.933594 C 75.746094 171.863281 75.402344 174.8125 75.058594 177.773438 C 73.8125 188.8125 74.949219 199.601562 78.472656 210.140625 C 78.972656 211.695312 79.328125 213.304688 79.546875 214.953125 C 81.109375 226.371094 80.042969 237.484375 76.371094 248.304688 C 74.46875 253.945312 72.941406 259.652344 71.785156 265.421875 C 70.539062 271.875 70.570312 278.34375 71.882812 284.828125 C 74 295.460938 75.730469 306.140625 77.070312 316.863281 C 77.972656 324.007812 78.738281 331.101562 79.363281 338.144531 C 79.515625 339.769531 80.152344 341.15625 81.277344 342.3125 C 81.339844 342.371094 81.402344 342.449219 81.464844 342.542969 C 81.339844 343.507812 81.167969 344.632812 80.949219 345.910156 C 80.765625 347.40625 80.703125 348.6875 80.765625 349.746094 C 80.359375 350.433594 80.109375 351.273438 80.015625 352.269531 C 79.921875 353.488281 79.96875 355 80.152344 356.808594 C 81.121094 357.964844 82.476562 358.820312 84.222656 359.382812 C 85.28125 359.722656 86.871094 360.050781 88.992188 360.359375 C 92.515625 360.921875 96.238281 359.226562 100.167969 355.265625 C 100.601562 354.859375 100.976562 354.046875 101.289062 352.835938 C 101.445312 352.238281 101.632812 351.742188 101.851562 351.335938 C 102.222656 353.144531 102.738281 354.53125 103.390625 355.496094 C 103.671875 355.902344 103.9375 356.292969 104.1875 356.667969 C 103.75 358.570312 103.53125 360.347656 103.53125 361.996094 C 103.59375 363.402344 103.75 364.464844 103.996094 365.179688 L 103.488281 365.414062 C 103.609375 366.226562 103.59375 367.785156 103.4375 370.089844 C 103.5 371.929688 104.265625 373.097656 105.730469 373.597656 C 108.441406 374.6875 111.539062 375.125 115.03125 374.90625 C 117.308594 374.78125 120.457031 374.316406 124.476562 373.503906 L 125.316406 370.648438 C 127.9375 370.089844 131.816406 369.746094 136.957031 369.625 C 142.164062 369.527344 146.046875 369.21875 148.601562 368.6875 C 155.925781 367.65625 161.117188 365.242188 164.171875 361.4375 C 164.511719 360.441406 164.652344 359.488281 164.589844 358.585938 C 164.527344 358.179688 164.417969 357.820312 164.265625 357.511719 C 164.417969 357.074219 164.527344 356.589844 164.589844 356.058594 C 164.746094 354.4375 164.34375 353.066406 163.375 351.941406 C 162.4375 350.601562 160.648438 349.792969 157.996094 349.511719 L 144.90625 347.96875 C 143.847656 347.875 142.742188 347.59375 141.589844 347.125 C 140.71875 346.816406 139.6875 346.363281 138.503906 345.769531 L 134.761719 344.179688 C 134.324219 338.164062 134.015625 332.144531 133.828125 326.128906 C 133.238281 308.605469 135.527344 291.609375 140.699219 275.148438 C 145.78125 259.152344 149.472656 242.832031 151.78125 226.179688 C 154.085938 209.589844 152.964844 193.066406 148.414062 176.601562 C 149.003906 174.765625 149.304688 172.816406 149.304688 170.757812 C 149.304688 169.480469 149.148438 167.59375 148.835938 165.101562 C 148.804688 164.476562 148.757812 163.851562 148.695312 163.230469 C 147.917969 157.117188 146.605469 151.132812 144.769531 145.269531 C 143.707031 141.964844 143.628906 138.613281 144.535156 135.210938 C 146.03125 129.601562 146.796875 124.003906 146.824219 118.421875 " fill-opacity="1" fill-rule="evenodd"/></g><g clip-path="url(#344e00eeeb)"><path fill="#ff4f11" d="M 298.632812 185.539062 C 287.035156 165.335938 272.839844 150.324219 256.039062 140.6875 C 243.882812 133.707031 233.019531 130.824219 223.453125 132.695312 L 223.40625 132.695312 C 220.820312 133.628906 218.324219 134.109375 215.925781 135.261719 L 190.117188 150.085938 C 189.183594 150.492188 188.308594 150.953125 187.5 151.421875 C 187.03125 151.703125 186.5625 152.039062 186.097656 152.414062 C 175.125 159.367188 169.574219 172.125 169.453125 190.679688 C 169.296875 209.976562 175.03125 229.777344 186.660156 250.078125 C 198.28125 270.28125 212.464844 285.199219 229.203125 294.835938 C 244.941406 303.878906 258.5 305.660156 269.878906 300.171875 C 270.628906 299.855469 271.386719 299.5 272.167969 299.09375 C 272.949219 298.625 273.667969 298.15625 274.320312 297.691406 C 290.964844 288.246094 299.472656 283.347656 299.847656 283.003906 C 302.0625 281.539062 304.054688 279.8125 305.832031 277.816406 C 312.40625 270.390625 315.773438 259.464844 315.929688 245.03125 C 316.054688 225.695312 310.289062 205.867188 298.632812 185.539062 " fill-opacity="1" fill-rule="evenodd"/></g><path fill="#65ffe4" d="M 191.566406 66.742188 C 191.503906 66.652344 191.410156 66.570312 191.285156 66.507812 C 191.132812 66.445312 190.972656 66.398438 190.820312 66.371094 C 190.847656 66.371094 190.882812 66.371094 190.914062 66.371094 C 191.753906 65.683594 192.097656 64.84375 191.941406 63.84375 C 192.628906 63.09375 193.25 62.3125 193.8125 61.507812 C 193.9375 61.316406 194.042969 61.144531 194.140625 60.992188 C 194.699219 59.929688 195.433594 58.996094 196.335938 58.183594 C 196.367188 58.621094 196.320312 59.023438 196.195312 59.402344 C 196.101562 59.679688 195.992188 59.929688 195.867188 60.148438 C 194.902344 61.394531 193.953125 62.640625 193.019531 63.886719 C 192.457031 64.609375 192.050781 65.351562 191.800781 66.136719 C 191.707031 66.320312 191.628906 66.523438 191.566406 66.742188 Z M 200.265625 52.058594 C 200.574219 51.683594 200.683594 51.277344 200.589844 50.839844 C 200.558594 50.40625 200.355469 50.046875 199.984375 49.765625 C 199.578125 49.484375 199.140625 49.375 198.671875 49.4375 C 198.203125 49.5 197.8125 49.71875 197.503906 50.089844 C 197.226562 50.46875 197.113281 50.875 197.179688 51.308594 C 197.242188 51.746094 197.472656 52.105469 197.878906 52.386719 C 198.253906 52.664062 198.65625 52.773438 199.097656 52.710938 C 199.59375 52.648438 199.984375 52.429688 200.265625 52.058594 Z M 196.476562 45.789062 L 214.429688 55.75 L 214.476562 55.75 L 214.335938 55.984375 C 214.304688 56.046875 214.257812 56.128906 214.195312 56.21875 L 195.960938 85.542969 L 195.777344 85.449219 L 180.113281 76.796875 C 181.328125 76.363281 182.933594 75.425781 184.929688 73.992188 C 185.050781 73.898438 185.160156 73.804688 185.257812 73.710938 C 185.941406 73.242188 186.535156 72.835938 187.03125 72.496094 C 187.125 72.429688 187.203125 72.367188 187.265625 72.308594 C 188.199219 71.777344 188.976562 71.390625 189.601562 71.136719 C 189.480469 71.292969 189.335938 71.453125 189.183594 71.605469 C 188.714844 72.105469 188.308594 72.664062 187.964844 73.289062 C 187.875 73.507812 187.796875 73.742188 187.734375 73.992188 C 187.515625 75.050781 187.1875 76.082031 186.75 77.078125 C 186.75 77.109375 186.734375 77.140625 186.707031 77.171875 C 186.238281 77.574219 185.675781 77.855469 185.023438 78.015625 C 184.960938 78.078125 184.988281 78.152344 185.113281 78.246094 C 185.519531 78.589844 186.003906 78.839844 186.5625 78.996094 C 186.785156 79.058594 186.941406 79.011719 187.03125 78.855469 C 187.34375 78.480469 187.578125 78.078125 187.734375 77.640625 C 187.796875 77.546875 187.84375 77.453125 187.875 77.359375 C 188.0625 76.832031 188.34375 76.328125 188.714844 75.863281 C 189.210938 75.269531 189.679688 74.644531 190.117188 73.992188 C 190.242188 73.804688 190.382812 73.601562 190.539062 73.382812 C 191.90625 71.074219 193.371094 68.816406 194.933594 66.601562 C 193.5625 69.285156 192.015625 71.886719 190.304688 74.410156 C 190.089844 74.789062 189.882812 75.160156 189.699219 75.535156 C 189.417969 76.15625 189.089844 76.769531 188.714844 77.359375 C 188.652344 77.453125 188.5625 77.546875 188.433594 77.640625 C 188.03125 77.917969 187.765625 78.277344 187.640625 78.714844 C 187.484375 78.839844 187.40625 78.996094 187.40625 79.183594 C 187.40625 79.210938 187.4375 79.261719 187.5 79.320312 C 187.90625 79.851562 188.480469 80.179688 189.230469 80.304688 C 189.203125 80.179688 189.164062 80.023438 189.136719 79.835938 C 189.074219 79.492188 189.042969 79.152344 189.042969 78.8125 C 189.074219 78.683594 189.136719 78.578125 189.230469 78.480469 C 189.730469 77.796875 190.324219 77.203125 191.003906 76.707031 C 191.503906 76.269531 191.957031 75.800781 192.359375 75.304688 C 192.550781 75.113281 192.671875 74.898438 192.738281 74.644531 C 193.140625 73.460938 193.761719 72.355469 194.605469 71.328125 C 194.765625 71.171875 194.917969 71.027344 195.074219 70.902344 C 196.167969 69.9375 197.113281 68.859375 197.925781 67.675781 C 198.113281 67.457031 198.28125 67.210938 198.4375 66.929688 C 199.0625 65.585938 199.71875 64.265625 200.402344 62.953125 C 200.777344 62.207031 201.355469 61.644531 202.136719 61.273438 C 202.039062 61.675781 201.914062 62.066406 201.757812 62.441406 C 201.667969 62.691406 201.542969 62.921875 201.386719 63.144531 C 200.421875 64.574219 199.640625 66.054688 199.046875 67.585938 C 198.828125 67.710938 198.613281 67.835938 198.394531 67.957031 C 197.679688 68.425781 197.300781 69.050781 197.269531 69.828125 C 197.363281 69.953125 197.488281 70.03125 197.644531 70.0625 C 197.894531 70.1875 198.128906 70.171875 198.347656 70.015625 C 198.847656 69.765625 199.1875 69.390625 199.375 68.894531 C 199.4375 68.769531 199.515625 68.644531 199.605469 68.519531 C 200.789062 67.179688 201.742188 65.714844 202.460938 64.121094 C 202.554688 63.9375 202.660156 63.734375 202.789062 63.515625 C 203.320312 62.765625 203.757812 61.988281 204.097656 61.175781 C 204.164062 60.957031 204.253906 60.785156 204.378906 60.660156 C 204.941406 59.851562 205.125 58.976562 204.941406 58.042969 C 204.96875 57.980469 204.941406 57.917969 204.84375 57.855469 C 204.222656 57.203125 203.648438 56.5 203.113281 55.75 C 203.207031 55.34375 203.425781 55.003906 203.769531 54.722656 C 203.929688 54.566406 204.097656 54.441406 204.28125 54.347656 C 204.691406 54.191406 204.941406 53.925781 205.03125 53.554688 L 204.894531 53.507812 C 205.078125 53.320312 205.21875 53.101562 205.3125 52.851562 C 205.40625 52.601562 205.40625 52.351562 205.3125 52.105469 C 205.097656 51.382812 204.582031 51.027344 203.769531 51.027344 C 203.523438 50.996094 203.304688 51.042969 203.113281 51.167969 C 202.710938 51.355469 202.425781 51.664062 202.273438 52.105469 L 202.179688 52.058594 C 201.902344 52.277344 201.777344 52.554688 201.804688 52.898438 C 201.835938 53.554688 201.601562 54.148438 201.105469 54.675781 C 200.421875 54.707031 199.75 54.613281 199.097656 54.394531 C 198.628906 54.238281 198.175781 54.269531 197.738281 54.492188 C 196.992188 54.800781 196.402344 55.285156 195.960938 55.9375 C 195.867188 56.0625 195.777344 56.191406 195.679688 56.3125 C 195.179688 56.90625 194.730469 57.53125 194.324219 58.183594 C 194.265625 58.308594 194.1875 58.433594 194.09375 58.558594 C 192.96875 60.023438 192.007812 61.550781 191.191406 63.144531 C 190.972656 63.542969 190.738281 63.90625 190.492188 64.21875 C 190.179688 64.652344 190.023438 65.105469 190.023438 65.574219 C 190.089844 65.976562 190.257812 66.226562 190.539062 66.320312 C 189.601562 66.199219 188.453125 66.480469 187.078125 67.164062 C 185.269531 68.128906 183.867188 68.425781 182.871094 68.054688 C 182.777344 68.054688 182.683594 68.035156 182.589844 68.007812 L 186.472656 61.785156 L 188.902344 57.855469 C 191.023438 54.457031 193.128906 51.074219 195.214844 47.707031 L 196.429688 45.742188 L 196.476562 45.789062 " fill-opacity="1" fill-rule="evenodd"/><path fill="#006670" d="M 196.476562 45.789062 C 197.472656 44.511719 198.71875 44.277344 200.21875 45.089844 L 213.261719 52.339844 C 214.757812 53.148438 215.148438 54.285156 214.429688 55.75 Z M 195.777344 85.449219 C 194.839844 86.324219 193.734375 86.398438 192.457031 85.683594 L 184.507812 81.289062 L 179.414062 78.433594 C 178.851562 78.125 178.445312 77.78125 178.195312 77.40625 C 179.070312 77.125 179.695312 76.921875 180.066406 76.796875 L 180.113281 76.796875 Z M 182.589844 68.007812 L 182.542969 68.007812 L 186.191406 62.160156 L 186.472656 61.785156 L 182.589844 68.007812 " fill-opacity="1" fill-rule="evenodd"/><path fill="#471908" d="M 110.824219 2.902344 C 110.949219 2.871094 111.089844 2.839844 111.246094 2.808594 L 112.882812 2.855469 C 113.003906 2.886719 113.148438 2.902344 113.304688 2.902344 L 117.277344 2.949219 C 117.152344 3.136719 116.703125 3.402344 115.921875 3.746094 C 115.109375 4.054688 114.550781 4.164062 114.238281 4.070312 C 112.992188 3.726562 111.855469 3.339844 110.824219 2.902344 Z M 133.359375 10.246094 C 132.457031 10.398438 131.738281 10.417969 131.210938 10.292969 C 131.050781 10.226562 130.960938 10.183594 130.929688 10.152344 C 130.929688 10.058594 130.960938 9.917969 131.023438 9.730469 C 131.304688 8.734375 131.628906 7.269531 132.003906 5.335938 C 132.378906 3.835938 132.875 2.496094 133.5 1.3125 C 133.5625 1.339844 133.640625 1.359375 133.734375 1.359375 C 133.734375 1.328125 133.765625 1.328125 133.828125 1.359375 C 134.296875 2.542969 134.433594 4.007812 134.25 5.753906 Z M 124.429688 0.046875 C 124.492188 0.0195312 124.554688 0.00390625 124.617188 0.00390625 L 126.488281 4.117188 C 126.769531 4.023438 126.753906 4.101562 126.4375 4.351562 C 126.160156 4.539062 125.929688 4.710938 125.738281 4.867188 C 125.523438 4.992188 124.851562 5.082031 123.730469 5.148438 C 124.257812 4.648438 124.476562 3.726562 124.382812 2.386719 C 124.292969 1.386719 124.304688 0.609375 124.429688 0.046875 " fill-opacity="1" fill-rule="evenodd"/><path fill="#834226" d="M 133.359375 10.246094 L 136.679688 10.382812 C 134.53125 11.601562 132.90625 13.472656 131.816406 15.996094 C 131.257812 17.214844 130.710938 18.320312 130.179688 19.316406 C 129.027344 21.53125 127.964844 23.21875 127 24.367188 C 126.628906 24.867188 126.253906 25.257812 125.878906 25.535156 C 124.914062 26.285156 123.949219 27.003906 122.980469 27.6875 C 120.394531 29.53125 117.851562 31.058594 115.359375 32.273438 C 114.738281 32.550781 114.097656 32.832031 113.445312 33.113281 C 112.476562 33.519531 111.511719 33.878906 110.542969 34.1875 C 103.253906 36.589844 95.898438 36.746094 88.476562 34.65625 C 85.609375 33.878906 83.335938 32.742188 81.652344 31.246094 C 81.558594 31.121094 81.464844 31.011719 81.371094 30.914062 C 81.589844 28.859375 82.214844 26.753906 83.242188 24.601562 C 84.484375 21.984375 86.546875 19.070312 89.414062 15.859375 C 90.941406 14.394531 92.859375 12.832031 95.164062 11.179688 C 96.128906 10.527344 98.1875 9.136719 101.335938 7.019531 C 101.925781 6.644531 102.738281 6.316406 103.765625 6.035156 L 106.292969 5.382812 C 106.632812 5.191406 107.269531 4.785156 108.207031 4.164062 C 108.953125 3.699219 109.640625 3.339844 110.265625 3.085938 C 110.417969 2.996094 110.605469 2.933594 110.824219 2.902344 C 111.855469 3.339844 112.992188 3.726562 114.238281 4.070312 C 114.550781 4.164062 115.109375 4.054688 115.921875 3.746094 C 116.703125 3.402344 117.152344 3.136719 117.277344 2.949219 C 117.996094 2.636719 119.019531 2.171875 120.363281 1.546875 C 121.886719 0.796875 123.246094 0.300781 124.429688 0.046875 C 124.304688 0.609375 124.292969 1.386719 124.382812 2.386719 C 124.476562 3.726562 124.257812 4.648438 123.730469 5.148438 C 124.851562 5.082031 125.523438 4.992188 125.738281 4.867188 C 125.929688 4.710938 126.160156 4.539062 126.4375 4.351562 C 126.753906 4.101562 126.769531 4.023438 126.488281 4.117188 C 128.824219 2.902344 129.992188 2.261719 129.992188 2.199219 C 131.273438 1.640625 132.441406 1.339844 133.5 1.3125 C 132.875 2.496094 132.378906 3.835938 132.003906 5.335938 C 131.628906 7.269531 131.304688 8.734375 131.023438 9.730469 C 130.960938 9.917969 130.929688 10.058594 130.929688 10.152344 C 130.960938 10.183594 131.050781 10.226562 131.210938 10.292969 C 131.738281 10.417969 132.457031 10.398438 133.359375 10.246094 " fill-opacity="1" fill-rule="evenodd"/><path fill="#d97750" d="M 118.257812 46.773438 C 118.167969 46.925781 118.042969 47.085938 117.886719 47.242188 C 117.417969 47.738281 117.136719 48.191406 117.046875 48.597656 C 116.917969 48.941406 116.933594 49.359375 117.089844 49.855469 C 117.308594 50.605469 117.445312 51.121094 117.511719 51.402344 C 117.542969 51.496094 117.554688 51.554688 117.554688 51.589844 C 117.402344 51.746094 117.214844 51.851562 116.996094 51.917969 C 116.875 51.949219 116.730469 51.960938 116.578125 51.960938 C 115.828125 51.371094 115.453125 50.730469 115.453125 50.046875 C 115.421875 49.796875 115.53125 49.203125 115.78125 48.269531 C 116.0625 47.367188 116.277344 46.800781 116.433594 46.582031 C 116.46875 46.519531 116.496094 46.472656 116.53125 46.445312 C 116.964844 45.945312 117.605469 45.851562 118.449219 46.164062 C 118.476562 46.347656 118.414062 46.554688 118.257812 46.773438 Z M 114.425781 47.566406 C 114.425781 47.628906 114.425781 47.707031 114.425781 47.800781 C 114.113281 48.488281 113.972656 49.21875 114.007812 50 C 114.035156 51.183594 114.222656 52.070312 114.566406 52.664062 C 114.722656 53.039062 114.910156 53.351562 115.128906 53.597656 C 114.316406 54.816406 113.816406 55.859375 113.628906 56.734375 C 115.15625 57.605469 116.765625 57.605469 118.449219 56.734375 C 119.191406 56.359375 119.894531 55.894531 120.550781 55.332031 L 120.550781 55.285156 C 120.550781 55.222656 120.582031 55.171875 120.644531 55.144531 C 121.515625 54.023438 122.375 52.820312 123.214844 51.542969 C 123.496094 53.695312 124.476562 55.6875 126.160156 57.53125 C 127.46875 58.996094 129.367188 60.804688 131.863281 62.953125 C 132.957031 63.921875 134.152344 64.964844 135.464844 66.085938 L 134.855469 66.882812 C 133.828125 67.503906 133.019531 68.007812 132.425781 68.378906 C 128.40625 67.847656 124.925781 66.679688 121.996094 64.871094 C 118.449219 62.71875 116.667969 60.488281 116.667969 58.183594 C 116.667969 57.964844 116.683594 57.71875 116.714844 57.433594 L 115.6875 58.183594 C 114.847656 61.425781 114.75 64.636719 115.410156 67.820312 C 115.5 68.289062 115.609375 68.753906 115.734375 69.222656 L 115.78125 69.5 L 114.613281 70.390625 C 113.738281 68.894531 112.710938 67.539062 111.527344 66.320312 C 108.816406 63.484375 105.339844 61.507812 101.101562 60.378906 C 97.363281 59.507812 93.699219 58.699219 90.113281 57.949219 C 90.457031 54.332031 89.832031 50.886719 88.246094 47.613281 C 88.308594 47.644531 88.367188 47.691406 88.429688 47.753906 C 89.523438 48.722656 90.597656 49.703125 91.65625 50.703125 C 92.5 51.449219 93.402344 52.132812 94.371094 52.757812 C 94.648438 52.945312 94.929688 53.054688 95.210938 53.085938 L 97.875 54.347656 C 100.085938 55.222656 102.316406 55.234375 104.558594 54.394531 C 105.558594 54.023438 106.492188 53.742188 107.367188 53.554688 C 108.425781 53.273438 109.34375 52.742188 110.125 51.960938 C 111.527344 50.496094 112.960938 49.03125 114.425781 47.566406 " fill-opacity="1" fill-rule="evenodd"/><path fill="#411e0f" d="M 88.246094 47.613281 C 85.40625 45.027344 83.382812 41.90625 82.167969 38.261719 C 82.007812 37.695312 81.871094 37.136719 81.746094 36.574219 C 81.714844 36.511719 81.699219 36.464844 81.699219 36.4375 C 81.574219 35.96875 81.480469 35.5 81.417969 35.035156 C 81.386719 35 81.386719 34.953125 81.417969 34.890625 C 81.324219 34.800781 81.277344 34.71875 81.277344 34.65625 L 81.277344 31.429688 C 81.277344 31.210938 81.277344 31.023438 81.277344 30.871094 L 81.371094 30.914062 C 81.464844 31.011719 81.558594 31.121094 81.652344 31.246094 C 83.335938 32.742188 85.609375 33.878906 88.476562 34.65625 C 95.898438 36.746094 103.253906 36.589844 110.542969 34.1875 C 111.511719 33.878906 112.476562 33.519531 113.445312 33.113281 C 114.097656 32.832031 114.738281 32.550781 115.359375 32.273438 C 117.851562 31.058594 120.394531 29.53125 122.980469 27.6875 C 123.949219 27.003906 124.914062 26.285156 125.878906 25.535156 C 126.253906 25.257812 126.628906 24.867188 127 24.367188 C 127.964844 23.21875 129.027344 21.53125 130.179688 19.316406 C 130.710938 18.320312 131.257812 17.214844 131.816406 15.996094 C 132.90625 13.472656 134.53125 11.601562 136.679688 10.382812 L 136.398438 13.050781 C 136.179688 14.078125 135.851562 14.875 135.417969 15.4375 C 135.011719 15.96875 134.542969 16.652344 134.015625 17.496094 C 133.453125 18.210938 133.078125 19.035156 132.894531 19.972656 C 132.738281 20.941406 132.300781 22.234375 131.582031 23.855469 C 131.519531 23.980469 131.457031 24.105469 131.394531 24.230469 C 130.804688 25.660156 130.273438 26.769531 129.808594 27.550781 C 129.246094 28.328125 128.199219 29.1875 126.671875 30.121094 C 125.054688 31.148438 123.976562 31.820312 123.449219 32.132812 C 124.011719 33.003906 124.554688 33.816406 125.085938 34.566406 C 125.613281 35.625 125.769531 36.609375 125.550781 37.511719 C 125.488281 37.792969 125.425781 38.074219 125.367188 38.355469 C 125.207031 39.039062 125.007812 39.726562 124.757812 40.410156 L 120.082031 47.660156 C 119.800781 47.566406 119.519531 47.457031 119.238281 47.332031 C 119.398438 46.085938 119.316406 44.964844 119.007812 43.96875 C 117.664062 44.464844 116.496094 45.214844 115.5 46.210938 C 115.15625 46.582031 114.875 46.960938 114.660156 47.332031 C 114.628906 47.367188 114.597656 47.394531 114.566406 47.425781 C 114.535156 47.457031 114.488281 47.503906 114.425781 47.566406 C 112.960938 49.03125 111.527344 50.496094 110.125 51.960938 C 109.34375 52.742188 108.425781 53.273438 107.367188 53.554688 C 106.492188 53.742188 105.558594 54.023438 104.558594 54.394531 C 102.316406 55.234375 100.085938 55.222656 97.875 54.347656 L 95.210938 53.085938 C 94.929688 53.054688 94.648438 52.945312 94.371094 52.757812 C 93.402344 52.132812 92.5 51.449219 91.65625 50.703125 C 90.597656 49.703125 89.523438 48.722656 88.429688 47.753906 C 88.367188 47.691406 88.308594 47.644531 88.246094 47.613281 " fill-opacity="1" fill-rule="evenodd"/><path fill="#ffa886" d="M 118.257812 46.773438 C 118.414062 46.554688 118.476562 46.347656 118.449219 46.164062 C 117.605469 45.851562 116.964844 45.945312 116.53125 46.445312 C 116.496094 46.472656 116.46875 46.519531 116.433594 46.582031 C 116.277344 46.800781 116.0625 47.367188 115.78125 48.269531 C 115.53125 49.203125 115.421875 49.796875 115.453125 50.046875 C 115.453125 50.730469 115.828125 51.371094 116.578125 51.960938 C 116.730469 51.960938 116.875 51.949219 116.996094 51.917969 C 117.214844 51.851562 117.402344 51.746094 117.554688 51.589844 C 117.554688 51.554688 117.542969 51.496094 117.511719 51.402344 C 117.445312 51.121094 117.308594 50.605469 117.089844 49.855469 C 116.933594 49.359375 116.917969 48.941406 117.046875 48.597656 C 117.136719 48.191406 117.417969 47.738281 117.886719 47.242188 C 118.042969 47.085938 118.167969 46.925781 118.257812 46.773438 Z M 130.976562 32.929688 C 130.976562 32.992188 130.976562 33.054688 130.976562 33.113281 C 130.320312 37.355469 129.183594 41.09375 127.5625 44.339844 C 127.28125 44.871094 127 45.386719 126.71875 45.882812 C 125.566406 47.910156 124.398438 49.796875 123.214844 51.542969 C 122.375 52.820312 121.515625 54.023438 120.644531 55.144531 C 119.335938 55.359375 118.179688 55.296875 117.183594 54.957031 C 116.8125 54.800781 116.449219 54.613281 116.109375 54.394531 C 116.042969 54.332031 115.980469 54.285156 115.921875 54.257812 C 115.640625 54.066406 115.375 53.851562 115.128906 53.597656 C 114.910156 53.351562 114.722656 53.039062 114.566406 52.664062 C 114.222656 52.070312 114.035156 51.183594 114.007812 50 C 113.972656 49.21875 114.113281 48.488281 114.425781 47.800781 C 114.488281 47.644531 114.566406 47.488281 114.660156 47.332031 C 114.875 46.960938 115.15625 46.582031 115.5 46.210938 C 116.496094 45.214844 117.664062 44.464844 119.007812 43.96875 C 119.316406 44.964844 119.398438 46.085938 119.238281 47.332031 C 119.519531 47.457031 119.800781 47.566406 120.082031 47.660156 L 124.757812 40.410156 C 125.007812 39.726562 125.207031 39.039062 125.367188 38.355469 C 127.113281 37.480469 128.980469 35.671875 130.976562 32.929688 Z M 187.265625 72.308594 C 186.578125 72.558594 185.675781 72.980469 184.554688 73.570312 C 183.152344 74.039062 181.8125 74.398438 180.535156 74.644531 C 179.414062 74.863281 178.628906 75.003906 178.195312 75.070312 C 178.132812 75.070312 178.085938 75.070312 178.058594 75.070312 C 177.652344 75.070312 177.152344 74.960938 176.558594 74.742188 L 176.558594 74.789062 C 174.71875 72.539062 173.753906 70.9375 173.660156 69.96875 C 173.566406 68.941406 173.769531 67.957031 174.269531 67.023438 C 174.765625 66.085938 175.03125 65.585938 175.0625 65.523438 C 176.214844 64.746094 176.964844 64.21875 177.308594 63.9375 C 178.121094 63.625 179.460938 63.359375 181.328125 63.144531 C 181.667969 63.109375 182.734375 62.953125 184.507812 62.675781 C 183.511719 63.359375 182.714844 63.9375 182.121094 64.402344 C 180.253906 65.496094 179.226562 66.804688 179.035156 68.332031 C 179.097656 68.394531 179.144531 68.441406 179.179688 68.472656 C 179.460938 68.910156 179.769531 69.285156 180.113281 69.59375 C 180.457031 69.84375 180.828125 70.015625 181.234375 70.109375 L 181.28125 70.109375 C 181.75 70.234375 182.265625 70.265625 182.824219 70.203125 C 183.632812 70.078125 184.351562 69.796875 184.976562 69.363281 C 185.347656 69.082031 186.640625 68.6875 188.855469 68.191406 C 189.980469 67.972656 190.800781 67.820312 191.335938 67.726562 C 191.773438 67.601562 192.007812 67.539062 192.035156 67.539062 C 192.070312 67.503906 192.097656 67.492188 192.125 67.492188 C 192.347656 67.925781 192.316406 68.425781 192.035156 68.988281 C 191.566406 70.015625 190.820312 70.703125 189.789062 71.046875 C 189.730469 71.074219 189.667969 71.109375 189.601562 71.136719 C 188.976562 71.390625 188.199219 71.777344 187.265625 72.308594 " fill-opacity="1" fill-rule="evenodd"/><path fill="#f99269" d="M 115.128906 53.597656 C 115.375 53.851562 115.640625 54.066406 115.921875 54.257812 C 115.980469 54.285156 116.042969 54.332031 116.109375 54.394531 C 116.449219 54.613281 116.8125 54.800781 117.183594 54.957031 C 118.179688 55.296875 119.335938 55.359375 120.644531 55.144531 C 120.582031 55.171875 120.550781 55.222656 120.550781 55.285156 L 120.550781 55.332031 C 119.894531 55.894531 119.191406 56.359375 118.449219 56.734375 C 116.765625 57.605469 115.15625 57.605469 113.628906 56.734375 C 113.816406 55.859375 114.316406 54.816406 115.128906 53.597656 Z M 89.738281 59.726562 C 89.800781 59.257812 89.910156 58.714844 90.066406 58.089844 C 90.097656 58.058594 90.113281 58.011719 90.113281 57.949219 C 93.699219 58.699219 97.363281 59.507812 101.101562 60.378906 C 105.339844 61.507812 108.816406 63.484375 111.527344 66.320312 C 112.710938 67.539062 113.738281 68.894531 114.613281 70.390625 C 114.425781 70.515625 114.222656 70.625 114.007812 70.71875 C 113.691406 70.839844 113.332031 70.953125 112.929688 71.046875 C 112.554688 71.136719 112.179688 71.234375 111.808594 71.328125 L 110.871094 71.417969 L 110.824219 71.417969 C 110.699219 71.417969 110.5625 71.433594 110.40625 71.464844 L 109.84375 71.515625 C 109.285156 71.515625 108.691406 71.496094 108.066406 71.464844 C 106.292969 71.371094 104.484375 71.28125 102.644531 71.183594 C 100.804688 71.0625 98.980469 70.75 97.175781 70.25 C 95.304688 69.71875 93.746094 69.09375 92.5 68.378906 C 91.222656 67.628906 90.363281 66.992188 89.929688 66.460938 C 89.488281 65.902344 89.148438 65.480469 88.898438 65.199219 C 88.679688 64.417969 88.679688 63.921875 88.898438 63.703125 C 88.898438 63.671875 89.257812 62.421875 89.972656 59.960938 C 89.882812 59.992188 89.785156 60.023438 89.695312 60.054688 C 89.722656 59.929688 89.738281 59.820312 89.738281 59.726562 Z M 130.976562 32.929688 C 128.980469 35.671875 127.113281 37.480469 125.367188 38.355469 C 125.425781 38.074219 125.488281 37.792969 125.550781 37.511719 C 125.769531 36.609375 125.613281 35.625 125.085938 34.566406 C 124.554688 33.816406 124.011719 33.003906 123.449219 32.132812 C 123.976562 31.820312 125.054688 31.148438 126.671875 30.121094 C 128.199219 29.1875 129.246094 28.328125 129.808594 27.550781 C 130.273438 26.769531 130.804688 25.660156 131.394531 24.230469 C 131.644531 26.222656 131.554688 28.90625 131.113281 32.273438 C 131.050781 32.429688 131.003906 32.585938 130.976562 32.742188 C 130.976562 32.804688 130.976562 32.867188 130.976562 32.929688 Z M 127.5625 44.339844 C 129.964844 45.398438 132.515625 48.253906 135.230469 52.898438 C 135.761719 53.804688 136.257812 54.722656 136.726562 55.660156 C 137.253906 56.6875 137.753906 57.765625 138.222656 58.886719 C 138.035156 59.445312 137.769531 60.226562 137.425781 61.222656 C 136.617188 63.875 135.996094 65.449219 135.554688 65.949219 L 135.464844 66.085938 C 134.152344 64.964844 132.957031 63.921875 131.863281 62.953125 C 129.367188 60.804688 127.46875 58.996094 126.160156 57.53125 C 124.476562 55.6875 123.496094 53.695312 123.214844 51.542969 C 124.398438 49.796875 125.566406 47.910156 126.71875 45.882812 C 127 45.386719 127.28125 44.871094 127.5625 44.339844 Z M 184.507812 81.289062 C 183.730469 81.535156 183.042969 81.695312 182.453125 81.753906 C 181.703125 81.878906 180.003906 82.085938 177.355469 82.363281 C 177.289062 82.457031 177.214844 82.566406 177.121094 82.691406 C 177.054688 82.847656 176.964844 83 176.839844 83.160156 C 176.71875 83.40625 176.4375 83.765625 175.996094 84.234375 C 176.1875 82.953125 176.015625 81.488281 175.484375 79.835938 C 174.953125 78.214844 174.269531 76.578125 173.425781 74.925781 C 172.804688 73.742188 171.882812 72.980469 170.667969 72.636719 C 171.136719 70.703125 171.726562 69.003906 172.445312 67.539062 C 172.976562 66.976562 173.769531 66.371094 174.828125 65.714844 C 174.890625 65.648438 174.953125 65.605469 175.019531 65.574219 L 175.0625 65.523438 C 175.03125 65.585938 174.765625 66.085938 174.269531 67.023438 C 173.769531 67.957031 173.566406 68.941406 173.660156 69.96875 C 173.753906 70.9375 174.71875 72.539062 176.558594 74.789062 L 176.558594 74.742188 C 177.152344 74.960938 177.652344 75.070312 178.058594 75.070312 C 178.085938 75.070312 178.132812 75.070312 178.195312 75.070312 C 178.628906 75.003906 179.414062 74.863281 180.535156 74.644531 C 181.8125 74.398438 183.152344 74.039062 184.554688 73.570312 C 185.675781 72.980469 186.578125 72.558594 187.265625 72.308594 C 187.203125 72.367188 187.125 72.429688 187.03125 72.496094 C 186.535156 72.835938 185.941406 73.242188 185.257812 73.710938 C 185.160156 73.804688 185.050781 73.898438 184.929688 73.992188 C 182.933594 75.425781 181.328125 76.363281 180.113281 76.796875 L 180.066406 76.796875 C 179.695312 76.921875 179.070312 77.125 178.195312 77.40625 C 178.445312 77.78125 178.851562 78.125 179.414062 78.433594 Z M 190.539062 66.320312 C 190.632812 66.351562 190.722656 66.371094 190.820312 66.371094 C 190.972656 66.398438 191.132812 66.445312 191.285156 66.507812 C 191.410156 66.570312 191.503906 66.652344 191.566406 66.742188 C 191.847656 66.929688 192.035156 67.179688 192.125 67.492188 C 192.097656 67.492188 192.070312 67.503906 192.035156 67.539062 C 192.007812 67.539062 191.773438 67.601562 191.335938 67.726562 C 190.800781 67.820312 189.980469 67.972656 188.855469 68.191406 C 186.640625 68.6875 185.347656 69.082031 184.976562 69.363281 C 184.351562 69.796875 183.632812 70.078125 182.824219 70.203125 C 182.265625 70.265625 181.75 70.234375 181.28125 70.109375 L 181.234375 70.109375 C 180.828125 70.015625 180.457031 69.84375 180.113281 69.59375 C 179.769531 69.285156 179.460938 68.910156 179.179688 68.472656 C 179.144531 68.441406 179.097656 68.394531 179.035156 68.332031 C 179.226562 66.804688 180.253906 65.496094 182.121094 64.402344 C 182.589844 64.15625 183.089844 63.90625 183.621094 63.65625 C 182.714844 64.933594 182.136719 65.757812 181.890625 66.136719 C 181.667969 66.507812 181.625 66.914062 181.75 67.351562 C 181.902344 67.664062 182.171875 67.882812 182.542969 68.007812 L 182.589844 68.007812 C 182.683594 68.035156 182.777344 68.054688 182.871094 68.054688 C 183.867188 68.425781 185.269531 68.128906 187.078125 67.164062 C 188.453125 66.480469 189.601562 66.199219 190.539062 66.320312 " fill-opacity="1" fill-rule="evenodd"/><path fill="#00c6b4" d="M 110.542969 186.988281 C 109.359375 186.800781 108.097656 186.535156 106.757812 186.191406 C 102.144531 185.007812 97.859375 183.402344 93.902344 181.375 C 87.757812 178.257812 83.316406 174.625 80.578125 170.480469 C 79.238281 168.390625 78.332031 166.160156 77.863281 163.789062 C 77.773438 163.355469 77.707031 162.914062 77.675781 162.480469 C 77.617188 161.917969 77.601562 161.375 77.628906 160.84375 C 77.753906 156.726562 77.847656 152.660156 77.910156 148.636719 C 77.941406 147.734375 77.925781 146.859375 77.863281 146.015625 C 77.675781 142.804688 77.347656 139.625 76.882812 136.476562 C 76.414062 133.265625 75.871094 130.039062 75.246094 126.792969 C 75.152344 126.484375 75.074219 126.152344 75.011719 125.8125 C 73.921875 122.445312 72.054688 117.953125 69.402344 112.34375 C 66.472656 106.171875 64.539062 101.710938 63.605469 98.964844 C 62.171875 93.855469 61.453125 89.019531 61.453125 84.46875 C 61.453125 83.65625 61.453125 82.863281 61.453125 82.085938 C 61.734375 64.058594 68.464844 55.453125 81.652344 56.265625 C 82.929688 56.671875 84.503906 57.402344 86.375 58.464844 L 88.246094 59.539062 C 86.996094 59.382812 85.78125 59.292969 84.59375 59.257812 C 83.164062 59.257812 81.851562 59.585938 80.667969 60.242188 C 79.300781 61.019531 78.535156 62.078125 78.378906 63.421875 C 78.316406 65.167969 78.8125 66.929688 79.875 68.707031 C 80.621094 69.953125 81.777344 71.402344 83.335938 73.054688 C 86.109375 75.863281 89.738281 78.015625 94.226562 79.511719 C 97.6875 80.726562 101.878906 81.585938 106.804688 82.085938 C 108.457031 82.269531 111.367188 82.410156 115.546875 82.503906 C 118.539062 82.597656 124.148438 82.890625 132.378906 83.394531 C 132.34375 83.332031 132.316406 83.269531 132.285156 83.207031 C 132.847656 83.734375 133.410156 84.25 133.96875 84.75 C 134.46875 85.25 134.949219 85.761719 135.417969 86.292969 C 135.417969 86.324219 135.445312 86.335938 135.511719 86.335938 L 135.886719 86.761719 L 133.3125 84.28125 C 123.496094 84.6875 116.652344 88.757812 112.789062 96.488281 C 111.792969 98.515625 110.996094 100.792969 110.40625 103.316406 C 107.878906 113.949219 108.582031 124.378906 112.507812 134.605469 C 113.320312 136.757812 114.035156 138.925781 114.660156 141.105469 C 116.0625 146.125 116.917969 151.242188 117.230469 156.449219 C 117.292969 157.597656 117.324219 158.738281 117.324219 159.859375 C 117.230469 166.65625 115.609375 173.191406 112.460938 179.457031 C 111.277344 181.765625 110.636719 184.277344 110.542969 186.988281 Z M 156.691406 72.402344 C 164.136719 77.574219 170.433594 82.050781 175.578125 85.828125 C 181.4375 90.097656 185.785156 93.433594 188.621094 95.835938 C 191.894531 98.609375 194.386719 101.164062 196.101562 103.503906 C 197.347656 104.316406 198.394531 105.28125 199.234375 106.40625 C 199.140625 106.996094 198.9375 107.554688 198.628906 108.085938 C 197.445312 109.988281 194.578125 111.40625 190.023438 112.34375 C 187.964844 112.746094 185.410156 112.90625 182.355469 112.808594 C 177.398438 112.625 171.121094 111.785156 163.515625 110.285156 C 162.582031 110.097656 161.628906 109.894531 160.664062 109.679688 C 157.328125 108.957031 152.171875 107.027344 145.1875 103.875 C 143.722656 103.191406 142.183594 102.457031 140.558594 101.679688 C 131.238281 97.15625 123.992188 96.753906 118.820312 100.464844 C 119.101562 98.59375 119.660156 96.535156 120.503906 94.289062 C 123.496094 86.214844 132.785156 84.761719 148.371094 89.941406 C 148.679688 90.035156 149.003906 90.140625 149.347656 90.269531 C 154.242188 91.949219 158.839844 93.449219 163.140625 94.757812 C 162.519531 93.976562 161.894531 93.199219 161.269531 92.417969 C 160.304688 91.140625 159.324219 89.832031 158.328125 88.488281 C 156.207031 85.59375 151.5625 81.117188 144.394531 75.070312 C 143.988281 74.726562 143.597656 74.410156 143.226562 74.132812 C 138.828125 70.328125 136.320312 67.800781 135.699219 66.554688 C 135.636719 66.398438 135.589844 66.257812 135.554688 66.136719 C 135.554688 66.074219 135.554688 66.011719 135.554688 65.949219 C 135.996094 65.449219 136.617188 63.875 137.425781 61.222656 C 137.769531 60.226562 138.035156 59.445312 138.222656 58.886719 C 138.503906 58.011719 138.640625 57.558594 138.640625 57.53125 C 138.703125 57.53125 140.839844 59.257812 145.050781 62.71875 C 149.222656 66.183594 153.105469 69.410156 156.691406 72.402344 " fill-opacity="1" fill-rule="evenodd"/><path fill="#00ae9e" d="M 118.820312 100.464844 C 123.992188 96.753906 131.238281 97.15625 140.558594 101.679688 C 142.183594 102.457031 143.722656 103.191406 145.1875 103.875 C 152.171875 107.027344 157.328125 108.957031 160.664062 109.679688 C 161.628906 109.894531 162.582031 110.097656 163.515625 110.285156 C 171.121094 111.785156 177.398438 112.625 182.355469 112.808594 C 185.410156 112.90625 187.964844 112.746094 190.023438 112.34375 C 194.578125 111.40625 197.445312 109.988281 198.628906 108.085938 C 198.9375 107.554688 199.140625 106.996094 199.234375 106.40625 C 201.824219 110.394531 202.121094 114.570312 200.121094 118.9375 C 199.0625 121.242188 197.582031 122.988281 195.679688 124.175781 C 194.65625 125.113281 193.410156 125.6875 191.941406 125.90625 C 190.914062 126.03125 189.820312 126.046875 188.667969 125.953125 C 186.050781 126.078125 183.402344 126.015625 180.71875 125.765625 C 176.324219 125.359375 172.117188 124.550781 168.097656 123.332031 C 164.328125 122.335938 160.554688 121.308594 156.785156 120.246094 C 153.480469 119.4375 150.160156 118.828125 146.824219 118.421875 C 146.171875 118.332031 145.5 118.25 144.816406 118.1875 C 139.265625 119.875 134.542969 120.386719 130.648438 119.734375 C 124.695312 118.671875 121.15625 116.070312 120.035156 111.921875 C 118.820312 107.714844 118.414062 103.894531 118.820312 100.464844 Z M 148.371094 89.941406 C 147.902344 89.347656 147.414062 88.757812 146.917969 88.164062 C 144.300781 84.980469 140.824219 80.914062 136.492188 75.957031 C 135.960938 75.363281 135.464844 74.816406 134.996094 74.320312 C 133.5 72.730469 132.363281 71.652344 131.582031 71.09375 C 131.085938 70.6875 130.835938 70.421875 130.835938 70.296875 C 130.742188 69.890625 130.960938 69.472656 131.492188 69.03125 C 131.675781 68.878906 131.988281 68.660156 132.425781 68.378906 C 133.019531 68.007812 133.828125 67.503906 134.855469 66.882812 L 135.464844 66.085938 L 135.554688 65.949219 C 135.554688 66.011719 135.554688 66.074219 135.554688 66.136719 C 135.589844 66.257812 135.636719 66.398438 135.699219 66.554688 C 136.320312 67.800781 138.828125 70.328125 143.226562 74.132812 C 143.597656 74.410156 143.988281 74.726562 144.394531 75.070312 C 151.5625 81.117188 156.207031 85.59375 158.328125 88.488281 C 159.324219 89.832031 160.304688 91.140625 161.269531 92.417969 C 161.894531 93.199219 162.519531 93.976562 163.140625 94.757812 C 158.839844 93.449219 154.242188 91.949219 149.347656 90.269531 C 149.003906 90.140625 148.679688 90.035156 148.371094 89.941406 " fill-opacity="1" fill-rule="evenodd"/><g clip-path="url(#b6c86bebc9)"><path fill="#008996" d="M 61.453125 82.085938 C 59.800781 79.996094 58.976562 77.328125 58.976562 74.085938 C 58.976562 69.5 59.382812 66.085938 60.191406 63.84375 C 61.03125 61.566406 62.703125 59.210938 65.191406 56.78125 C 67.722656 54.378906 72.410156 53.914062 79.265625 55.378906 C 82.976562 56.128906 86.574219 57.03125 90.066406 58.089844 C 89.910156 58.714844 89.800781 59.257812 89.738281 59.726562 C 89.242188 59.636719 88.742188 59.570312 88.246094 59.539062 L 86.375 58.464844 C 84.503906 57.402344 82.929688 56.671875 81.652344 56.265625 C 68.464844 55.453125 61.734375 64.058594 61.453125 82.085938 Z M 148.371094 89.941406 C 132.785156 84.761719 123.496094 86.214844 120.503906 94.289062 C 119.660156 96.535156 119.101562 98.59375 118.820312 100.464844 C 118.414062 103.894531 118.820312 107.714844 120.035156 111.921875 C 121.15625 116.070312 124.695312 118.671875 130.648438 119.734375 C 134.542969 120.386719 139.265625 119.875 144.816406 118.1875 C 145.5 118.25 146.171875 118.332031 146.824219 118.421875 C 146.796875 124.003906 146.03125 129.601562 144.535156 135.210938 C 143.628906 138.613281 143.707031 141.964844 144.769531 145.269531 C 146.605469 151.132812 147.917969 157.117188 148.695312 163.230469 C 148.757812 163.851562 148.804688 164.476562 148.835938 165.101562 C 149.113281 171.335938 146.652344 176.339844 141.449219 180.109375 C 132.285156 186.816406 121.984375 189.105469 110.542969 186.988281 C 110.636719 184.277344 111.277344 181.765625 112.460938 179.457031 C 115.609375 173.191406 117.230469 166.65625 117.324219 159.859375 C 117.324219 158.738281 117.292969 157.597656 117.230469 156.449219 C 116.917969 151.242188 116.0625 146.125 114.660156 141.105469 C 114.035156 138.925781 113.320312 136.757812 112.507812 134.605469 C 108.582031 124.378906 107.878906 113.949219 110.40625 103.316406 C 110.996094 100.792969 111.792969 98.515625 112.789062 96.488281 C 116.652344 88.757812 123.496094 84.6875 133.3125 84.28125 L 135.886719 86.761719 L 135.511719 86.335938 C 135.445312 86.335938 135.417969 86.324219 135.417969 86.292969 C 134.949219 85.761719 134.46875 85.25 133.96875 84.75 C 133.410156 84.25 132.847656 83.734375 132.285156 83.207031 C 131.257812 81.242188 130.117188 79.808594 128.871094 78.902344 C 128.308594 78.53125 127.46875 78.042969 126.347656 77.453125 C 125.289062 76.859375 124.226562 76.425781 123.167969 76.144531 C 123.105469 76.109375 123.042969 76.097656 122.980469 76.097656 L 121.253906 71.417969 C 121.125 71.171875 120.984375 70.953125 120.828125 70.765625 C 120.394531 70.203125 119.832031 69.707031 119.148438 69.265625 C 123.449219 70.859375 127.75 72.339844 132.050781 73.710938 C 133.019531 74.054688 134 74.257812 134.996094 74.320312 C 135.464844 74.816406 135.960938 75.363281 136.492188 75.957031 C 140.824219 80.914062 144.300781 84.980469 146.917969 88.164062 C 147.414062 88.757812 147.902344 89.347656 148.371094 89.941406 Z M 115.59375 67.910156 C 115.6875 68.503906 115.734375 68.941406 115.734375 69.222656 C 115.609375 68.753906 115.5 68.289062 115.410156 67.820312 C 115.472656 67.847656 115.53125 67.882812 115.59375 67.910156 Z M 114.007812 70.71875 C 114.222656 70.625 114.425781 70.515625 114.613281 70.390625 L 115.78125 69.5 L 115.78125 69.644531 C 115.4375 70.046875 114.847656 70.40625 114.007812 70.71875 Z M 175.578125 85.828125 C 170.433594 82.050781 164.136719 77.574219 156.691406 72.402344 C 156.910156 72.339844 157.144531 72.292969 157.390625 72.261719 C 161.722656 71.390625 166.054688 71.480469 170.386719 72.539062 C 170.480469 72.574219 170.578125 72.601562 170.667969 72.636719 C 171.882812 72.980469 172.804688 73.742188 173.425781 74.925781 C 174.269531 76.578125 174.953125 78.214844 175.484375 79.835938 C 176.015625 81.488281 176.1875 82.953125 175.996094 84.234375 C 175.933594 84.796875 175.796875 85.324219 175.578125 85.828125 " fill-opacity="1" fill-rule="evenodd"/></g><path fill="#4bf0d3" d="M 77.492188 163.648438 C 77.554688 163.246094 77.617188 162.855469 77.675781 162.480469 C 77.707031 162.914062 77.773438 163.355469 77.863281 163.789062 C 78.332031 166.160156 79.238281 168.390625 80.578125 170.480469 C 83.316406 174.625 87.757812 178.257812 93.902344 181.375 C 97.859375 183.402344 102.144531 185.007812 106.757812 186.191406 C 108.097656 186.535156 109.359375 186.800781 110.542969 186.988281 C 121.984375 189.105469 132.285156 186.816406 141.449219 180.109375 C 146.652344 176.339844 149.113281 171.335938 148.835938 165.101562 C 149.148438 167.59375 149.304688 169.480469 149.304688 170.757812 C 149.304688 172.816406 149.003906 174.765625 148.414062 176.601562 C 147.792969 178.695312 146.777344 180.625 145.375 182.40625 C 139.953125 189.167969 130.054688 192.550781 115.6875 192.550781 C 114.40625 192.550781 112.804688 192.367188 110.871094 191.992188 C 110.808594 191.992188 110.734375 191.976562 110.636719 191.945312 C 109.453125 191.726562 108.191406 191.429688 106.851562 191.058594 C 103.359375 190.179688 100.070312 189.078125 96.984375 187.738281 C 95.957031 187.296875 94.960938 186.832031 93.992188 186.332031 C 89.503906 184.023438 85.921875 181.453125 83.242188 178.617188 C 82.277344 177.585938 81.417969 176.511719 80.667969 175.390625 C 78.488281 172.019531 77.394531 168.292969 77.394531 164.210938 C 77.429688 164.023438 77.457031 163.835938 77.492188 163.648438 Z M 89.738281 59.726562 C 89.738281 59.820312 89.722656 59.929688 89.695312 60.054688 C 89.785156 60.023438 89.882812 59.992188 89.972656 59.960938 C 89.257812 62.421875 88.898438 63.671875 88.898438 63.703125 C 88.679688 63.921875 88.679688 64.417969 88.898438 65.199219 C 89.148438 65.480469 89.488281 65.902344 89.929688 66.460938 C 90.363281 66.992188 91.222656 67.628906 92.5 68.378906 C 93.746094 69.09375 95.304688 69.71875 97.175781 70.25 C 98.980469 70.75 100.804688 71.0625 102.644531 71.183594 C 104.484375 71.28125 106.292969 71.371094 108.066406 71.464844 C 108.691406 71.496094 109.285156 71.515625 109.84375 71.515625 L 110.40625 71.464844 C 110.5625 71.433594 110.699219 71.417969 110.824219 71.417969 L 110.871094 71.417969 L 111.808594 71.328125 C 112.179688 71.234375 112.554688 71.136719 112.929688 71.046875 C 113.332031 70.953125 113.691406 70.839844 114.007812 70.71875 C 114.847656 70.40625 115.4375 70.046875 115.78125 69.644531 L 115.78125 69.5 L 115.734375 69.222656 C 115.734375 68.941406 115.6875 68.503906 115.59375 67.910156 C 115.59375 67.847656 115.59375 67.800781 115.59375 67.773438 C 117.027344 68.144531 118.214844 68.644531 119.148438 69.265625 C 119.832031 69.707031 120.394531 70.203125 120.828125 70.765625 C 120.984375 70.953125 121.125 71.171875 121.253906 71.417969 L 122.980469 76.097656 C 123.042969 76.097656 123.105469 76.109375 123.167969 76.144531 C 124.226562 76.425781 125.289062 76.859375 126.347656 77.453125 C 127.46875 78.042969 128.308594 78.53125 128.871094 78.902344 C 130.117188 79.808594 131.257812 81.242188 132.285156 83.207031 C 132.316406 83.269531 132.34375 83.332031 132.378906 83.394531 C 124.148438 82.890625 118.539062 82.597656 115.546875 82.503906 C 111.367188 82.410156 108.457031 82.269531 106.804688 82.085938 C 101.878906 81.585938 97.6875 80.726562 94.226562 79.511719 C 89.738281 78.015625 86.109375 75.863281 83.335938 73.054688 C 81.777344 71.402344 80.621094 69.953125 79.875 68.707031 C 78.8125 66.929688 78.316406 65.167969 78.378906 63.421875 C 78.535156 62.078125 79.300781 61.019531 80.667969 60.242188 C 81.851562 59.585938 83.164062 59.257812 84.59375 59.257812 C 85.78125 59.292969 86.996094 59.382812 88.246094 59.539062 C 88.742188 59.570312 89.242188 59.636719 89.738281 59.726562 " fill-opacity="1" fill-rule="evenodd"/><path fill="#ffffff" d="M 195.726562 166.738281 C 186.535156 172.035156 181.921875 182.214844 181.890625 197.277344 C 181.890625 212.277344 186.425781 227.726562 195.496094 243.625 C 204.660156 259.558594 215.707031 271.28125 228.640625 278.796875 C 241.609375 286.3125 252.65625 287.417969 261.789062 282.117188 C 270.980469 276.820312 275.582031 266.667969 275.582031 251.667969 C 275.613281 236.609375 271.09375 221.128906 262.023438 205.226562 C 252.890625 189.292969 241.84375 177.570312 228.875 170.054688 C 215.914062 162.542969 204.863281 161.4375 195.726562 166.738281 Z M 195.398438 218.042969 L 195.445312 192.226562 L 217.75 205.089844 L 217.796875 179.269531 L 240.097656 192.226562 L 240.003906 218.042969 L 262.210938 230.902344 L 262.164062 256.722656 L 239.957031 243.859375 L 239.863281 269.675781 L 217.605469 256.722656 L 217.65625 230.902344 Z M 274.320312 297.691406 C 273.667969 298.15625 272.949219 298.625 272.167969 299.09375 C 271.386719 299.5 270.628906 299.855469 269.878906 300.171875 C 258.5 305.660156 244.941406 303.878906 229.203125 294.839844 C 212.464844 285.203125 198.28125 270.285156 186.660156 250.078125 C 175.03125 229.78125 169.296875 209.980469 169.453125 190.683594 C 169.574219 172.132812 175.125 159.378906 186.097656 152.425781 C 186.5625 152.050781 187.03125 151.722656 187.5 151.441406 C 188.308594 150.976562 189.183594 150.539062 190.117188 150.132812 C 191.925781 149.289062 193.761719 148.589844 195.632812 148.03125 C 196.257812 147.902344 196.925781 147.761719 197.644531 147.605469 C 207.210938 145.925781 218.121094 148.589844 230.371094 155.605469 C 247.175781 165.238281 261.367188 180.160156 272.964844 200.363281 C 284.621094 220.660156 290.382812 240.476562 290.265625 259.808594 C 290.105469 274.214844 286.710938 285.15625 280.070312 292.640625 C 279.789062 292.953125 279.464844 293.28125 279.085938 293.621094 C 277.71875 295.179688 276.125 296.539062 274.320312 297.691406 Z M 198.347656 61.273438 C 197.941406 60.992188 197.503906 60.882812 197.035156 60.941406 C 196.570312 61.003906 196.175781 61.222656 195.867188 61.597656 C 195.589844 61.972656 195.476562 62.375 195.542969 62.8125 C 195.605469 63.25 195.839844 63.609375 196.242188 63.886719 C 196.617188 64.167969 197.019531 64.277344 197.460938 64.21875 C 197.957031 64.15625 198.347656 63.9375 198.628906 63.5625 C 198.9375 63.1875 199.046875 62.78125 198.953125 62.347656 C 198.921875 61.90625 198.71875 61.550781 198.347656 61.273438 Z M 201.242188 56.871094 C 200.84375 56.59375 200.402344 56.484375 199.9375 56.546875 C 199.46875 56.609375 199.082031 56.828125 198.765625 57.203125 C 198.484375 57.574219 198.378906 57.980469 198.4375 58.417969 C 198.503906 58.851562 198.738281 59.210938 199.140625 59.492188 C 199.515625 59.773438 199.917969 59.882812 200.355469 59.820312 C 200.851562 59.757812 201.242188 59.539062 201.523438 59.167969 C 201.835938 58.792969 201.945312 58.386719 201.855469 57.949219 C 201.824219 57.511719 201.621094 57.152344 201.242188 56.871094 Z M 189.601562 71.136719 C 189.667969 71.109375 189.730469 71.074219 189.789062 71.046875 C 190.820312 70.703125 191.566406 70.015625 192.035156 68.988281 C 192.316406 68.425781 192.347656 67.925781 192.125 67.492188 C 192.035156 67.179688 191.847656 66.929688 191.566406 66.742188 C 191.628906 66.523438 191.707031 66.320312 191.800781 66.136719 C 192.050781 65.351562 192.457031 64.609375 193.019531 63.886719 C 193.953125 62.640625 194.902344 61.394531 195.867188 60.148438 C 195.992188 59.929688 196.101562 59.679688 196.195312 59.402344 C 196.320312 59.023438 196.367188 58.621094 196.335938 58.183594 C 195.433594 58.996094 194.699219 59.929688 194.140625 60.992188 C 194.042969 61.144531 193.9375 61.316406 193.8125 61.507812 C 193.25 62.3125 192.628906 63.09375 191.941406 63.84375 C 192.097656 64.84375 191.753906 65.683594 190.914062 66.371094 C 190.882812 66.371094 190.847656 66.371094 190.820312 66.371094 C 190.722656 66.371094 190.632812 66.351562 190.539062 66.320312 C 190.257812 66.226562 190.089844 65.976562 190.023438 65.574219 C 190.023438 65.105469 190.179688 64.652344 190.492188 64.21875 C 190.738281 63.90625 190.972656 63.542969 191.191406 63.144531 C 192.007812 61.550781 192.96875 60.023438 194.09375 58.558594 C 194.1875 58.433594 194.265625 58.308594 194.324219 58.183594 C 194.730469 57.53125 195.179688 56.90625 195.679688 56.3125 C 195.777344 56.191406 195.867188 56.0625 195.960938 55.9375 C 196.402344 55.285156 196.992188 54.800781 197.738281 54.492188 C 198.175781 54.269531 198.628906 54.238281 199.097656 54.394531 C 199.75 54.613281 200.421875 54.707031 201.105469 54.675781 C 201.601562 54.148438 201.835938 53.554688 201.804688 52.898438 C 201.777344 52.554688 201.902344 52.277344 202.179688 52.058594 L 202.273438 52.105469 C 202.425781 51.664062 202.710938 51.355469 203.113281 51.167969 C 203.304688 51.042969 203.523438 50.996094 203.769531 51.027344 C 204.582031 51.027344 205.097656 51.382812 205.3125 52.105469 C 205.40625 52.351562 205.40625 52.601562 205.3125 52.851562 C 205.21875 53.101562 205.078125 53.320312 204.894531 53.507812 L 205.03125 53.554688 C 204.941406 53.925781 204.691406 54.191406 204.28125 54.347656 C 204.097656 54.441406 203.929688 54.566406 203.769531 54.722656 C 203.425781 55.003906 203.207031 55.34375 203.113281 55.75 C 203.648438 56.5 204.222656 57.203125 204.84375 57.855469 C 204.941406 57.917969 204.96875 57.980469 204.941406 58.042969 C 205.125 58.976562 204.941406 59.851562 204.378906 60.660156 C 204.253906 60.785156 204.164062 60.957031 204.097656 61.175781 C 203.757812 61.988281 203.320312 62.765625 202.789062 63.515625 C 202.660156 63.734375 202.554688 63.9375 202.460938 64.121094 C 201.742188 65.714844 200.789062 67.179688 199.605469 68.519531 C 199.515625 68.644531 199.4375 68.769531 199.375 68.894531 C 199.1875 69.390625 198.847656 69.765625 198.347656 70.015625 C 198.128906 70.171875 197.894531 70.1875 197.644531 70.0625 C 197.488281 70.03125 197.363281 69.953125 197.269531 69.828125 C 197.300781 69.050781 197.679688 68.425781 198.394531 67.957031 C 198.613281 67.835938 198.828125 67.710938 199.046875 67.585938 C 199.640625 66.054688 200.421875 64.574219 201.386719 63.144531 C 201.542969 62.921875 201.667969 62.691406 201.757812 62.441406 C 201.914062 62.066406 202.039062 61.675781 202.136719 61.273438 C 201.355469 61.644531 200.777344 62.207031 200.402344 62.953125 C 199.71875 64.265625 199.0625 65.585938 198.4375 66.929688 C 198.28125 67.210938 198.113281 67.457031 197.925781 67.675781 C 197.113281 68.859375 196.167969 69.9375 195.074219 70.902344 C 194.917969 71.027344 194.765625 71.171875 194.605469 71.328125 C 193.761719 72.355469 193.140625 73.460938 192.738281 74.644531 C 192.671875 74.898438 192.550781 75.113281 192.359375 75.304688 C 191.957031 75.800781 191.503906 76.269531 191.003906 76.707031 C 190.324219 77.203125 189.730469 77.796875 189.230469 78.480469 C 189.136719 78.578125 189.074219 78.683594 189.042969 78.8125 C 189.042969 79.152344 189.074219 79.492188 189.136719 79.835938 C 189.164062 80.023438 189.203125 80.179688 189.230469 80.304688 C 188.480469 80.179688 187.90625 79.851562 187.5 79.320312 C 187.4375 79.261719 187.40625 79.210938 187.40625 79.183594 C 187.40625 78.996094 187.484375 78.839844 187.640625 78.714844 C 187.765625 78.277344 188.03125 77.917969 188.433594 77.640625 C 188.5625 77.546875 188.652344 77.453125 188.714844 77.359375 C 189.089844 76.769531 189.417969 76.15625 189.699219 75.535156 C 189.882812 75.160156 190.089844 74.789062 190.304688 74.410156 C 192.015625 71.886719 193.5625 69.285156 194.933594 66.601562 C 193.371094 68.816406 191.90625 71.074219 190.539062 73.382812 C 190.382812 73.601562 190.242188 73.804688 190.117188 73.992188 C 189.679688 74.644531 189.210938 75.269531 188.714844 75.863281 C 188.34375 76.328125 188.0625 76.832031 187.875 77.359375 C 187.84375 77.453125 187.796875 77.546875 187.734375 77.640625 C 187.578125 78.078125 187.34375 78.480469 187.03125 78.855469 C 186.941406 79.011719 186.785156 79.058594 186.5625 78.996094 C 186.003906 78.839844 185.519531 78.589844 185.113281 78.246094 C 184.988281 78.152344 184.960938 78.078125 185.023438 78.015625 C 185.675781 77.855469 186.238281 77.574219 186.707031 77.171875 C 186.734375 77.140625 186.75 77.109375 186.75 77.078125 C 187.1875 76.082031 187.515625 75.050781 187.734375 73.992188 C 187.796875 73.742188 187.875 73.507812 187.964844 73.289062 C 188.308594 72.664062 188.714844 72.105469 189.183594 71.605469 C 189.335938 71.453125 189.480469 71.292969 189.601562 71.136719 " fill-opacity="1" fill-rule="evenodd"/><path fill="#ff5a34" d="M 198.347656 61.273438 C 198.71875 61.550781 198.921875 61.90625 198.953125 62.347656 C 199.046875 62.78125 198.9375 63.1875 198.628906 63.5625 C 198.347656 63.9375 197.957031 64.15625 197.460938 64.21875 C 197.019531 64.277344 196.617188 64.167969 196.242188 63.886719 C 195.839844 63.609375 195.605469 63.25 195.542969 62.8125 C 195.476562 62.375 195.589844 61.972656 195.867188 61.597656 C 196.175781 61.222656 196.570312 61.003906 197.035156 60.941406 C 197.503906 60.882812 197.941406 60.992188 198.347656 61.273438 Z M 201.242188 56.871094 C 201.621094 57.152344 201.824219 57.511719 201.855469 57.949219 C 201.945312 58.386719 201.835938 58.792969 201.523438 59.167969 C 201.242188 59.539062 200.851562 59.757812 200.355469 59.820312 C 199.917969 59.882812 199.515625 59.773438 199.140625 59.492188 C 198.738281 59.210938 198.503906 58.851562 198.4375 58.417969 C 198.378906 57.980469 198.484375 57.574219 198.765625 57.203125 C 199.082031 56.828125 199.46875 56.609375 199.9375 56.546875 C 200.402344 56.484375 200.84375 56.59375 201.242188 56.871094 Z M 200.265625 52.058594 C 199.984375 52.429688 199.59375 52.648438 199.097656 52.710938 C 198.65625 52.773438 198.253906 52.664062 197.878906 52.386719 C 197.472656 52.105469 197.242188 51.746094 197.179688 51.308594 C 197.113281 50.875 197.226562 50.46875 197.503906 50.089844 C 197.8125 49.71875 198.203125 49.5 198.671875 49.4375 C 199.140625 49.375 199.578125 49.484375 199.984375 49.765625 C 200.355469 50.046875 200.558594 50.40625 200.589844 50.839844 C 200.683594 51.277344 200.574219 51.683594 200.265625 52.058594 " fill-opacity="1" fill-rule="evenodd"/><path fill="#dda274" d="M 182.121094 64.402344 C 182.714844 63.9375 183.511719 63.359375 184.507812 62.675781 C 184.382812 62.765625 184.679688 62.691406 185.394531 62.441406 C 185.519531 62.375 185.628906 62.332031 185.722656 62.296875 C 185.878906 62.238281 186.035156 62.1875 186.191406 62.160156 L 182.542969 68.007812 C 182.171875 67.882812 181.902344 67.664062 181.75 67.351562 C 181.625 66.914062 181.667969 66.507812 181.890625 66.136719 C 182.136719 65.757812 182.714844 64.933594 183.621094 63.65625 C 183.089844 63.90625 182.589844 64.15625 182.121094 64.402344 " fill-opacity="1" fill-rule="evenodd"/><g clip-path="url(#a631ff4934)"><path fill="#384d6c" d="M 103.996094 365.179688 L 103.996094 365.273438 C 104.339844 366.460938 105.011719 367.222656 106.011719 367.566406 C 108.722656 368.8125 112.039062 369.292969 115.96875 369.011719 C 116.652344 368.953125 117.402344 368.859375 118.214844 368.734375 C 119.273438 368.640625 120.628906 368.421875 122.277344 368.078125 L 126.066406 367.375 C 127.222656 367.347656 128.417969 367.175781 129.667969 366.863281 C 131.601562 366.707031 133.75 366.597656 136.117188 366.535156 C 141.976562 366.441406 146.171875 366.164062 148.695312 365.695312 C 150.285156 365.476562 151.796875 365.179688 153.230469 364.804688 C 157 363.746094 160.132812 362.109375 162.628906 359.894531 C 163.34375 359.300781 163.890625 358.507812 164.265625 357.511719 C 164.417969 357.820312 164.527344 358.179688 164.589844 358.585938 C 164.652344 359.488281 164.511719 360.441406 164.171875 361.4375 C 161.117188 365.242188 155.925781 367.65625 148.601562 368.6875 C 146.046875 369.21875 142.164062 369.527344 136.957031 369.625 C 131.816406 369.746094 127.9375 370.089844 125.316406 370.648438 L 124.476562 373.503906 C 120.457031 374.316406 117.308594 374.78125 115.03125 374.90625 C 111.539062 375.125 108.441406 374.6875 105.730469 373.597656 C 104.265625 373.097656 103.5 371.929688 103.4375 370.089844 C 103.59375 367.785156 103.609375 366.226562 103.488281 365.414062 Z M 80.765625 349.746094 C 80.792969 350.121094 80.855469 350.558594 80.949219 351.054688 L 81.511719 351.664062 C 81.605469 351.882812 81.761719 352.039062 81.980469 352.132812 C 82.664062 352.753906 83.597656 353.300781 84.785156 353.769531 C 85.9375 354.175781 87.496094 354.515625 89.460938 354.796875 C 92.917969 355.359375 96.378906 353.859375 99.835938 350.304688 C 100.304688 349.808594 100.847656 349.292969 101.472656 348.761719 C 101.570312 349.699219 101.691406 350.558594 101.851562 351.335938 C 101.632812 351.742188 101.445312 352.238281 101.289062 352.835938 C 100.976562 354.046875 100.601562 354.859375 100.167969 355.265625 C 96.238281 359.226562 92.515625 360.921875 88.992188 360.359375 C 86.871094 360.050781 85.28125 359.722656 84.222656 359.382812 C 82.476562 358.820312 81.121094 357.964844 80.152344 356.808594 C 79.96875 355 79.921875 353.488281 80.015625 352.269531 C 80.109375 351.273438 80.359375 350.433594 80.765625 349.746094 Z M 101.148438 339.738281 C 96.503906 343.730469 91.265625 345.414062 85.4375 344.789062 C 84.65625 338.675781 83.957031 332.519531 83.335938 326.3125 C 83.054688 323.476562 82.789062 320.640625 82.539062 317.800781 C 81.605469 307.386719 80.683594 296.929688 79.78125 286.421875 C 79.5 283.113281 79.546875 277.875 79.921875 270.707031 C 80.359375 263.53125 81.960938 255.941406 84.738281 247.925781 C 86.609375 242.597656 87.386719 236.796875 87.074219 230.53125 C 86.953125 227.382812 86.546875 224.109375 85.859375 220.710938 C 83.863281 210.542969 82.570312 202.03125 81.980469 195.171875 C 81.445312 188.28125 81.574219 183.527344 82.351562 180.90625 C 82.601562 180.128906 82.898438 179.367188 83.242188 178.617188 C 85.921875 181.453125 89.503906 184.023438 93.992188 186.332031 C 94.960938 186.832031 95.957031 187.296875 96.984375 187.738281 C 95.304688 199.675781 98.03125 210.46875 105.167969 220.097656 C 106.695312 222.1875 107.394531 230.609375 107.269531 245.355469 C 107.179688 260.074219 106.417969 275.289062 104.980469 291.003906 C 103.546875 306.71875 102.394531 320.605469 101.523438 332.675781 C 101.335938 335.234375 101.210938 337.585938 101.148438 339.738281 Z M 134.761719 344.179688 C 134.855469 345.117188 134.933594 346.039062 134.996094 346.941406 C 134.558594 347.59375 134.109375 348.234375 133.640625 348.859375 C 132.113281 351.007812 130.351562 352.941406 128.355469 354.65625 C 125.207031 357.429688 121.53125 359.113281 117.324219 359.707031 C 114.859375 360.019531 112.382812 360.003906 109.890625 359.660156 C 109.265625 359.535156 108.609375 359.410156 107.929688 359.285156 C 108.269531 349.371094 108.78125 339.175781 109.46875 328.699219 C 109.53125 328.074219 109.578125 327.449219 109.609375 326.828125 C 110.667969 311.207031 112.089844 294.945312 113.863281 278.050781 C 114.921875 267.914062 115.578125 259.011719 115.828125 251.34375 C 116.078125 244.699219 116 239.011719 115.59375 234.273438 C 115.15625 228.785156 114.316406 224.542969 113.070312 221.550781 C 109.515625 212.910156 108.425781 204.773438 109.796875 197.136719 C 110.136719 195.207031 110.5 193.488281 110.871094 191.992188 C 112.804688 192.367188 114.40625 192.550781 115.6875 192.550781 C 130.054688 192.550781 139.953125 189.167969 145.375 182.40625 C 146.777344 180.625 147.792969 178.695312 148.414062 176.601562 C 152.964844 193.066406 154.085938 209.589844 151.78125 226.179688 C 149.472656 242.832031 145.78125 259.152344 140.699219 275.148438 C 135.527344 291.609375 133.238281 308.605469 133.828125 326.128906 C 134.015625 332.144531 134.324219 338.164062 134.761719 344.179688 " fill-opacity="1" fill-rule="evenodd"/></g><path fill="#82a8de" d="M 83.242188 178.617188 C 82.898438 179.367188 82.601562 180.128906 82.351562 180.90625 C 81.574219 183.527344 81.445312 188.28125 81.980469 195.171875 C 82.570312 202.03125 83.863281 210.542969 85.859375 220.710938 C 86.546875 224.109375 86.953125 227.382812 87.074219 230.53125 C 87.386719 236.796875 86.609375 242.597656 84.738281 247.925781 C 81.960938 255.941406 80.359375 263.53125 79.921875 270.707031 C 79.546875 277.875 79.5 283.113281 79.78125 286.421875 C 80.683594 296.929688 81.605469 307.386719 82.539062 317.800781 C 82.789062 320.640625 83.054688 323.476562 83.335938 326.3125 C 83.957031 332.519531 84.65625 338.675781 85.4375 344.789062 C 83.878906 344.351562 82.554688 343.605469 81.464844 342.542969 C 81.402344 342.449219 81.339844 342.371094 81.277344 342.3125 C 80.152344 341.15625 79.515625 339.769531 79.363281 338.144531 C 78.738281 331.101562 77.972656 324.007812 77.070312 316.863281 C 75.730469 306.140625 74 295.460938 71.882812 284.828125 C 70.570312 278.34375 70.539062 271.875 71.785156 265.421875 C 72.941406 259.652344 74.46875 253.945312 76.371094 248.304688 C 80.042969 237.484375 81.109375 226.371094 79.546875 214.953125 C 79.328125 213.304688 78.972656 211.695312 78.472656 210.140625 C 74.949219 199.601562 73.8125 188.8125 75.058594 177.773438 C 75.402344 174.8125 75.746094 171.863281 76.089844 168.933594 C 76.335938 166.972656 76.804688 165.207031 77.492188 163.648438 C 77.457031 163.835938 77.429688 164.023438 77.394531 164.210938 C 77.394531 168.292969 78.488281 172.019531 80.667969 175.390625 C 81.417969 176.511719 82.277344 177.585938 83.242188 178.617188 Z M 96.984375 187.738281 C 100.070312 189.078125 103.359375 190.179688 106.851562 191.058594 C 108.191406 191.429688 109.453125 191.726562 110.636719 191.945312 C 110.734375 191.976562 110.808594 191.992188 110.871094 191.992188 C 110.5 193.488281 110.136719 195.207031 109.796875 197.136719 C 108.425781 204.773438 109.515625 212.910156 113.070312 221.550781 C 114.316406 224.542969 115.15625 228.785156 115.59375 234.273438 C 116 239.011719 116.078125 244.699219 115.828125 251.34375 C 115.578125 259.011719 114.921875 267.914062 113.863281 278.050781 C 112.089844 294.945312 110.667969 311.207031 109.609375 326.828125 C 109.578125 327.449219 109.53125 328.074219 109.46875 328.699219 C 108.78125 339.175781 108.269531 349.371094 107.929688 359.285156 C 107.148438 359.847656 105.902344 358.976562 104.1875 356.667969 C 103.9375 356.292969 103.671875 355.902344 103.390625 355.496094 C 102.738281 354.53125 102.222656 353.144531 101.851562 351.335938 C 101.691406 350.558594 101.570312 349.699219 101.472656 348.761719 C 101.191406 346.273438 101.082031 343.261719 101.148438 339.738281 C 101.210938 337.585938 101.335938 335.234375 101.523438 332.675781 C 102.394531 320.605469 103.546875 306.71875 104.980469 291.003906 C 106.417969 275.289062 107.179688 260.074219 107.269531 245.355469 C 107.394531 230.609375 106.695312 222.1875 105.167969 220.097656 C 98.03125 210.46875 95.304688 199.675781 96.984375 187.738281 " fill-opacity="1" fill-rule="evenodd"/><path fill="#6586b5" d="M 107.929688 359.285156 C 108.609375 359.410156 109.265625 359.535156 109.890625 359.660156 C 112.382812 360.003906 114.859375 360.019531 117.324219 359.707031 C 121.53125 359.113281 125.207031 357.429688 128.355469 354.65625 C 130.351562 352.941406 132.113281 351.007812 133.640625 348.859375 C 134.109375 348.234375 134.558594 347.59375 134.996094 346.941406 C 134.933594 346.039062 134.855469 345.117188 134.761719 344.179688 L 138.503906 345.769531 C 139.6875 346.363281 140.71875 346.816406 141.589844 347.125 C 142.742188 347.59375 143.847656 347.875 144.90625 347.96875 L 157.996094 349.511719 C 160.648438 349.792969 162.4375 350.601562 163.375 351.941406 C 164.34375 353.066406 164.746094 354.4375 164.589844 356.058594 C 164.527344 356.589844 164.417969 357.074219 164.265625 357.511719 C 163.890625 358.507812 163.34375 359.300781 162.628906 359.894531 C 160.132812 362.109375 157 363.746094 153.230469 364.804688 C 151.796875 365.179688 150.285156 365.476562 148.695312 365.695312 C 146.171875 366.164062 141.976562 366.441406 136.117188 366.535156 C 133.75 366.597656 131.601562 366.707031 129.667969 366.863281 C 128.417969 367.175781 127.222656 367.347656 126.066406 367.375 L 122.277344 368.078125 C 120.628906 368.421875 119.273438 368.640625 118.214844 368.734375 C 117.402344 368.859375 116.652344 368.953125 115.96875 369.011719 C 112.039062 369.292969 108.722656 368.8125 106.011719 367.566406 C 105.011719 367.222656 104.339844 366.460938 103.996094 365.273438 L 103.996094 365.179688 C 103.75 364.464844 103.59375 363.402344 103.53125 361.996094 C 103.53125 360.347656 103.75 358.570312 104.1875 356.667969 C 105.902344 358.976562 107.148438 359.847656 107.929688 359.285156 Z M 85.4375 344.789062 C 91.265625 345.414062 96.503906 343.730469 101.148438 339.738281 C 101.082031 343.261719 101.191406 346.273438 101.472656 348.761719 C 100.847656 349.292969 100.304688 349.808594 99.835938 350.304688 C 96.378906 353.859375 92.917969 355.359375 89.460938 354.796875 C 87.496094 354.515625 85.9375 354.175781 84.785156 353.769531 C 83.597656 353.300781 82.664062 352.753906 81.980469 352.132812 C 81.761719 352.039062 81.605469 351.882812 81.511719 351.664062 L 80.949219 351.054688 C 80.855469 350.558594 80.792969 350.121094 80.765625 349.746094 C 80.703125 348.6875 80.765625 347.40625 80.949219 345.910156 C 81.167969 344.632812 81.339844 343.507812 81.464844 342.542969 C 82.554688 343.605469 83.878906 344.351562 85.4375 344.789062 " fill-opacity="1" fill-rule="evenodd"/><g clip-path="url(#55bacee3ae)"><path fill="#b7c5c5" d="M 274.320312 297.691406 C 276.125 296.539062 277.71875 295.179688 279.085938 293.621094 C 279.464844 293.28125 279.789062 292.953125 280.070312 292.640625 C 286.710938 285.15625 290.105469 274.214844 290.265625 259.808594 C 290.382812 240.476562 284.621094 220.660156 272.964844 200.363281 C 261.367188 180.160156 247.175781 165.238281 230.371094 155.605469 C 218.121094 148.589844 207.210938 145.925781 197.644531 147.605469 C 196.925781 147.761719 196.257812 147.902344 195.632812 148.03125 C 193.761719 148.589844 191.925781 149.289062 190.117188 150.132812 L 215.925781 135.355469 C 218.324219 134.199219 220.820312 133.375 223.40625 132.875 L 223.453125 132.875 C 233.019531 131.160156 243.882812 133.792969 256.039062 140.78125 C 272.839844 150.414062 287.035156 165.335938 298.632812 185.539062 C 310.289062 205.867188 316.054688 225.695312 315.929688 245.03125 C 315.773438 259.464844 312.40625 270.390625 305.832031 277.816406 C 304.054688 279.8125 302.0625 281.539062 299.847656 283.003906 C 299.472656 283.347656 290.964844 288.246094 274.320312 297.691406 " fill-opacity="1" fill-rule="evenodd"/></g><path fill="#ff4f11" d="M 195.726562 166.738281 C 204.863281 161.4375 215.914062 162.542969 228.875 170.054688 C 241.84375 177.570312 252.890625 189.292969 262.023438 205.226562 C 271.09375 221.128906 275.613281 236.609375 275.582031 251.667969 C 275.582031 266.667969 270.980469 276.820312 261.789062 282.117188 C 252.65625 287.417969 241.609375 286.3125 228.640625 278.796875 C 215.707031 271.28125 204.660156 259.558594 195.496094 243.625 C 186.425781 227.726562 181.890625 212.277344 181.890625 197.277344 C 181.921875 182.214844 186.535156 172.035156 195.726562 166.738281 Z M 195.398438 218.042969 L 217.65625 230.902344 L 217.605469 256.722656 L 239.863281 269.675781 L 239.957031 243.859375 L 262.164062 256.722656 L 262.210938 230.902344 L 240.003906 218.042969 L 240.097656 192.226562 L 217.796875 179.269531 L 217.75 205.089844 L 195.445312 192.226562 L 195.398438 218.042969 " fill-opacity="1" fill-rule="evenodd"/></svg>